<?xml version="1.0" encoding="UTF-8" standalone="no"?>
<!DOCTYPE svg PUBLIC "-//W3C//DTD SVG 1.1//EN"
 "http://www.w3.org/Graphics/SVG/1.1/DTD/svg11.dtd">
<!-- Generated by graphviz version 2.43.0 (0)
 -->
<!-- Title: abstract_sensor_interface.h Pages: 1 -->
<svg width="217pt" height="151pt"
 viewBox="0.00 0.00 217.00 151.00" xmlns="http://www.w3.org/2000/svg" xmlns:xlink="http://www.w3.org/1999/xlink">
<g id="graph0" class="graph" transform="scale(1 1) rotate(0) translate(4 147)">
<title>abstract_sensor_interface.h</title>
<!-- Node1 -->
<g id="node1" class="node">
<title>Node1</title>
<g id="a_node1"><a xlink:title=" ">
<polygon fill="#bfbfbf" stroke="black" points="0,-123.5 0,-142.5 152,-142.5 152,-123.5 0,-123.5"/>
<text text-anchor="middle" x="76" y="-130.5" font-family="Helvetica,sans-Serif" font-size="10.00">abstract_sensor_interface.h</text>
</a>
</g>
</g>
<!-- Node2 -->
<g id="node2" class="node">
<title>Node2</title>
<g id="a_node2"><a xlink:title=" ">
<polygon fill="none" stroke="#bfbfbf" points="49.5,-0.5 49.5,-19.5 102.5,-19.5 102.5,-0.5 49.5,-0.5"/>
<text text-anchor="middle" x="76" y="-7.5" font-family="Helvetica,sans-Serif" font-size="10.00">stdint.h</text>
</a>
</g>
</g>
<!-- Node1&#45;&gt;Node2 -->
<g id="edge1" class="edge">
<title>Node1&#45;&gt;Node2</title>
<path fill="none" stroke="midnightblue" d="M66.71,-123.39C58.42,-115.02 46.86,-101.48 42,-87 37.62,-73.94 37.62,-69.06 42,-56 45.6,-45.25 52.9,-35.02 59.82,-27.04"/>
<polygon fill="midnightblue" stroke="midnightblue" points="62.48,-29.32 66.71,-19.61 57.35,-24.56 62.48,-29.32"/>
</g>
<!-- Node3 -->
<g id="node3" class="node">
<title>Node3</title>
<g id="a_node3"><a xlink:href="../../d7/d99/abstract__sensor__driver_8h.html" target="_top" xlink:title=" ">
<polygon fill="none" stroke="black" points="51,-56.5 51,-86.5 209,-86.5 209,-56.5 51,-56.5"/>
<text text-anchor="start" x="59" y="-74.5" font-family="Helvetica,sans-Serif" font-size="10.00">vitroio&#45;sdk/measurement</text>
<text text-anchor="middle" x="130" y="-63.5" font-family="Helvetica,sans-Serif" font-size="10.00">&#45;api/abstract_sensor_driver.h</text>
</a>
</g>
</g>
<!-- Node1&#45;&gt;Node3 -->
<g id="edge2" class="edge">
<title>Node1&#45;&gt;Node3</title>
<path fill="none" stroke="midnightblue" d="M83.74,-123.48C90.71,-115.79 101.26,-104.17 110.52,-93.96"/>
<polygon fill="midnightblue" stroke="midnightblue" points="113.14,-96.28 117.27,-86.52 107.96,-91.58 113.14,-96.28"/>
</g>
<!-- Node3&#45;&gt;Node2 -->
<g id="edge3" class="edge">
<title>Node3&#45;&gt;Node2</title>
<path fill="none" stroke="midnightblue" d="M117.2,-56.4C109.28,-47.66 99.06,-36.41 90.79,-27.3"/>
<polygon fill="midnightblue" stroke="midnightblue" points="93.17,-24.71 83.86,-19.66 87.99,-29.42 93.17,-24.71"/>
</g>
</g>
</svg>
