<?xml version="1.0" encoding="UTF-8" standalone="no"?>
<!DOCTYPE svg PUBLIC "-//W3C//DTD SVG 1.1//EN"
 "http://www.w3.org/Graphics/SVG/1.1/DTD/svg11.dtd">
<!-- Generated by graphviz version 2.43.0 (0)
 -->
<!-- Title: transport_layer.h Pages: 1 -->
<svg width="440pt" height="140pt"
 viewBox="0.00 0.00 439.50 140.00" xmlns="http://www.w3.org/2000/svg" xmlns:xlink="http://www.w3.org/1999/xlink">
<g id="graph0" class="graph" transform="scale(1 1) rotate(0) translate(4 136)">
<title>transport_layer.h</title>
<!-- Node1 -->
<g id="node1" class="node">
<title>Node1</title>
<g id="a_node1"><a xlink:title=" ">
<polygon fill="#bfbfbf" stroke="black" points="129.5,-112.5 129.5,-131.5 228.5,-131.5 228.5,-112.5 129.5,-112.5"/>
<text text-anchor="middle" x="179" y="-119.5" font-family="Helvetica,sans-Serif" font-size="10.00">transport_layer.h</text>
</a>
</g>
</g>
<!-- Node2 -->
<g id="node2" class="node">
<title>Node2</title>
<g id="a_node2"><a xlink:href="../../df/dce/can__layer_8h.html" target="_top" xlink:title=" ">
<polygon fill="none" stroke="black" points="0,-56.5 0,-75.5 72,-75.5 72,-56.5 0,-56.5"/>
<text text-anchor="middle" x="36" y="-63.5" font-family="Helvetica,sans-Serif" font-size="10.00">can_layer.h</text>
</a>
</g>
</g>
<!-- Node1&#45;&gt;Node2 -->
<g id="edge1" class="edge">
<title>Node1&#45;&gt;Node2</title>
<path fill="none" stroke="midnightblue" d="M146.97,-108.91C120.09,-98.75 82.36,-84.51 58.55,-75.52"/>
<polygon fill="midnightblue" stroke="midnightblue" points="145.75,-112.19 156.34,-112.44 148.22,-105.64 145.75,-112.19"/>
</g>
<!-- Node3 -->
<g id="node3" class="node">
<title>Node3</title>
<g id="a_node3"><a xlink:href="../../d4/d3e/shard-sdk_8h.html" target="_top" xlink:title=" ">
<polygon fill="none" stroke="black" points="102,-0.5 102,-19.5 176,-19.5 176,-0.5 102,-0.5"/>
<text text-anchor="middle" x="139" y="-7.5" font-family="Helvetica,sans-Serif" font-size="10.00">shard&#45;sdk.h</text>
</a>
</g>
</g>
<!-- Node1&#45;&gt;Node3 -->
<g id="edge8" class="edge">
<title>Node1&#45;&gt;Node3</title>
<path fill="none" stroke="midnightblue" d="M150.71,-107.38C138.61,-99.93 125.73,-89.46 119,-76 109.5,-56.99 123.24,-32.58 132.25,-19.76"/>
<polygon fill="midnightblue" stroke="midnightblue" points="149.28,-110.59 159.7,-112.48 152.73,-104.5 149.28,-110.59"/>
</g>
<!-- Node4 -->
<g id="node4" class="node">
<title>Node4</title>
<g id="a_node4"><a xlink:href="../../d6/d9f/node__controller_8h.html" target="_top" xlink:title=" ">
<polygon fill="none" stroke="black" points="128.5,-56.5 128.5,-75.5 229.5,-75.5 229.5,-56.5 128.5,-56.5"/>
<text text-anchor="middle" x="179" y="-63.5" font-family="Helvetica,sans-Serif" font-size="10.00">node_controller.h</text>
</a>
</g>
</g>
<!-- Node1&#45;&gt;Node4 -->
<g id="edge3" class="edge">
<title>Node1&#45;&gt;Node4</title>
<path fill="none" stroke="midnightblue" d="M179,-101.8C179,-92.91 179,-82.78 179,-75.75"/>
<polygon fill="midnightblue" stroke="midnightblue" points="175.5,-102.08 179,-112.08 182.5,-102.08 175.5,-102.08"/>
</g>
<!-- Node5 -->
<g id="node5" class="node">
<title>Node5</title>
<g id="a_node5"><a xlink:href="../../dd/d88/iot-block_8h.html" target="_top" xlink:title=" ">
<polygon fill="none" stroke="black" points="266,-56.5 266,-75.5 334,-75.5 334,-56.5 266,-56.5"/>
<text text-anchor="middle" x="300" y="-63.5" font-family="Helvetica,sans-Serif" font-size="10.00">iot&#45;block.h</text>
</a>
</g>
</g>
<!-- Node1&#45;&gt;Node5 -->
<g id="edge6" class="edge">
<title>Node1&#45;&gt;Node5</title>
<path fill="none" stroke="midnightblue" d="M207.31,-108.37C229.97,-98.26 261.13,-84.35 280.92,-75.52"/>
<polygon fill="midnightblue" stroke="midnightblue" points="205.88,-105.17 198.17,-112.44 208.73,-111.56 205.88,-105.17"/>
</g>
<!-- Node6 -->
<g id="node6" class="node">
<title>Node6</title>
<g id="a_node6"><a xlink:href="../../d2/d02/timestamp_8h.html" target="_top" xlink:title=" ">
<polygon fill="none" stroke="black" points="352.5,-56.5 352.5,-75.5 431.5,-75.5 431.5,-56.5 352.5,-56.5"/>
<text text-anchor="middle" x="392" y="-63.5" font-family="Helvetica,sans-Serif" font-size="10.00">timestamp.h</text>
</a>
</g>
</g>
<!-- Node1&#45;&gt;Node6 -->
<g id="edge9" class="edge">
<title>Node1&#45;&gt;Node6</title>
<path fill="none" stroke="midnightblue" d="M222.55,-109.96C262.78,-99.76 321.7,-84.82 358.41,-75.52"/>
<polygon fill="midnightblue" stroke="midnightblue" points="221.58,-106.59 212.75,-112.44 223.3,-113.38 221.58,-106.59"/>
</g>
<!-- Node2&#45;&gt;Node3 -->
<g id="edge2" class="edge">
<title>Node2&#45;&gt;Node3</title>
<path fill="none" stroke="midnightblue" d="M61.58,-51.59C80.62,-41.61 106.06,-28.27 122.49,-19.65"/>
<polygon fill="midnightblue" stroke="midnightblue" points="59.78,-48.58 52.55,-56.32 63.03,-54.78 59.78,-48.58"/>
</g>
<!-- Node4&#45;&gt;Node3 -->
<g id="edge5" class="edge">
<title>Node4&#45;&gt;Node3</title>
<path fill="none" stroke="midnightblue" d="M166.3,-47.86C159.37,-38.5 151.09,-27.33 145.48,-19.75"/>
<polygon fill="midnightblue" stroke="midnightblue" points="163.63,-50.13 172.39,-56.08 169.25,-45.96 163.63,-50.13"/>
</g>
<!-- Node4&#45;&gt;Node4 -->
<g id="edge4" class="edge">
<title>Node4&#45;&gt;Node4</title>
<path fill="none" stroke="midnightblue" d="M218.32,-76.43C234.17,-77.04 247.5,-73.56 247.5,-66 247.5,-56.87 228.07,-53.69 208.22,-56.47"/>
<polygon fill="midnightblue" stroke="midnightblue" points="218.49,-72.93 208.22,-75.53 217.86,-79.91 218.49,-72.93"/>
</g>
<!-- Node5&#45;&gt;Node3 -->
<g id="edge7" class="edge">
<title>Node5&#45;&gt;Node3</title>
<path fill="none" stroke="midnightblue" d="M264.74,-53.17C234.42,-43 191.43,-28.59 164.39,-19.52"/>
<polygon fill="midnightblue" stroke="midnightblue" points="263.9,-56.58 274.49,-56.44 266.12,-49.95 263.9,-56.58"/>
</g>
</g>
</svg>
