<?xml version="1.0" encoding="UTF-8" standalone="no"?>
<!DOCTYPE svg PUBLIC "-//W3C//DTD SVG 1.1//EN"
 "http://www.w3.org/Graphics/SVG/1.1/DTD/svg11.dtd">
<!-- Generated by graphviz version 2.43.0 (0)
 -->
<!-- Title: canbus_frame.h Pages: 1 -->
<svg width="380pt" height="196pt"
 viewBox="0.00 0.00 379.50 196.00" xmlns="http://www.w3.org/2000/svg" xmlns:xlink="http://www.w3.org/1999/xlink">
<g id="graph0" class="graph" transform="scale(1 1) rotate(0) translate(4 192)">
<title>canbus_frame.h</title>
<!-- Node1 -->
<g id="node1" class="node">
<title>Node1</title>
<g id="a_node1"><a xlink:title=" ">
<polygon fill="#bfbfbf" stroke="black" points="176.5,-168.5 176.5,-187.5 271.5,-187.5 271.5,-168.5 176.5,-168.5"/>
<text text-anchor="middle" x="224" y="-175.5" font-family="Helvetica,sans-Serif" font-size="10.00">canbus_frame.h</text>
</a>
</g>
</g>
<!-- Node2 -->
<g id="node2" class="node">
<title>Node2</title>
<g id="a_node2"><a xlink:href="../../d1/dd8/canbus_8h.html" target="_top" xlink:title=" ">
<polygon fill="none" stroke="black" points="101,-112.5 101,-131.5 161,-131.5 161,-112.5 101,-112.5"/>
<text text-anchor="middle" x="131" y="-119.5" font-family="Helvetica,sans-Serif" font-size="10.00">canbus.h</text>
</a>
</g>
</g>
<!-- Node1&#45;&gt;Node2 -->
<g id="edge1" class="edge">
<title>Node1&#45;&gt;Node2</title>
<path fill="none" stroke="midnightblue" d="M200.19,-163.18C183.08,-153.24 160.53,-140.15 145.9,-131.65"/>
<polygon fill="midnightblue" stroke="midnightblue" points="198.65,-166.33 209.06,-168.32 202.17,-160.28 198.65,-166.33"/>
</g>
<!-- Node4 -->
<g id="node4" class="node">
<title>Node4</title>
<g id="a_node4"><a xlink:href="../../d4/d3e/shard-sdk_8h.html" target="_top" xlink:title=" ">
<polygon fill="none" stroke="black" points="125,-0.5 125,-19.5 199,-19.5 199,-0.5 125,-0.5"/>
<text text-anchor="middle" x="162" y="-7.5" font-family="Helvetica,sans-Serif" font-size="10.00">shard&#45;sdk.h</text>
</a>
</g>
</g>
<!-- Node1&#45;&gt;Node4 -->
<g id="edge10" class="edge">
<title>Node1&#45;&gt;Node4</title>
<path fill="none" stroke="midnightblue" d="M224.45,-158.08C224.3,-133.34 221.44,-89.24 205,-56 197.62,-41.08 183.56,-27.83 173.53,-19.63"/>
<polygon fill="midnightblue" stroke="midnightblue" points="220.95,-158.23 224.36,-168.26 227.95,-158.29 220.95,-158.23"/>
</g>
<!-- Node6 -->
<g id="node6" class="node">
<title>Node6</title>
<g id="a_node6"><a xlink:href="../../d6/d9f/node__controller_8h.html" target="_top" xlink:title=" ">
<polygon fill="none" stroke="black" points="252.5,-112.5 252.5,-131.5 353.5,-131.5 353.5,-112.5 252.5,-112.5"/>
<text text-anchor="middle" x="303" y="-119.5" font-family="Helvetica,sans-Serif" font-size="10.00">node_controller.h</text>
</a>
</g>
</g>
<!-- Node1&#45;&gt;Node6 -->
<g id="edge7" class="edge">
<title>Node1&#45;&gt;Node6</title>
<path fill="none" stroke="midnightblue" d="M245.03,-162.62C259.47,-152.76 278.14,-139.99 290.34,-131.65"/>
<polygon fill="midnightblue" stroke="midnightblue" points="242.97,-159.79 236.69,-168.32 246.92,-165.57 242.97,-159.79"/>
</g>
<!-- Node3 -->
<g id="node3" class="node">
<title>Node3</title>
<g id="a_node3"><a xlink:href="../../df/dce/can__layer_8h.html" target="_top" xlink:title=" ">
<polygon fill="none" stroke="black" points="0,-56.5 0,-75.5 72,-75.5 72,-56.5 0,-56.5"/>
<text text-anchor="middle" x="36" y="-63.5" font-family="Helvetica,sans-Serif" font-size="10.00">can_layer.h</text>
</a>
</g>
</g>
<!-- Node2&#45;&gt;Node3 -->
<g id="edge2" class="edge">
<title>Node2&#45;&gt;Node3</title>
<path fill="none" stroke="midnightblue" d="M106.68,-107.18C89.2,-97.24 66.17,-84.15 51.23,-75.65"/>
<polygon fill="midnightblue" stroke="midnightblue" points="105.31,-110.43 115.74,-112.32 108.77,-104.34 105.31,-110.43"/>
</g>
<!-- Node2&#45;&gt;Node4 -->
<g id="edge6" class="edge">
<title>Node2&#45;&gt;Node4</title>
<path fill="none" stroke="midnightblue" d="M122.38,-102.82C117.29,-89.48 112.93,-71.13 119,-56 125.11,-40.76 139.13,-27.75 149.5,-19.7"/>
<polygon fill="midnightblue" stroke="midnightblue" points="119.27,-104.46 126.42,-112.28 125.71,-101.71 119.27,-104.46"/>
</g>
<!-- Node5 -->
<g id="node5" class="node">
<title>Node5</title>
<g id="a_node5"><a xlink:href="../../dd/d88/iot-block_8h.html" target="_top" xlink:title=" ">
<polygon fill="none" stroke="black" points="128,-56.5 128,-75.5 196,-75.5 196,-56.5 128,-56.5"/>
<text text-anchor="middle" x="162" y="-63.5" font-family="Helvetica,sans-Serif" font-size="10.00">iot&#45;block.h</text>
</a>
</g>
</g>
<!-- Node2&#45;&gt;Node5 -->
<g id="edge4" class="edge">
<title>Node2&#45;&gt;Node5</title>
<path fill="none" stroke="midnightblue" d="M141.18,-103.27C146.47,-94.05 152.72,-83.17 156.98,-75.75"/>
<polygon fill="midnightblue" stroke="midnightblue" points="138.06,-101.67 136.12,-112.08 144.13,-105.15 138.06,-101.67"/>
</g>
<!-- Node3&#45;&gt;Node4 -->
<g id="edge3" class="edge">
<title>Node3&#45;&gt;Node4</title>
<path fill="none" stroke="midnightblue" d="M65.16,-52.5C88.78,-42.38 121.43,-28.39 142.13,-19.52"/>
<polygon fill="midnightblue" stroke="midnightblue" points="63.78,-49.29 55.97,-56.44 66.54,-55.72 63.78,-49.29"/>
</g>
<!-- Node5&#45;&gt;Node4 -->
<g id="edge5" class="edge">
<title>Node5&#45;&gt;Node4</title>
<path fill="none" stroke="midnightblue" d="M162,-45.8C162,-36.91 162,-26.78 162,-19.75"/>
<polygon fill="midnightblue" stroke="midnightblue" points="158.5,-46.08 162,-56.08 165.5,-46.08 158.5,-46.08"/>
</g>
<!-- Node6&#45;&gt;Node4 -->
<g id="edge9" class="edge">
<title>Node6&#45;&gt;Node4</title>
<path fill="none" stroke="midnightblue" d="M288.7,-104.54C276.16,-90.66 257,-70.75 238,-56 219.1,-41.33 195.01,-27.83 179.08,-19.52"/>
<polygon fill="midnightblue" stroke="midnightblue" points="286.34,-107.16 295.6,-112.31 291.58,-102.51 286.34,-107.16"/>
</g>
<!-- Node6&#45;&gt;Node6 -->
<g id="edge8" class="edge">
<title>Node6&#45;&gt;Node6</title>
<path fill="none" stroke="midnightblue" d="M342.32,-132.43C358.17,-133.04 371.5,-129.56 371.5,-122 371.5,-112.87 352.07,-109.69 332.22,-112.47"/>
<polygon fill="midnightblue" stroke="midnightblue" points="342.49,-128.93 332.22,-131.53 341.86,-135.91 342.49,-128.93"/>
</g>
</g>
</svg>
