<?xml version="1.0" encoding="UTF-8" standalone="no"?>
<!DOCTYPE svg PUBLIC "-//W3C//DTD SVG 1.1//EN"
 "http://www.w3.org/Graphics/SVG/1.1/DTD/svg11.dtd">
<!-- Generated by graphviz version 2.43.0 (0)
 -->
<!-- Title: node_controller.h Pages: 1 -->
<svg width="127pt" height="85pt"
 viewBox="0.00 0.00 127.00 84.74" xmlns="http://www.w3.org/2000/svg" xmlns:xlink="http://www.w3.org/1999/xlink">
<g id="graph0" class="graph" transform="scale(1 1) rotate(0) translate(4 80.74)">
<title>node_controller.h</title>
<!-- Node1 -->
<g id="node1" class="node">
<title>Node1</title>
<g id="a_node1"><a xlink:title=" ">
<polygon fill="#bfbfbf" stroke="black" points="0,-56.5 0,-75.5 101,-75.5 101,-56.5 0,-56.5"/>
<text text-anchor="middle" x="50.5" y="-63.5" font-family="Helvetica,sans-Serif" font-size="10.00">node_controller.h</text>
</a>
</g>
</g>
<!-- Node1&#45;&gt;Node1 -->
<g id="edge1" class="edge">
<title>Node1&#45;&gt;Node1</title>
<path fill="none" stroke="midnightblue" d="M89.82,-76.43C105.67,-77.04 119,-73.56 119,-66 119,-56.87 99.57,-53.69 79.72,-56.47"/>
<polygon fill="midnightblue" stroke="midnightblue" points="89.99,-72.93 79.72,-75.53 89.36,-79.91 89.99,-72.93"/>
</g>
<!-- Node2 -->
<g id="node2" class="node">
<title>Node2</title>
<g id="a_node2"><a xlink:href="../../d4/d3e/shard-sdk_8h.html" target="_top" xlink:title=" ">
<polygon fill="none" stroke="black" points="13.5,-0.5 13.5,-19.5 87.5,-19.5 87.5,-0.5 13.5,-0.5"/>
<text text-anchor="middle" x="50.5" y="-7.5" font-family="Helvetica,sans-Serif" font-size="10.00">shard&#45;sdk.h</text>
</a>
</g>
</g>
<!-- Node1&#45;&gt;Node2 -->
<g id="edge2" class="edge">
<title>Node1&#45;&gt;Node2</title>
<path fill="none" stroke="midnightblue" d="M50.5,-45.8C50.5,-36.91 50.5,-26.78 50.5,-19.75"/>
<polygon fill="midnightblue" stroke="midnightblue" points="47,-46.08 50.5,-56.08 54,-46.08 47,-46.08"/>
</g>
</g>
</svg>
