<?xml version="1.0" encoding="UTF-8" standalone="no"?>
<!DOCTYPE svg PUBLIC "-//W3C//DTD SVG 1.1//EN"
 "http://www.w3.org/Graphics/SVG/1.1/DTD/svg11.dtd">
<!-- Generated by graphviz version 2.43.0 (0)
 -->
<!-- Title: can_layer.h Pages: 1 -->
<svg width="451pt" height="218pt"
 viewBox="0.00 0.00 451.26 218.00" xmlns="http://www.w3.org/2000/svg" xmlns:xlink="http://www.w3.org/1999/xlink">
<g id="graph0" class="graph" transform="scale(1 1) rotate(0) translate(4 214)">
<title>can_layer.h</title>
<!-- Node1 -->
<g id="node1" class="node">
<title>Node1</title>
<g id="a_node1"><a xlink:title=" ">
<polygon fill="#bfbfbf" stroke="black" points="27.26,-190.5 27.26,-209.5 99.26,-209.5 99.26,-190.5 27.26,-190.5"/>
<text text-anchor="middle" x="63.26" y="-197.5" font-family="Helvetica,sans-Serif" font-size="10.00">can_layer.h</text>
</a>
</g>
</g>
<!-- Node2 -->
<g id="node2" class="node">
<title>Node2</title>
<g id="a_node2"><a xlink:title=" ">
<polygon fill="none" stroke="#bfbfbf" points="74.76,-0.5 74.76,-19.5 127.76,-19.5 127.76,-0.5 74.76,-0.5"/>
<text text-anchor="middle" x="101.26" y="-7.5" font-family="Helvetica,sans-Serif" font-size="10.00">mbed.h</text>
</a>
</g>
</g>
<!-- Node1&#45;&gt;Node2 -->
<g id="edge1" class="edge">
<title>Node1&#45;&gt;Node2</title>
<path fill="none" stroke="midnightblue" d="M44.28,-190.4C30.37,-182.95 12.55,-170.74 4.26,-154 -1.85,-141.65 -0.55,-135.91 4.26,-123 19.71,-81.57 58.14,-45.28 81.73,-25.91"/>
<polygon fill="midnightblue" stroke="midnightblue" points="84.05,-28.54 89.68,-19.56 79.68,-23.07 84.05,-28.54"/>
</g>
<!-- Node3 -->
<g id="node3" class="node">
<title>Node3</title>
<g id="a_node3"><a xlink:href="../../d6/d7f/transport__layer_8h.html" target="_top" xlink:title=" ">
<polygon fill="none" stroke="black" points="13.76,-129 13.76,-148 112.76,-148 112.76,-129 13.76,-129"/>
<text text-anchor="middle" x="63.26" y="-136" font-family="Helvetica,sans-Serif" font-size="10.00">transport_layer.h</text>
</a>
</g>
</g>
<!-- Node1&#45;&gt;Node3 -->
<g id="edge2" class="edge">
<title>Node1&#45;&gt;Node3</title>
<path fill="none" stroke="midnightblue" d="M63.26,-190.48C63.26,-182.08 63.26,-168.98 63.26,-158.16"/>
<polygon fill="midnightblue" stroke="midnightblue" points="66.76,-158.01 63.26,-148.01 59.76,-158.01 66.76,-158.01"/>
</g>
<!-- Node4 -->
<g id="node4" class="node">
<title>Node4</title>
<g id="a_node4"><a xlink:href="../../d1/dd8/canbus_8h.html" target="_top" xlink:title=" ">
<polygon fill="none" stroke="black" points="131.26,-123.5 131.26,-153.5 279.26,-153.5 279.26,-123.5 131.26,-123.5"/>
<text text-anchor="start" x="139.26" y="-141.5" font-family="Helvetica,sans-Serif" font-size="10.00">vitroio&#45;sdk/communication</text>
<text text-anchor="middle" x="205.26" y="-130.5" font-family="Helvetica,sans-Serif" font-size="10.00">/canbus.h</text>
</a>
</g>
</g>
<!-- Node1&#45;&gt;Node4 -->
<g id="edge4" class="edge">
<title>Node1&#45;&gt;Node4</title>
<path fill="none" stroke="midnightblue" d="M83.6,-190.48C104.09,-181.89 136.33,-168.38 162.47,-157.43"/>
<polygon fill="midnightblue" stroke="midnightblue" points="163.92,-160.62 171.79,-153.52 161.22,-154.16 163.92,-160.62"/>
</g>
<!-- Node3&#45;&gt;Node2 -->
<g id="edge3" class="edge">
<title>Node3&#45;&gt;Node2</title>
<path fill="none" stroke="midnightblue" d="M65.74,-128.92C70.05,-114.05 79.22,-82.54 87.26,-56 89.93,-47.18 92.96,-37.41 95.52,-29.23"/>
<polygon fill="midnightblue" stroke="midnightblue" points="98.88,-30.2 98.54,-19.61 92.2,-28.11 98.88,-30.2"/>
</g>
<!-- Node4&#45;&gt;Node2 -->
<g id="edge5" class="edge">
<title>Node4&#45;&gt;Node2</title>
<path fill="none" stroke="midnightblue" d="M168.33,-123.46C151.36,-115.25 132.35,-103.25 120.26,-87 107.86,-70.33 103.49,-46.5 101.98,-29.98"/>
<polygon fill="midnightblue" stroke="midnightblue" points="105.47,-29.65 101.34,-19.9 98.49,-30.1 105.47,-29.65"/>
</g>
<!-- Node5 -->
<g id="node5" class="node">
<title>Node5</title>
<g id="a_node5"><a xlink:href="../../d9/d8c/canbus__frame_8h.html" target="_top" xlink:title=" ">
<polygon fill="none" stroke="black" points="129.26,-56.5 129.26,-86.5 277.26,-86.5 277.26,-56.5 129.26,-56.5"/>
<text text-anchor="start" x="137.26" y="-74.5" font-family="Helvetica,sans-Serif" font-size="10.00">vitroio&#45;sdk/communication</text>
<text text-anchor="middle" x="203.26" y="-63.5" font-family="Helvetica,sans-Serif" font-size="10.00">/canbus_frame.h</text>
</a>
</g>
</g>
<!-- Node4&#45;&gt;Node5 -->
<g id="edge6" class="edge">
<title>Node4&#45;&gt;Node5</title>
<path fill="none" stroke="midnightblue" d="M204.83,-123.4C204.59,-115.64 204.28,-105.81 204.01,-96.86"/>
<polygon fill="midnightblue" stroke="midnightblue" points="207.5,-96.46 203.69,-86.58 200.5,-96.68 207.5,-96.46"/>
</g>
<!-- Node6 -->
<g id="node6" class="node">
<title>Node6</title>
<g id="a_node6"><a xlink:href="../../d7/de9/__CAN_8h.html" target="_top" xlink:title=" ">
<polygon fill="none" stroke="black" points="295.26,-56.5 295.26,-86.5 443.26,-86.5 443.26,-56.5 295.26,-56.5"/>
<text text-anchor="start" x="303.26" y="-74.5" font-family="Helvetica,sans-Serif" font-size="10.00">vitroio&#45;sdk/communication</text>
<text text-anchor="middle" x="369.26" y="-63.5" font-family="Helvetica,sans-Serif" font-size="10.00">/impl/_CAN.h</text>
</a>
</g>
</g>
<!-- Node4&#45;&gt;Node6 -->
<g id="edge8" class="edge">
<title>Node4&#45;&gt;Node6</title>
<path fill="none" stroke="midnightblue" d="M240.84,-123.4C265.34,-113.69 298.09,-100.71 324.38,-90.29"/>
<polygon fill="midnightblue" stroke="midnightblue" points="325.74,-93.51 333.74,-86.58 323.16,-87.01 325.74,-93.51"/>
</g>
<!-- Node5&#45;&gt;Node2 -->
<g id="edge7" class="edge">
<title>Node5&#45;&gt;Node2</title>
<path fill="none" stroke="midnightblue" d="M179.09,-56.4C162.74,-46.86 141.24,-34.32 124.99,-24.84"/>
<polygon fill="midnightblue" stroke="midnightblue" points="126.5,-21.67 116.1,-19.66 122.98,-27.72 126.5,-21.67"/>
</g>
<!-- Node6&#45;&gt;Node2 -->
<g id="edge9" class="edge">
<title>Node6&#45;&gt;Node2</title>
<path fill="none" stroke="midnightblue" d="M306.09,-56.47C253.65,-44.83 180.91,-28.68 137.71,-19.09"/>
<polygon fill="midnightblue" stroke="midnightblue" points="138.43,-15.67 127.91,-16.92 136.91,-22.5 138.43,-15.67"/>
</g>
</g>
</svg>
