<?xml version="1.0" encoding="UTF-8" standalone="no"?>
<!DOCTYPE svg PUBLIC "-//W3C//DTD SVG 1.1//EN"
 "http://www.w3.org/Graphics/SVG/1.1/DTD/svg11.dtd">
<!-- Generated by graphviz version 2.43.0 (0)
 -->
<!-- Title: vitroio::sdk::impl::Timestamp Pages: 1 -->
<svg width="555pt" height="137pt"
 viewBox="0.00 0.00 555.00 137.00" xmlns="http://www.w3.org/2000/svg" xmlns:xlink="http://www.w3.org/1999/xlink">
<g id="graph0" class="graph" transform="scale(1 1) rotate(0) translate(4 133)">
<title>vitroio::sdk::impl::Timestamp</title>
<!-- Node1 -->
<g id="node1" class="node">
<title>Node1</title>
<g id="a_node1"><a xlink:title="Class for maintaining timestamp tracking.">
<polygon fill="#bfbfbf" stroke="black" points="448,-49.5 448,-79.5 547,-79.5 547,-49.5 448,-49.5"/>
<text text-anchor="start" x="456" y="-67.5" font-family="Helvetica,sans-Serif" font-size="10.00">vitroio::sdk::impl</text>
<text text-anchor="middle" x="497.5" y="-56.5" font-family="Helvetica,sans-Serif" font-size="10.00">::Timestamp</text>
</a>
</g>
</g>
<!-- Node2 -->
<g id="node2" class="node">
<title>Node2</title>
<g id="a_node2"><a xlink:href="../../d6/dd0/classvitroio_1_1sdk_1_1Transport__layer.html" target="_top" xlink:title="Virtual class providing interface for communication interfaces.">
<polygon fill="none" stroke="black" points="208,-98.5 208,-128.5 330,-128.5 330,-98.5 208,-98.5"/>
<text text-anchor="start" x="216" y="-116.5" font-family="Helvetica,sans-Serif" font-size="10.00">vitroio::sdk::Transport</text>
<text text-anchor="middle" x="269" y="-105.5" font-family="Helvetica,sans-Serif" font-size="10.00">_layer</text>
</a>
</g>
</g>
<!-- Node2&#45;&gt;Node1 -->
<g id="edge1" class="edge">
<title>Node2&#45;&gt;Node1</title>
<path fill="none" stroke="#9a32cd" stroke-dasharray="5,2" d="M340.15,-98.79C368.12,-92.87 400.6,-85.94 430,-79.5 435.78,-78.23 441.84,-76.89 447.85,-75.55"/>
<polygon fill="#9a32cd" stroke="#9a32cd" points="339.12,-95.43 330.06,-100.92 340.57,-102.28 339.12,-95.43"/>
<text text-anchor="middle" x="397" y="-96.5" font-family="Helvetica,sans-Serif" font-size="10.00"> comm_port</text>
</g>
<!-- Node3 -->
<g id="node3" class="node">
<title>Node3</title>
<g id="a_node3"><a xlink:href="../../d2/d9c/classvitroio_1_1sdk_1_1impl_1_1EnvironmentInterface.html" target="_top" xlink:title="Class is wrapper for FlashInterface. It allows to read/write environment variables stored in flash me...">
<polygon fill="none" stroke="black" points="205,-49.5 205,-79.5 333,-79.5 333,-49.5 205,-49.5"/>
<text text-anchor="start" x="213" y="-67.5" font-family="Helvetica,sans-Serif" font-size="10.00">vitroio::sdk::impl</text>
<text text-anchor="middle" x="269" y="-56.5" font-family="Helvetica,sans-Serif" font-size="10.00">::EnvironmentInterface</text>
</a>
</g>
</g>
<!-- Node3&#45;&gt;Node1 -->
<g id="edge2" class="edge">
<title>Node3&#45;&gt;Node1</title>
<path fill="none" stroke="#9a32cd" stroke-dasharray="5,2" d="M343.5,-64.5C377.66,-64.5 417.35,-64.5 447.74,-64.5"/>
<polygon fill="#9a32cd" stroke="#9a32cd" points="343.09,-61 333.09,-64.5 343.09,-68 343.09,-61"/>
<text text-anchor="middle" x="397" y="-67.5" font-family="Helvetica,sans-Serif" font-size="10.00"> env</text>
</g>
<!-- Node4 -->
<g id="node4" class="node">
<title>Node4</title>
<g id="a_node4"><a xlink:title=" ">
<polygon fill="none" stroke="#bfbfbf" points="0,-49.5 0,-79.5 155,-79.5 155,-49.5 0,-49.5"/>
<text text-anchor="start" x="8" y="-67.5" font-family="Helvetica,sans-Serif" font-size="10.00">NonCopyable&lt; Environment</text>
<text text-anchor="middle" x="77.5" y="-56.5" font-family="Helvetica,sans-Serif" font-size="10.00">Interface &gt;</text>
</a>
</g>
</g>
<!-- Node4&#45;&gt;Node3 -->
<g id="edge3" class="edge">
<title>Node4&#45;&gt;Node3</title>
<path fill="none" stroke="#8b1a1a" d="M165.19,-64.5C178.54,-64.5 192.12,-64.5 204.83,-64.5"/>
<polygon fill="#8b1a1a" stroke="#8b1a1a" points="165.03,-61 155.03,-64.5 165.03,-68 165.03,-61"/>
</g>
<!-- Node5 -->
<g id="node5" class="node">
<title>Node5</title>
<g id="a_node5"><a xlink:href="../../d2/db8/structvitroio_1_1sdk_1_1impl_1_1Timestamp_1_1CurrentTime__t.html" target="_top" xlink:title=" ">
<polygon fill="none" stroke="black" points="192,-0.5 192,-30.5 346,-30.5 346,-0.5 192,-0.5"/>
<text text-anchor="start" x="200" y="-18.5" font-family="Helvetica,sans-Serif" font-size="10.00">vitroio::sdk::impl</text>
<text text-anchor="middle" x="269" y="-7.5" font-family="Helvetica,sans-Serif" font-size="10.00">::Timestamp::CurrentTime_t</text>
</a>
</g>
</g>
<!-- Node5&#45;&gt;Node1 -->
<g id="edge4" class="edge">
<title>Node5&#45;&gt;Node1</title>
<path fill="none" stroke="#9a32cd" stroke-dasharray="5,2" d="M351.59,-32.63C376.75,-37.97 404.53,-43.92 430,-49.5 435.78,-50.77 441.84,-52.11 447.85,-53.45"/>
<polygon fill="#9a32cd" stroke="#9a32cd" points="352.23,-29.19 341.72,-30.54 350.78,-36.04 352.23,-29.19"/>
<text text-anchor="middle" x="397" y="-52.5" font-family="Helvetica,sans-Serif" font-size="10.00"> current_time</text>
</g>
</g>
</svg>
