<?xml version="1.0" encoding="UTF-8" standalone="no"?>
<!DOCTYPE svg PUBLIC "-//W3C//DTD SVG 1.1//EN"
 "http://www.w3.org/Graphics/SVG/1.1/DTD/svg11.dtd">
<!-- Generated by graphviz version 2.43.0 (0)
 -->
<!-- Title: node_controller.h Pages: 1 -->
<svg width="960pt" height="220pt"
 viewBox="0.00 0.00 960.00 219.79" xmlns="http://www.w3.org/2000/svg" xmlns:xlink="http://www.w3.org/1999/xlink">
<g id="graph0" class="graph" transform="scale(1 1) rotate(0) translate(4 215.79)">
<title>node_controller.h</title>
<!-- Node1 -->
<g id="node1" class="node">
<title>Node1</title>
<g id="a_node1"><a xlink:title=" ">
<polygon fill="#bfbfbf" stroke="black" points="367.5,-190.5 367.5,-209.5 468.5,-209.5 468.5,-190.5 367.5,-190.5"/>
<text text-anchor="middle" x="418" y="-197.5" font-family="Helvetica,sans-Serif" font-size="10.00">node_controller.h</text>
</a>
</g>
</g>
<!-- Node1&#45;&gt;Node1 -->
<g id="edge2" class="edge">
<title>Node1&#45;&gt;Node1</title>
<path fill="none" stroke="midnightblue" d="M443.29,-209.53C464.42,-213.61 486.5,-210.43 486.5,-200 486.5,-191.28 471.07,-187.63 453.67,-189.05"/>
<polygon fill="midnightblue" stroke="midnightblue" points="452.73,-185.64 443.29,-190.47 453.67,-192.58 452.73,-185.64"/>
</g>
<!-- Node2 -->
<g id="node2" class="node">
<title>Node2</title>
<g id="a_node2"><a xlink:title=" ">
<polygon fill="none" stroke="#bfbfbf" points="419.5,-0.5 419.5,-19.5 472.5,-19.5 472.5,-0.5 419.5,-0.5"/>
<text text-anchor="middle" x="446" y="-7.5" font-family="Helvetica,sans-Serif" font-size="10.00">mbed.h</text>
</a>
</g>
</g>
<!-- Node1&#45;&gt;Node2 -->
<g id="edge1" class="edge">
<title>Node1&#45;&gt;Node2</title>
<path fill="none" stroke="midnightblue" d="M468.5,-195.92C558.34,-189.92 738.29,-175.35 757,-154 838.61,-60.84 581.23,-24.59 482.71,-14.33"/>
<polygon fill="midnightblue" stroke="midnightblue" points="482.9,-10.83 472.6,-13.31 482.2,-17.8 482.9,-10.83"/>
</g>
<!-- Node3 -->
<g id="node3" class="node">
<title>Node3</title>
<g id="a_node3"><a xlink:href="../../d9/d8c/canbus__frame_8h.html" target="_top" xlink:title=" ">
<polygon fill="none" stroke="black" points="804,-56.5 804,-86.5 952,-86.5 952,-56.5 804,-56.5"/>
<text text-anchor="start" x="812" y="-74.5" font-family="Helvetica,sans-Serif" font-size="10.00">vitroio&#45;sdk/communication</text>
<text text-anchor="middle" x="878" y="-63.5" font-family="Helvetica,sans-Serif" font-size="10.00">/canbus_frame.h</text>
</a>
</g>
</g>
<!-- Node1&#45;&gt;Node3 -->
<g id="edge3" class="edge">
<title>Node1&#45;&gt;Node3</title>
<path fill="none" stroke="midnightblue" d="M468.59,-196.73C556.64,-192.15 733.99,-179.94 790,-154 819.13,-140.51 845.1,-113.7 861.14,-94.52"/>
<polygon fill="midnightblue" stroke="midnightblue" points="864,-96.54 867.59,-86.57 858.57,-92.13 864,-96.54"/>
</g>
<!-- Node4 -->
<g id="node4" class="node">
<title>Node4</title>
<g id="a_node4"><a xlink:href="../../d9/d49/types_8h.html" target="_top" xlink:title="The file contains types used by vitro&#45;shard&#45;sdk.">
<polygon fill="none" stroke="black" points="310,-62 310,-81 418,-81 418,-62 310,-62"/>
<text text-anchor="middle" x="364" y="-69" font-family="Helvetica,sans-Serif" font-size="10.00">vitroio&#45;sdk/types.h</text>
</a>
</g>
</g>
<!-- Node1&#45;&gt;Node4 -->
<g id="edge5" class="edge">
<title>Node1&#45;&gt;Node4</title>
<path fill="none" stroke="midnightblue" d="M367.23,-198.7C332.66,-195.51 289.14,-184.98 266,-154 257.76,-142.96 258.83,-134.76 266,-123 277.47,-104.18 298.45,-92.07 318.07,-84.45"/>
<polygon fill="midnightblue" stroke="midnightblue" points="319.31,-87.72 327.54,-81.06 316.94,-81.13 319.31,-87.72"/>
</g>
<!-- Node5 -->
<g id="node5" class="node">
<title>Node5</title>
<g id="a_node5"><a xlink:href="../../d0/d44/scoped__ptr_8h.html" target="_top" xlink:title=" ">
<polygon fill="none" stroke="black" points="0,-56.5 0,-86.5 118,-86.5 118,-56.5 0,-56.5"/>
<text text-anchor="start" x="8" y="-74.5" font-family="Helvetica,sans-Serif" font-size="10.00">vitroio&#45;sdk/utils/impl</text>
<text text-anchor="middle" x="59" y="-63.5" font-family="Helvetica,sans-Serif" font-size="10.00">/scoped_ptr.h</text>
</a>
</g>
</g>
<!-- Node1&#45;&gt;Node5 -->
<g id="edge7" class="edge">
<title>Node1&#45;&gt;Node5</title>
<path fill="none" stroke="midnightblue" d="M367.39,-196.05C274.75,-190.15 85.46,-175.58 65,-154 50.8,-139.02 50.8,-114.76 53.45,-96.59"/>
<polygon fill="midnightblue" stroke="midnightblue" points="56.9,-97.18 55.22,-86.71 50.01,-95.94 56.9,-97.18"/>
</g>
<!-- Node6 -->
<g id="node6" class="node">
<title>Node6</title>
<g id="a_node6"><a xlink:href="../../d6/d4d/flash__interface_8h.html" target="_top" xlink:title=" ">
<polygon fill="none" stroke="black" points="274.5,-123.5 274.5,-153.5 399.5,-153.5 399.5,-123.5 274.5,-123.5"/>
<text text-anchor="start" x="282.5" y="-141.5" font-family="Helvetica,sans-Serif" font-size="10.00">vitroio&#45;sdk/interfaces</text>
<text text-anchor="middle" x="337" y="-130.5" font-family="Helvetica,sans-Serif" font-size="10.00">/impl/flash_interface.h</text>
</a>
</g>
</g>
<!-- Node1&#45;&gt;Node6 -->
<g id="edge9" class="edge">
<title>Node1&#45;&gt;Node6</title>
<path fill="none" stroke="midnightblue" d="M406.39,-190.48C395.42,-182.42 378.55,-170.02 364.19,-159.47"/>
<polygon fill="midnightblue" stroke="midnightblue" points="366.22,-156.62 356.09,-153.52 362.08,-162.26 366.22,-156.62"/>
</g>
<!-- Node7 -->
<g id="node7" class="node">
<title>Node7</title>
<g id="a_node7"><a xlink:href="../../de/d4f/environment__interface_8h.html" target="_top" xlink:title=" ">
<polygon fill="none" stroke="black" points="418,-123.5 418,-153.5 582,-153.5 582,-123.5 418,-123.5"/>
<text text-anchor="start" x="426" y="-141.5" font-family="Helvetica,sans-Serif" font-size="10.00">vitroio&#45;sdk/interfaces</text>
<text text-anchor="middle" x="500" y="-130.5" font-family="Helvetica,sans-Serif" font-size="10.00">/impl/environment_interface.h</text>
</a>
</g>
</g>
<!-- Node1&#45;&gt;Node7 -->
<g id="edge11" class="edge">
<title>Node1&#45;&gt;Node7</title>
<path fill="none" stroke="midnightblue" d="M429.75,-190.48C440.85,-182.42 457.93,-170.02 472.47,-159.47"/>
<polygon fill="midnightblue" stroke="midnightblue" points="474.64,-162.23 480.67,-153.52 470.52,-156.56 474.64,-162.23"/>
</g>
<!-- Node9 -->
<g id="node9" class="node">
<title>Node9</title>
<g id="a_node9"><a xlink:href="../../da/d8a/upgrade__controller_8h.html" target="_top" xlink:title=" ">
<polygon fill="none" stroke="black" points="74,-123.5 74,-153.5 218,-153.5 218,-123.5 74,-123.5"/>
<text text-anchor="start" x="82" y="-141.5" font-family="Helvetica,sans-Serif" font-size="10.00">vitroio&#45;sdk/control</text>
<text text-anchor="middle" x="146" y="-130.5" font-family="Helvetica,sans-Serif" font-size="10.00">/impl/upgrade_controller.h</text>
</a>
</g>
</g>
<!-- Node1&#45;&gt;Node9 -->
<g id="edge15" class="edge">
<title>Node1&#45;&gt;Node9</title>
<path fill="none" stroke="midnightblue" d="M379.03,-190.48C337.71,-181.44 271.47,-166.95 220.16,-155.72"/>
<polygon fill="midnightblue" stroke="midnightblue" points="220.62,-152.24 210.11,-153.52 219.13,-159.08 220.62,-152.24"/>
</g>
<!-- Node11 -->
<g id="node11" class="node">
<title>Node11</title>
<g id="a_node11"><a xlink:href="../../d6/d7f/transport__layer_8h.html" target="_top" xlink:title=" ">
<polygon fill="none" stroke="black" points="600,-123.5 600,-153.5 748,-153.5 748,-123.5 600,-123.5"/>
<text text-anchor="start" x="608" y="-141.5" font-family="Helvetica,sans-Serif" font-size="10.00">vitroio&#45;sdk/communication</text>
<text text-anchor="middle" x="674" y="-130.5" font-family="Helvetica,sans-Serif" font-size="10.00">/transport_layer.h</text>
</a>
</g>
</g>
<!-- Node1&#45;&gt;Node11 -->
<g id="edge21" class="edge">
<title>Node1&#45;&gt;Node11</title>
<path fill="none" stroke="midnightblue" d="M454.68,-190.48C493.48,-181.46 555.65,-167.01 603.9,-155.79"/>
<polygon fill="midnightblue" stroke="midnightblue" points="604.72,-159.2 613.67,-153.52 603.13,-152.38 604.72,-159.2"/>
</g>
<!-- Node3&#45;&gt;Node2 -->
<g id="edge4" class="edge">
<title>Node3&#45;&gt;Node2</title>
<path fill="none" stroke="midnightblue" d="M803.61,-58.06C799.01,-57.35 794.44,-56.66 790,-56 678.48,-39.52 546.14,-23.08 483.04,-15.44"/>
<polygon fill="midnightblue" stroke="midnightblue" points="483.15,-11.92 472.8,-14.2 482.31,-18.87 483.15,-11.92"/>
</g>
<!-- Node4&#45;&gt;Node2 -->
<g id="edge6" class="edge">
<title>Node4&#45;&gt;Node2</title>
<path fill="none" stroke="midnightblue" d="M375.75,-61.98C388.78,-52.52 410.04,-37.1 425.76,-25.69"/>
<polygon fill="midnightblue" stroke="midnightblue" points="428.23,-28.21 434.27,-19.51 424.12,-22.55 428.23,-28.21"/>
</g>
<!-- Node5&#45;&gt;Node2 -->
<g id="edge8" class="edge">
<title>Node5&#45;&gt;Node2</title>
<path fill="none" stroke="midnightblue" d="M118.31,-58.44C122.94,-57.59 127.54,-56.76 132,-56 231.91,-38.93 350.46,-23.15 409.2,-15.62"/>
<polygon fill="midnightblue" stroke="midnightblue" points="409.98,-19.05 419.46,-14.31 409.1,-12.11 409.98,-19.05"/>
</g>
<!-- Node6&#45;&gt;Node2 -->
<g id="edge10" class="edge">
<title>Node6&#45;&gt;Node2</title>
<path fill="none" stroke="midnightblue" d="M377.45,-123.32C395.06,-115.23 414.49,-103.37 427,-87 439.61,-70.49 443.94,-46.62 445.37,-30.06"/>
<polygon fill="midnightblue" stroke="midnightblue" points="448.88,-30.13 445.98,-19.94 441.89,-29.71 448.88,-30.13"/>
</g>
<!-- Node7&#45;&gt;Node2 -->
<g id="edge12" class="edge">
<title>Node7&#45;&gt;Node2</title>
<path fill="none" stroke="midnightblue" d="M494.01,-123.48C484.17,-100.41 464.56,-54.48 453.7,-29.03"/>
<polygon fill="midnightblue" stroke="midnightblue" points="456.9,-27.61 449.75,-19.79 450.46,-30.36 456.9,-27.61"/>
</g>
<!-- Node7&#45;&gt;Node4 -->
<g id="edge13" class="edge">
<title>Node7&#45;&gt;Node4</title>
<path fill="none" stroke="midnightblue" d="M470.49,-123.4C446.84,-112.09 413.92,-96.36 390.97,-85.39"/>
<polygon fill="midnightblue" stroke="midnightblue" points="392.33,-82.16 381.8,-81.01 389.31,-88.48 392.33,-82.16"/>
</g>
<!-- Node8 -->
<g id="node8" class="node">
<title>Node8</title>
<g id="a_node8"><a xlink:href="../../d8/db5/consts_8h.html" target="_top" xlink:title="The file contains constants of vitro&#45;shard&#45;sdk for user usage.">
<polygon fill="none" stroke="black" points="512.5,-62 512.5,-81 625.5,-81 625.5,-62 512.5,-62"/>
<text text-anchor="middle" x="569" y="-69" font-family="Helvetica,sans-Serif" font-size="10.00">vitroio&#45;sdk/consts.h</text>
</a>
</g>
</g>
<!-- Node7&#45;&gt;Node8 -->
<g id="edge14" class="edge">
<title>Node7&#45;&gt;Node8</title>
<path fill="none" stroke="midnightblue" d="M514.97,-123.4C525.94,-113.06 540.84,-99.02 552.22,-88.31"/>
<polygon fill="midnightblue" stroke="midnightblue" points="554.89,-90.6 559.77,-81.19 550.09,-85.5 554.89,-90.6"/>
</g>
<!-- Node9&#45;&gt;Node2 -->
<g id="edge16" class="edge">
<title>Node9&#45;&gt;Node2</title>
<path fill="none" stroke="midnightblue" d="M144.92,-123.39C144.35,-105.06 146.4,-73.34 165,-56 199.73,-23.62 340.73,-14.5 408.83,-11.96"/>
<polygon fill="midnightblue" stroke="midnightblue" points="409.23,-15.45 419.11,-11.61 408.99,-8.45 409.23,-15.45"/>
</g>
<!-- Node9&#45;&gt;Node4 -->
<g id="edge20" class="edge">
<title>Node9&#45;&gt;Node4</title>
<path fill="none" stroke="midnightblue" d="M193.03,-123.48C232.62,-111.67 288.54,-95 325.5,-83.98"/>
<polygon fill="midnightblue" stroke="midnightblue" points="326.81,-87.24 335.4,-81.03 324.81,-80.53 326.81,-87.24"/>
</g>
<!-- Node9&#45;&gt;Node5 -->
<g id="edge17" class="edge">
<title>Node9&#45;&gt;Node5</title>
<path fill="none" stroke="midnightblue" d="M127.12,-123.4C115.15,-114.45 99.47,-102.74 86.17,-92.8"/>
<polygon fill="midnightblue" stroke="midnightblue" points="87.95,-89.76 77.84,-86.58 83.76,-95.37 87.95,-89.76"/>
</g>
<!-- Node10 -->
<g id="node10" class="node">
<title>Node10</title>
<g id="a_node10"><a xlink:href="../../d5/d08/buffer_8h.html" target="_top" xlink:title=" ">
<polygon fill="none" stroke="black" points="174,-56.5 174,-86.5 292,-86.5 292,-56.5 174,-56.5"/>
<text text-anchor="start" x="182" y="-74.5" font-family="Helvetica,sans-Serif" font-size="10.00">vitroio&#45;sdk/utils/impl</text>
<text text-anchor="middle" x="233" y="-63.5" font-family="Helvetica,sans-Serif" font-size="10.00">/buffer.h</text>
</a>
</g>
</g>
<!-- Node9&#45;&gt;Node10 -->
<g id="edge18" class="edge">
<title>Node9&#45;&gt;Node10</title>
<path fill="none" stroke="midnightblue" d="M164.88,-123.4C176.85,-114.45 192.53,-102.74 205.83,-92.8"/>
<polygon fill="midnightblue" stroke="midnightblue" points="208.24,-95.37 214.16,-86.58 204.05,-89.76 208.24,-95.37"/>
</g>
<!-- Node10&#45;&gt;Node2 -->
<g id="edge19" class="edge">
<title>Node10&#45;&gt;Node2</title>
<path fill="none" stroke="midnightblue" d="M283.21,-56.47C322.05,-45.62 374.92,-30.86 409.72,-21.13"/>
<polygon fill="midnightblue" stroke="midnightblue" points="410.78,-24.47 419.47,-18.41 408.9,-17.73 410.78,-24.47"/>
</g>
<!-- Node11&#45;&gt;Node2 -->
<g id="edge22" class="edge">
<title>Node11&#45;&gt;Node2</title>
<path fill="none" stroke="midnightblue" d="M671.17,-123.36C666.74,-105 656.36,-73.24 635,-56 591.18,-20.63 524.12,-12.25 482.78,-10.71"/>
<polygon fill="midnightblue" stroke="midnightblue" points="482.69,-7.2 472.6,-10.45 482.51,-14.2 482.69,-7.2"/>
</g>
</g>
</svg>
