<?xml version="1.0" encoding="UTF-8" standalone="no"?>
<!DOCTYPE svg PUBLIC "-//W3C//DTD SVG 1.1//EN"
 "http://www.w3.org/Graphics/SVG/1.1/DTD/svg11.dtd">
<!-- Generated by graphviz version 2.43.0 (0)
 -->
<!-- Title: environment_interface.h Pages: 1 -->
<svg width="224pt" height="140pt"
 viewBox="0.00 0.00 224.00 140.00" xmlns="http://www.w3.org/2000/svg" xmlns:xlink="http://www.w3.org/1999/xlink">
<g id="graph0" class="graph" transform="scale(1 1) rotate(0) translate(4 136)">
<title>environment_interface.h</title>
<!-- Node1 -->
<g id="node1" class="node">
<title>Node1</title>
<g id="a_node1"><a xlink:title=" ">
<polygon fill="#bfbfbf" stroke="black" points="45,-112.5 45,-131.5 182,-131.5 182,-112.5 45,-112.5"/>
<text text-anchor="middle" x="113.5" y="-119.5" font-family="Helvetica,sans-Serif" font-size="10.00">environment_interface.h</text>
</a>
</g>
</g>
<!-- Node2 -->
<g id="node2" class="node">
<title>Node2</title>
<g id="a_node2"><a xlink:href="../../d6/d9f/node__controller_8h.html" target="_top" xlink:title=" ">
<polygon fill="none" stroke="black" points="0,-56.5 0,-75.5 101,-75.5 101,-56.5 0,-56.5"/>
<text text-anchor="middle" x="50.5" y="-63.5" font-family="Helvetica,sans-Serif" font-size="10.00">node_controller.h</text>
</a>
</g>
</g>
<!-- Node1&#45;&gt;Node2 -->
<g id="edge1" class="edge">
<title>Node1&#45;&gt;Node2</title>
<path fill="none" stroke="midnightblue" d="M95.46,-105.54C84.23,-95.91 70.18,-83.87 60.81,-75.83"/>
<polygon fill="midnightblue" stroke="midnightblue" points="93.51,-108.47 103.38,-112.32 98.06,-103.16 93.51,-108.47"/>
</g>
<!-- Node4 -->
<g id="node4" class="node">
<title>Node4</title>
<g id="a_node4"><a xlink:href="../../d2/d02/timestamp_8h.html" target="_top" xlink:title=" ">
<polygon fill="none" stroke="black" points="137,-56.5 137,-75.5 216,-75.5 216,-56.5 137,-56.5"/>
<text text-anchor="middle" x="176.5" y="-63.5" font-family="Helvetica,sans-Serif" font-size="10.00">timestamp.h</text>
</a>
</g>
</g>
<!-- Node1&#45;&gt;Node4 -->
<g id="edge4" class="edge">
<title>Node1&#45;&gt;Node4</title>
<path fill="none" stroke="midnightblue" d="M131.54,-105.54C142.77,-95.91 156.82,-83.87 166.19,-75.83"/>
<polygon fill="midnightblue" stroke="midnightblue" points="128.94,-103.16 123.62,-112.32 133.49,-108.47 128.94,-103.16"/>
</g>
<!-- Node2&#45;&gt;Node2 -->
<g id="edge2" class="edge">
<title>Node2&#45;&gt;Node2</title>
<path fill="none" stroke="midnightblue" d="M89.82,-76.43C105.67,-77.04 119,-73.56 119,-66 119,-56.87 99.57,-53.69 79.72,-56.47"/>
<polygon fill="midnightblue" stroke="midnightblue" points="89.99,-72.93 79.72,-75.53 89.36,-79.91 89.99,-72.93"/>
</g>
<!-- Node3 -->
<g id="node3" class="node">
<title>Node3</title>
<g id="a_node3"><a xlink:href="../../d4/d3e/shard-sdk_8h.html" target="_top" xlink:title=" ">
<polygon fill="none" stroke="black" points="13.5,-0.5 13.5,-19.5 87.5,-19.5 87.5,-0.5 13.5,-0.5"/>
<text text-anchor="middle" x="50.5" y="-7.5" font-family="Helvetica,sans-Serif" font-size="10.00">shard&#45;sdk.h</text>
</a>
</g>
</g>
<!-- Node2&#45;&gt;Node3 -->
<g id="edge3" class="edge">
<title>Node2&#45;&gt;Node3</title>
<path fill="none" stroke="midnightblue" d="M50.5,-45.8C50.5,-36.91 50.5,-26.78 50.5,-19.75"/>
<polygon fill="midnightblue" stroke="midnightblue" points="47,-46.08 50.5,-56.08 54,-46.08 47,-46.08"/>
</g>
</g>
</svg>
