<?xml version="1.0" encoding="UTF-8" standalone="no"?>
<!DOCTYPE svg PUBLIC "-//W3C//DTD SVG 1.1//EN"
 "http://www.w3.org/Graphics/SVG/1.1/DTD/svg11.dtd">
<!-- Generated by graphviz version 2.43.0 (0)
 -->
<!-- Title: timestamp.h Pages: 1 -->
<svg width="401pt" height="207pt"
 viewBox="0.00 0.00 401.35 207.00" xmlns="http://www.w3.org/2000/svg" xmlns:xlink="http://www.w3.org/1999/xlink">
<g id="graph0" class="graph" transform="scale(1 1) rotate(0) translate(4 203)">
<title>timestamp.h</title>
<!-- Node1 -->
<g id="node1" class="node">
<title>Node1</title>
<g id="a_node1"><a xlink:title=" ">
<polygon fill="#bfbfbf" stroke="black" points="48.35,-179.5 48.35,-198.5 127.35,-198.5 127.35,-179.5 48.35,-179.5"/>
<text text-anchor="middle" x="87.85" y="-186.5" font-family="Helvetica,sans-Serif" font-size="10.00">timestamp.h</text>
</a>
</g>
</g>
<!-- Node2 -->
<g id="node2" class="node">
<title>Node2</title>
<g id="a_node2"><a xlink:title=" ">
<polygon fill="none" stroke="#bfbfbf" points="80.35,-0.5 80.35,-19.5 133.35,-19.5 133.35,-0.5 80.35,-0.5"/>
<text text-anchor="middle" x="106.85" y="-7.5" font-family="Helvetica,sans-Serif" font-size="10.00">mbed.h</text>
</a>
</g>
</g>
<!-- Node1&#45;&gt;Node2 -->
<g id="edge1" class="edge">
<title>Node1&#45;&gt;Node2</title>
<path fill="none" stroke="midnightblue" d="M55.67,-179.49C37.31,-172.8 15.83,-161.45 4.85,-143 -2.2,-131.16 -0.45,-124.72 4.85,-112 20.83,-73.69 59.19,-42.48 84.04,-25.35"/>
<polygon fill="midnightblue" stroke="midnightblue" points="86.15,-28.15 92.52,-19.68 82.26,-22.33 86.15,-28.15"/>
</g>
<!-- Node3 -->
<g id="node3" class="node">
<title>Node3</title>
<g id="a_node3"><a xlink:href="../../d6/d7f/transport__layer_8h.html" target="_top" xlink:title=" ">
<polygon fill="none" stroke="black" points="13.85,-112.5 13.85,-142.5 161.85,-142.5 161.85,-112.5 13.85,-112.5"/>
<text text-anchor="start" x="21.85" y="-130.5" font-family="Helvetica,sans-Serif" font-size="10.00">vitroio&#45;sdk/communication</text>
<text text-anchor="middle" x="87.85" y="-119.5" font-family="Helvetica,sans-Serif" font-size="10.00">/transport_layer.h</text>
</a>
</g>
</g>
<!-- Node1&#45;&gt;Node3 -->
<g id="edge2" class="edge">
<title>Node1&#45;&gt;Node3</title>
<path fill="none" stroke="midnightblue" d="M87.85,-179.48C87.85,-172.47 87.85,-162.19 87.85,-152.7"/>
<polygon fill="midnightblue" stroke="midnightblue" points="91.35,-152.52 87.85,-142.52 84.35,-152.52 91.35,-152.52"/>
</g>
<!-- Node4 -->
<g id="node4" class="node">
<title>Node4</title>
<g id="a_node4"><a xlink:href="../../de/d4f/environment__interface_8h.html" target="_top" xlink:title=" ">
<polygon fill="none" stroke="black" points="179.85,-112.5 179.85,-142.5 343.85,-142.5 343.85,-112.5 179.85,-112.5"/>
<text text-anchor="start" x="187.85" y="-130.5" font-family="Helvetica,sans-Serif" font-size="10.00">vitroio&#45;sdk/interfaces</text>
<text text-anchor="middle" x="261.85" y="-119.5" font-family="Helvetica,sans-Serif" font-size="10.00">/impl/environment_interface.h</text>
</a>
</g>
</g>
<!-- Node1&#45;&gt;Node4 -->
<g id="edge4" class="edge">
<title>Node1&#45;&gt;Node4</title>
<path fill="none" stroke="midnightblue" d="M112.78,-179.48C138.33,-170.74 178.78,-156.91 211.1,-145.86"/>
<polygon fill="midnightblue" stroke="midnightblue" points="212.51,-149.07 220.84,-142.52 210.25,-142.45 212.51,-149.07"/>
</g>
<!-- Node3&#45;&gt;Node2 -->
<g id="edge3" class="edge">
<title>Node3&#45;&gt;Node2</title>
<path fill="none" stroke="midnightblue" d="M90.18,-112.34C93.6,-91.53 100,-52.66 103.79,-29.58"/>
<polygon fill="midnightblue" stroke="midnightblue" points="107.25,-30.1 105.42,-19.67 100.35,-28.97 107.25,-30.1"/>
</g>
<!-- Node4&#45;&gt;Node2 -->
<g id="edge5" class="edge">
<title>Node4&#45;&gt;Node2</title>
<path fill="none" stroke="midnightblue" d="M210.93,-112.45C188.78,-104.46 163.65,-92.64 144.85,-76 130.36,-63.17 119.92,-43.44 113.69,-29.08"/>
<polygon fill="midnightblue" stroke="midnightblue" points="116.91,-27.7 109.9,-19.75 110.42,-30.33 116.91,-27.7"/>
</g>
<!-- Node5 -->
<g id="node5" class="node">
<title>Node5</title>
<g id="a_node5"><a xlink:href="../../d9/d49/types_8h.html" target="_top" xlink:title="The file contains types used by vitro&#45;shard&#45;sdk.">
<polygon fill="none" stroke="black" points="153.85,-56.5 153.85,-75.5 261.85,-75.5 261.85,-56.5 153.85,-56.5"/>
<text text-anchor="middle" x="207.85" y="-63.5" font-family="Helvetica,sans-Serif" font-size="10.00">vitroio&#45;sdk/types.h</text>
</a>
</g>
</g>
<!-- Node4&#45;&gt;Node5 -->
<g id="edge6" class="edge">
<title>Node4&#45;&gt;Node5</title>
<path fill="none" stroke="midnightblue" d="M249.05,-112.4C241.13,-103.66 230.91,-92.41 222.64,-83.3"/>
<polygon fill="midnightblue" stroke="midnightblue" points="225.02,-80.71 215.71,-75.66 219.84,-85.42 225.02,-80.71"/>
</g>
<!-- Node6 -->
<g id="node6" class="node">
<title>Node6</title>
<g id="a_node6"><a xlink:href="../../d8/db5/consts_8h.html" target="_top" xlink:title="The file contains constants of vitro&#45;shard&#45;sdk for user usage.">
<polygon fill="none" stroke="black" points="280.35,-56.5 280.35,-75.5 393.35,-75.5 393.35,-56.5 280.35,-56.5"/>
<text text-anchor="middle" x="336.85" y="-63.5" font-family="Helvetica,sans-Serif" font-size="10.00">vitroio&#45;sdk/consts.h</text>
</a>
</g>
</g>
<!-- Node4&#45;&gt;Node6 -->
<g id="edge8" class="edge">
<title>Node4&#45;&gt;Node6</title>
<path fill="none" stroke="midnightblue" d="M279.62,-112.4C291.2,-103.22 306.27,-91.26 318.05,-81.92"/>
<polygon fill="midnightblue" stroke="midnightblue" points="320.28,-84.61 325.94,-75.66 315.93,-79.13 320.28,-84.61"/>
</g>
<!-- Node5&#45;&gt;Node2 -->
<g id="edge7" class="edge">
<title>Node5&#45;&gt;Node2</title>
<path fill="none" stroke="midnightblue" d="M191.62,-56.32C175.5,-47.7 150.55,-34.36 131.89,-24.39"/>
<polygon fill="midnightblue" stroke="midnightblue" points="133.51,-21.28 123.04,-19.65 130.21,-27.46 133.51,-21.28"/>
</g>
</g>
</svg>
