<?xml version="1.0" encoding="UTF-8" standalone="no"?>
<!DOCTYPE svg PUBLIC "-//W3C//DTD SVG 1.1//EN"
 "http://www.w3.org/Graphics/SVG/1.1/DTD/svg11.dtd">
<!-- Generated by graphviz version 2.43.0 (0)
 -->
<!-- Title: shard&#45;sdk.h Pages: 1 -->
<svg width="2029pt" height="296pt"
 viewBox="0.00 0.00 2029.00 296.00" xmlns="http://www.w3.org/2000/svg" xmlns:xlink="http://www.w3.org/1999/xlink">
<g id="graph0" class="graph" transform="scale(1 1) rotate(0) translate(4 292)">
<title>shard&#45;sdk.h</title>
<!-- Node1 -->
<g id="node1" class="node">
<title>Node1</title>
<g id="a_node1"><a xlink:title=" ">
<polygon fill="#bfbfbf" stroke="black" points="1229,-268.5 1229,-287.5 1303,-287.5 1303,-268.5 1229,-268.5"/>
<text text-anchor="middle" x="1266" y="-275.5" font-family="Helvetica,sans-Serif" font-size="10.00">shard&#45;sdk.h</text>
</a>
</g>
</g>
<!-- Node2 -->
<g id="node2" class="node">
<title>Node2</title>
<g id="a_node2"><a xlink:href="../../d8/db5/consts_8h.html" target="_top" xlink:title="The file contains constants of vitro&#45;shard&#45;sdk for user usage.">
<polygon fill="none" stroke="black" points="1139.5,-62 1139.5,-81 1252.5,-81 1252.5,-62 1139.5,-62"/>
<text text-anchor="middle" x="1196" y="-69" font-family="Helvetica,sans-Serif" font-size="10.00">vitroio&#45;sdk/consts.h</text>
</a>
</g>
</g>
<!-- Node1&#45;&gt;Node2 -->
<g id="edge1" class="edge">
<title>Node1&#45;&gt;Node2</title>
<path fill="none" stroke="midnightblue" d="M1263.08,-268.47C1252.61,-237.88 1216.77,-133.18 1202.22,-90.66"/>
<polygon fill="midnightblue" stroke="midnightblue" points="1205.48,-89.39 1198.93,-81.06 1198.86,-91.66 1205.48,-89.39"/>
</g>
<!-- Node3 -->
<g id="node3" class="node">
<title>Node3</title>
<g id="a_node3"><a xlink:href="../../db/d16/debug_8h.html" target="_top" xlink:title="The file defines debug macros.">
<polygon fill="none" stroke="black" points="1309.5,-62 1309.5,-81 1420.5,-81 1420.5,-62 1309.5,-62"/>
<text text-anchor="middle" x="1365" y="-69" font-family="Helvetica,sans-Serif" font-size="10.00">vitroio&#45;sdk/debug.h</text>
</a>
</g>
</g>
<!-- Node1&#45;&gt;Node3 -->
<g id="edge2" class="edge">
<title>Node1&#45;&gt;Node3</title>
<path fill="none" stroke="midnightblue" d="M1282.33,-268.26C1310.41,-252.18 1366.94,-214.93 1389,-165 1400.02,-140.06 1387,-109.02 1376.26,-89.99"/>
<polygon fill="midnightblue" stroke="midnightblue" points="1379.15,-87.99 1371,-81.23 1373.15,-91.6 1379.15,-87.99"/>
</g>
<!-- Node5 -->
<g id="node5" class="node">
<title>Node5</title>
<g id="a_node5"><a xlink:href="../../de/d45/errors_8h.html" target="_top" xlink:title="The file defines error codes.">
<polygon fill="none" stroke="black" points="1749,-207 1749,-226 1859,-226 1859,-207 1749,-207"/>
<text text-anchor="middle" x="1804" y="-214" font-family="Helvetica,sans-Serif" font-size="10.00">vitroio&#45;sdk/errors.h</text>
</a>
</g>
</g>
<!-- Node1&#45;&gt;Node5 -->
<g id="edge4" class="edge">
<title>Node1&#45;&gt;Node5</title>
<path fill="none" stroke="midnightblue" d="M1303.08,-275.1C1383.22,-270.64 1578.39,-257.87 1740,-232 1746.42,-230.97 1753.16,-229.68 1759.76,-228.3"/>
<polygon fill="midnightblue" stroke="midnightblue" points="1760.93,-231.62 1769.95,-226.07 1759.43,-224.79 1760.93,-231.62"/>
</g>
<!-- Node6 -->
<g id="node6" class="node">
<title>Node6</title>
<g id="a_node6"><a xlink:href="../../d9/d49/types_8h.html" target="_top" xlink:title="The file contains types used by vitro&#45;shard&#45;sdk.">
<polygon fill="none" stroke="black" points="975,-62 975,-81 1083,-81 1083,-62 975,-62"/>
<text text-anchor="middle" x="1029" y="-69" font-family="Helvetica,sans-Serif" font-size="10.00">vitroio&#45;sdk/types.h</text>
</a>
</g>
</g>
<!-- Node1&#45;&gt;Node6 -->
<g id="edge5" class="edge">
<title>Node1&#45;&gt;Node6</title>
<path fill="none" stroke="midnightblue" d="M1228.71,-272.26C1172.74,-262.92 1068.71,-236.4 1023,-165 1008.66,-142.6 1015.34,-110.56 1021.87,-90.67"/>
<polygon fill="midnightblue" stroke="midnightblue" points="1025.17,-91.85 1025.26,-81.25 1018.58,-89.48 1025.17,-91.85"/>
</g>
<!-- Node7 -->
<g id="node7" class="node">
<title>Node7</title>
<g id="a_node7"><a xlink:href="../../df/dfc/version_8h.html" target="_top" xlink:title="The file defines version of vitro&#45;shard&#45;sdk.">
<polygon fill="none" stroke="black" points="1877.5,-207 1877.5,-226 1994.5,-226 1994.5,-207 1877.5,-207"/>
<text text-anchor="middle" x="1936" y="-214" font-family="Helvetica,sans-Serif" font-size="10.00">vitroio&#45;sdk/version.h</text>
</a>
</g>
</g>
<!-- Node1&#45;&gt;Node7 -->
<g id="edge7" class="edge">
<title>Node1&#45;&gt;Node7</title>
<path fill="none" stroke="midnightblue" d="M1303.18,-275.97C1397.86,-272.98 1655.58,-262.44 1868,-232 1875.31,-230.95 1883.01,-229.58 1890.5,-228.09"/>
<polygon fill="midnightblue" stroke="midnightblue" points="1891.44,-231.47 1900.52,-226.02 1890.02,-224.62 1891.44,-231.47"/>
</g>
<!-- Node8 -->
<g id="node8" class="node">
<title>Node8</title>
<g id="a_node8"><a xlink:href="../../d9/da3/watchdog_8h.html" target="_top" xlink:title=" ">
<polygon fill="none" stroke="black" points="1377.5,-201.5 1377.5,-231.5 1496.5,-231.5 1496.5,-201.5 1377.5,-201.5"/>
<text text-anchor="start" x="1385.5" y="-219.5" font-family="Helvetica,sans-Serif" font-size="10.00">vitroio&#45;sdk/watchdog</text>
<text text-anchor="middle" x="1437" y="-208.5" font-family="Helvetica,sans-Serif" font-size="10.00">/watchdog.h</text>
</a>
</g>
</g>
<!-- Node1&#45;&gt;Node8 -->
<g id="edge8" class="edge">
<title>Node1&#45;&gt;Node8</title>
<path fill="none" stroke="midnightblue" d="M1290.5,-268.48C1315.61,-259.74 1355.36,-245.91 1387.12,-234.86"/>
<polygon fill="midnightblue" stroke="midnightblue" points="1388.4,-238.11 1396.7,-231.52 1386.1,-231.5 1388.4,-238.11"/>
</g>
<!-- Node9 -->
<g id="node9" class="node">
<title>Node9</title>
<g id="a_node9"><a xlink:href="../../dc/dce/shard__edge_8h.html" target="_top" xlink:title=" ">
<polygon fill="none" stroke="black" points="1252.5,-129 1252.5,-159 1379.5,-159 1379.5,-129 1252.5,-129"/>
<text text-anchor="start" x="1260.5" y="-147" font-family="Helvetica,sans-Serif" font-size="10.00">vitroio&#45;sdk/shard&#45;edge</text>
<text text-anchor="middle" x="1316" y="-136" font-family="Helvetica,sans-Serif" font-size="10.00">&#45;lib/shard_edge.h</text>
</a>
</g>
</g>
<!-- Node1&#45;&gt;Node9 -->
<g id="edge10" class="edge">
<title>Node1&#45;&gt;Node9</title>
<path fill="none" stroke="midnightblue" d="M1269.28,-268.34C1276.82,-248.43 1295.61,-198.84 1306.93,-168.95"/>
<polygon fill="midnightblue" stroke="midnightblue" points="1310.32,-169.87 1310.59,-159.28 1303.77,-167.39 1310.32,-169.87"/>
</g>
<!-- Node10 -->
<g id="node10" class="node">
<title>Node10</title>
<g id="a_node10"><a xlink:href="../../d7/d99/abstract__sensor__driver_8h.html" target="_top" xlink:title=" ">
<polygon fill="none" stroke="black" points="1515,-56.5 1515,-86.5 1673,-86.5 1673,-56.5 1515,-56.5"/>
<text text-anchor="start" x="1523" y="-74.5" font-family="Helvetica,sans-Serif" font-size="10.00">vitroio&#45;sdk/measurement</text>
<text text-anchor="middle" x="1594" y="-63.5" font-family="Helvetica,sans-Serif" font-size="10.00">&#45;api/abstract_sensor_driver.h</text>
</a>
</g>
</g>
<!-- Node1&#45;&gt;Node10 -->
<g id="edge14" class="edge">
<title>Node1&#45;&gt;Node10</title>
<path fill="none" stroke="midnightblue" d="M1303.29,-274.49C1362.9,-269.75 1476.01,-257.59 1506,-232 1545.14,-198.61 1517.8,-166.68 1545,-123 1551.69,-112.25 1561,-101.93 1569.7,-93.45"/>
<polygon fill="midnightblue" stroke="midnightblue" points="1572.21,-95.9 1577.12,-86.51 1567.43,-90.79 1572.21,-95.9"/>
</g>
<!-- Node12 -->
<g id="node12" class="node">
<title>Node12</title>
<g id="a_node12"><a xlink:href="../../df/d63/abstract__sensor__interface_8h.html" target="_top" xlink:title=" ">
<polygon fill="none" stroke="black" points="1553.5,-129 1553.5,-159 1726.5,-159 1726.5,-129 1553.5,-129"/>
<text text-anchor="start" x="1561.5" y="-147" font-family="Helvetica,sans-Serif" font-size="10.00">vitroio&#45;sdk/measurement</text>
<text text-anchor="middle" x="1640" y="-136" font-family="Helvetica,sans-Serif" font-size="10.00">&#45;api/abstract_sensor_interface.h</text>
</a>
</g>
</g>
<!-- Node1&#45;&gt;Node12 -->
<g id="edge16" class="edge">
<title>Node1&#45;&gt;Node12</title>
<path fill="none" stroke="midnightblue" d="M1303.19,-277.14C1357.52,-275.98 1460.67,-268.61 1539,-232 1556.5,-223.82 1594.12,-189.32 1618.18,-166.29"/>
<polygon fill="midnightblue" stroke="midnightblue" points="1620.7,-168.73 1625.48,-159.27 1615.85,-163.69 1620.7,-168.73"/>
</g>
<!-- Node13 -->
<g id="node13" class="node">
<title>Node13</title>
<g id="a_node13"><a xlink:href="../../d4/d99/measurement__api_8h.html" target="_top" xlink:title=" ">
<polygon fill="none" stroke="black" points="1591,-201.5 1591,-231.5 1731,-231.5 1731,-201.5 1591,-201.5"/>
<text text-anchor="start" x="1599" y="-219.5" font-family="Helvetica,sans-Serif" font-size="10.00">vitroio&#45;sdk/measurement</text>
<text text-anchor="middle" x="1661" y="-208.5" font-family="Helvetica,sans-Serif" font-size="10.00">&#45;api/measurement_api.h</text>
</a>
</g>
</g>
<!-- Node1&#45;&gt;Node13 -->
<g id="edge19" class="edge">
<title>Node1&#45;&gt;Node13</title>
<path fill="none" stroke="midnightblue" d="M1303.39,-271.92C1361.84,-263.92 1478.4,-247.64 1577,-232 1578.27,-231.8 1579.56,-231.59 1580.85,-231.38"/>
<polygon fill="midnightblue" stroke="midnightblue" points="1581.59,-234.81 1590.9,-229.75 1580.46,-227.9 1581.59,-234.81"/>
</g>
<!-- Node17 -->
<g id="node17" class="node">
<title>Node17</title>
<g id="a_node17"><a xlink:href="../../dd/d88/iot-block_8h.html" target="_top" xlink:title=" ">
<polygon fill="none" stroke="black" points="268.5,-201.5 268.5,-231.5 383.5,-231.5 383.5,-201.5 268.5,-201.5"/>
<text text-anchor="start" x="276.5" y="-219.5" font-family="Helvetica,sans-Serif" font-size="10.00">vitroio&#45;sdk/iot&#45;block</text>
<text text-anchor="middle" x="326" y="-208.5" font-family="Helvetica,sans-Serif" font-size="10.00">&#45;api/iot&#45;block.h</text>
</a>
</g>
</g>
<!-- Node1&#45;&gt;Node17 -->
<g id="edge25" class="edge">
<title>Node1&#45;&gt;Node17</title>
<path fill="none" stroke="midnightblue" d="M1228.79,-277.22C1109,-277.5 722.59,-274.85 393.84,-231.94"/>
<polygon fill="midnightblue" stroke="midnightblue" points="394.01,-228.43 383.64,-230.59 393.1,-235.37 394.01,-228.43"/>
</g>
<!-- Node18 -->
<g id="node18" class="node">
<title>Node18</title>
<g id="a_node18"><a xlink:href="../../d1/dd8/canbus_8h.html" target="_top" xlink:title=" ">
<polygon fill="none" stroke="black" points="166,-129 166,-159 314,-159 314,-129 166,-129"/>
<text text-anchor="start" x="174" y="-147" font-family="Helvetica,sans-Serif" font-size="10.00">vitroio&#45;sdk/communication</text>
<text text-anchor="middle" x="240" y="-136" font-family="Helvetica,sans-Serif" font-size="10.00">/canbus.h</text>
</a>
</g>
</g>
<!-- Node1&#45;&gt;Node18 -->
<g id="edge55" class="edge">
<title>Node1&#45;&gt;Node18</title>
<path fill="none" stroke="midnightblue" d="M1228.72,-276.6C1051,-274.51 296.76,-263.82 259,-232 241.14,-216.95 237.74,-189.38 237.96,-169.3"/>
<polygon fill="midnightblue" stroke="midnightblue" points="241.47,-169.17 238.38,-159.04 234.47,-168.89 241.47,-169.17"/>
</g>
<!-- Node19 -->
<g id="node19" class="node">
<title>Node19</title>
<g id="a_node19"><a xlink:href="../../d9/d8c/canbus__frame_8h.html" target="_top" xlink:title=" ">
<polygon fill="none" stroke="black" points="166,-56.5 166,-86.5 314,-86.5 314,-56.5 166,-56.5"/>
<text text-anchor="start" x="174" y="-74.5" font-family="Helvetica,sans-Serif" font-size="10.00">vitroio&#45;sdk/communication</text>
<text text-anchor="middle" x="240" y="-63.5" font-family="Helvetica,sans-Serif" font-size="10.00">/canbus_frame.h</text>
</a>
</g>
</g>
<!-- Node1&#45;&gt;Node19 -->
<g id="edge54" class="edge">
<title>Node1&#45;&gt;Node19</title>
<path fill="none" stroke="midnightblue" d="M1228.84,-276.77C1055.62,-275.51 331.83,-268.12 238,-232 181.67,-210.32 127.42,-175.61 157,-123 164.66,-109.37 177.66,-98.99 191.12,-91.29"/>
<polygon fill="midnightblue" stroke="midnightblue" points="192.77,-94.38 199.98,-86.62 189.5,-88.19 192.77,-94.38"/>
</g>
<!-- Node21 -->
<g id="node21" class="node">
<title>Node21</title>
<g id="a_node21"><a xlink:href="../../d6/d7f/transport__layer_8h.html" target="_top" xlink:title=" ">
<polygon fill="none" stroke="black" points="370,-129 370,-159 518,-159 518,-129 370,-129"/>
<text text-anchor="start" x="378" y="-147" font-family="Helvetica,sans-Serif" font-size="10.00">vitroio&#45;sdk/communication</text>
<text text-anchor="middle" x="444" y="-136" font-family="Helvetica,sans-Serif" font-size="10.00">/transport_layer.h</text>
</a>
</g>
</g>
<!-- Node1&#45;&gt;Node21 -->
<g id="edge56" class="edge">
<title>Node1&#45;&gt;Node21</title>
<path fill="none" stroke="midnightblue" d="M1228.7,-275.86C1145.21,-272.83 937.17,-262.59 766,-232 669.28,-214.72 559.32,-182.13 496.16,-162.11"/>
<polygon fill="midnightblue" stroke="midnightblue" points="497.02,-158.71 486.43,-159.01 494.9,-165.38 497.02,-158.71"/>
</g>
<!-- Node22 -->
<g id="node22" class="node">
<title>Node22</title>
<g id="a_node22"><a xlink:href="../../d6/d9f/node__controller_8h.html" target="_top" xlink:title=" ">
<polygon fill="none" stroke="black" points="775,-201.5 775,-231.5 881,-231.5 881,-201.5 775,-201.5"/>
<text text-anchor="start" x="783" y="-219.5" font-family="Helvetica,sans-Serif" font-size="10.00">vitroio&#45;sdk/control</text>
<text text-anchor="middle" x="828" y="-208.5" font-family="Helvetica,sans-Serif" font-size="10.00">/node_controller.h</text>
</a>
</g>
</g>
<!-- Node1&#45;&gt;Node22 -->
<g id="edge34" class="edge">
<title>Node1&#45;&gt;Node22</title>
<path fill="none" stroke="midnightblue" d="M1228.66,-271.93C1153.68,-261.74 984.1,-238.71 891.41,-226.11"/>
<polygon fill="midnightblue" stroke="midnightblue" points="891.7,-222.62 881.32,-224.74 890.76,-229.56 891.7,-222.62"/>
</g>
<!-- Node28 -->
<g id="node28" class="node">
<title>Node28</title>
<g id="a_node28"><a xlink:href="../../df/dce/can__layer_8h.html" target="_top" xlink:title=" ">
<polygon fill="none" stroke="black" points="402,-201.5 402,-231.5 550,-231.5 550,-201.5 402,-201.5"/>
<text text-anchor="start" x="410" y="-219.5" font-family="Helvetica,sans-Serif" font-size="10.00">vitroio&#45;sdk/communication</text>
<text text-anchor="middle" x="476" y="-208.5" font-family="Helvetica,sans-Serif" font-size="10.00">/can_layer.h</text>
</a>
</g>
</g>
<!-- Node1&#45;&gt;Node28 -->
<g id="edge57" class="edge">
<title>Node1&#45;&gt;Node28</title>
<path fill="none" stroke="midnightblue" d="M1228.78,-274.43C1132.75,-267.76 868.77,-249.22 649,-232 620.1,-229.73 588.49,-227.12 560.29,-224.75"/>
<polygon fill="midnightblue" stroke="midnightblue" points="560.33,-221.24 550.07,-223.89 559.74,-228.21 560.33,-221.24"/>
</g>
<!-- Node4 -->
<g id="node4" class="node">
<title>Node4</title>
<g id="a_node4"><a xlink:title=" ">
<polygon fill="none" stroke="#bfbfbf" points="741.5,-0.5 741.5,-19.5 794.5,-19.5 794.5,-0.5 741.5,-0.5"/>
<text text-anchor="middle" x="768" y="-7.5" font-family="Helvetica,sans-Serif" font-size="10.00">mbed.h</text>
</a>
</g>
</g>
<!-- Node3&#45;&gt;Node4 -->
<g id="edge3" class="edge">
<title>Node3&#45;&gt;Node4</title>
<path fill="none" stroke="midnightblue" d="M1328.09,-62C1317.46,-59.78 1305.81,-57.58 1295,-56 1112.04,-29.34 890.87,-16.78 804.78,-12.63"/>
<polygon fill="midnightblue" stroke="midnightblue" points="804.88,-9.13 794.73,-12.16 804.55,-16.12 804.88,-9.13"/>
</g>
<!-- Node6&#45;&gt;Node4 -->
<g id="edge6" class="edge">
<title>Node6&#45;&gt;Node4</title>
<path fill="none" stroke="midnightblue" d="M992.03,-61.97C983.48,-60.01 974.42,-57.93 966,-56 909.57,-43.09 844.07,-28.23 804.35,-19.23"/>
<polygon fill="midnightblue" stroke="midnightblue" points="805.11,-15.81 794.59,-17.02 803.57,-22.64 805.11,-15.81"/>
</g>
<!-- Node8&#45;&gt;Node4 -->
<g id="edge9" class="edge">
<title>Node8&#45;&gt;Node4</title>
<path fill="none" stroke="midnightblue" d="M1441.84,-201.17C1451.39,-169.96 1468.53,-95.47 1430,-56 1386.17,-11.11 937.54,-10.03 804.8,-10.71"/>
<polygon fill="midnightblue" stroke="midnightblue" points="804.71,-7.21 794.73,-10.77 804.75,-14.21 804.71,-7.21"/>
</g>
<!-- Node9&#45;&gt;Node2 -->
<g id="edge13" class="edge">
<title>Node9&#45;&gt;Node2</title>
<path fill="none" stroke="midnightblue" d="M1292,-128.9C1270.89,-116.5 1240.33,-98.55 1219.4,-86.25"/>
<polygon fill="midnightblue" stroke="midnightblue" points="1220.92,-83.08 1210.53,-81.03 1217.37,-89.12 1220.92,-83.08"/>
</g>
<!-- Node9&#45;&gt;Node3 -->
<g id="edge12" class="edge">
<title>Node9&#45;&gt;Node3</title>
<path fill="none" stroke="midnightblue" d="M1325.92,-128.73C1333.76,-117.45 1344.74,-101.65 1353.07,-89.67"/>
<polygon fill="midnightblue" stroke="midnightblue" points="1355.99,-91.6 1358.82,-81.39 1350.24,-87.61 1355.99,-91.6"/>
</g>
<!-- Node9&#45;&gt;Node4 -->
<g id="edge11" class="edge">
<title>Node9&#45;&gt;Node4</title>
<path fill="none" stroke="midnightblue" d="M1311.59,-128.99C1304.48,-108.98 1288.44,-72.79 1261,-56 1222.33,-32.34 912.57,-17.12 804.8,-12.49"/>
<polygon fill="midnightblue" stroke="midnightblue" points="804.86,-8.99 794.72,-12.06 804.56,-15.98 804.86,-8.99"/>
</g>
<!-- Node11 -->
<g id="node11" class="node">
<title>Node11</title>
<g id="a_node11"><a xlink:title=" ">
<polygon fill="none" stroke="#bfbfbf" points="1620.5,-0.5 1620.5,-19.5 1673.5,-19.5 1673.5,-0.5 1620.5,-0.5"/>
<text text-anchor="middle" x="1647" y="-7.5" font-family="Helvetica,sans-Serif" font-size="10.00">stdint.h</text>
</a>
</g>
</g>
<!-- Node10&#45;&gt;Node11 -->
<g id="edge15" class="edge">
<title>Node10&#45;&gt;Node11</title>
<path fill="none" stroke="midnightblue" d="M1606.56,-56.4C1614.34,-47.66 1624.36,-36.41 1632.48,-27.3"/>
<polygon fill="midnightblue" stroke="midnightblue" points="1635.25,-29.45 1639.29,-19.66 1630.02,-24.8 1635.25,-29.45"/>
</g>
<!-- Node12&#45;&gt;Node10 -->
<g id="edge18" class="edge">
<title>Node12&#45;&gt;Node10</title>
<path fill="none" stroke="midnightblue" d="M1630.69,-128.73C1624.46,-119.18 1616.11,-106.39 1608.95,-95.42"/>
<polygon fill="midnightblue" stroke="midnightblue" points="1611.69,-93.21 1603.29,-86.75 1605.83,-97.03 1611.69,-93.21"/>
</g>
<!-- Node12&#45;&gt;Node11 -->
<g id="edge17" class="edge">
<title>Node12&#45;&gt;Node11</title>
<path fill="none" stroke="midnightblue" d="M1654.74,-128.87C1664.56,-118.38 1676.62,-103.14 1682,-87 1686.36,-73.93 1686.47,-69.03 1682,-56 1678.28,-45.16 1670.77,-34.92 1663.65,-26.96"/>
<polygon fill="midnightblue" stroke="midnightblue" points="1666,-24.35 1656.56,-19.55 1660.95,-29.19 1666,-24.35"/>
</g>
<!-- Node13&#45;&gt;Node4 -->
<g id="edge20" class="edge">
<title>Node13&#45;&gt;Node4</title>
<path fill="none" stroke="midnightblue" d="M1616.03,-201.43C1593.39,-193.03 1566.31,-180.88 1545,-165 1494.16,-127.13 1509.59,-84.58 1453,-56 1395,-26.71 938.66,-14.66 804.79,-11.74"/>
<polygon fill="midnightblue" stroke="midnightblue" points="804.71,-8.24 794.64,-11.52 804.56,-15.24 804.71,-8.24"/>
</g>
<!-- Node13&#45;&gt;Node12 -->
<g id="edge21" class="edge">
<title>Node13&#45;&gt;Node12</title>
<path fill="none" stroke="midnightblue" d="M1656.75,-201.23C1653.99,-191.96 1650.32,-179.65 1647.12,-168.91"/>
<polygon fill="midnightblue" stroke="midnightblue" points="1650.45,-167.83 1644.24,-159.25 1643.74,-169.83 1650.45,-167.83"/>
</g>
<!-- Node14 -->
<g id="node14" class="node">
<title>Node14</title>
<g id="a_node14"><a xlink:href="../../da/d23/list_8h.html" target="_top" xlink:title=" ">
<polygon fill="none" stroke="black" points="1745,-129 1745,-159 1863,-159 1863,-129 1745,-129"/>
<text text-anchor="start" x="1753" y="-147" font-family="Helvetica,sans-Serif" font-size="10.00">vitroio&#45;sdk/utils/impl</text>
<text text-anchor="middle" x="1804" y="-136" font-family="Helvetica,sans-Serif" font-size="10.00">/list.h</text>
</a>
</g>
</g>
<!-- Node13&#45;&gt;Node14 -->
<g id="edge22" class="edge">
<title>Node13&#45;&gt;Node14</title>
<path fill="none" stroke="midnightblue" d="M1689.59,-201.4C1711.61,-190.55 1742.24,-175.45 1766.27,-163.6"/>
<polygon fill="midnightblue" stroke="midnightblue" points="1768.03,-166.63 1775.46,-159.07 1764.94,-160.36 1768.03,-166.63"/>
</g>
<!-- Node16 -->
<g id="node16" class="node">
<title>Node16</title>
<g id="a_node16"><a xlink:title=" ">
<polygon fill="none" stroke="#bfbfbf" points="1881,-123.5 1881,-164.5 2021,-164.5 2021,-123.5 1881,-123.5"/>
<text text-anchor="start" x="1889" y="-152.5" font-family="Helvetica,sans-Serif" font-size="10.00">vitroio&#45;sdk/measurement</text>
<text text-anchor="start" x="1889" y="-141.5" font-family="Helvetica,sans-Serif" font-size="10.00">&#45;api/impl/measurement</text>
<text text-anchor="middle" x="1951" y="-130.5" font-family="Helvetica,sans-Serif" font-size="10.00">_api.hpp</text>
</a>
</g>
</g>
<!-- Node13&#45;&gt;Node16 -->
<g id="edge24" class="edge">
<title>Node13&#45;&gt;Node16</title>
<path fill="none" stroke="midnightblue" d="M1720.62,-201.45C1760.6,-191.98 1814.68,-179.07 1871,-165.23"/>
<polygon fill="midnightblue" stroke="midnightblue" points="1871.93,-168.61 1880.8,-162.82 1870.25,-161.81 1871.93,-168.61"/>
</g>
<!-- Node15 -->
<g id="node15" class="node">
<title>Node15</title>
<g id="a_node15"><a xlink:title=" ">
<polygon fill="none" stroke="#bfbfbf" points="1777.5,-62 1777.5,-81 1830.5,-81 1830.5,-62 1777.5,-62"/>
<text text-anchor="middle" x="1804" y="-69" font-family="Helvetica,sans-Serif" font-size="10.00">cstddef</text>
</a>
</g>
</g>
<!-- Node14&#45;&gt;Node15 -->
<g id="edge23" class="edge">
<title>Node14&#45;&gt;Node15</title>
<path fill="none" stroke="midnightblue" d="M1804,-128.73C1804,-118 1804,-103.19 1804,-91.46"/>
<polygon fill="midnightblue" stroke="midnightblue" points="1807.5,-91.39 1804,-81.39 1800.5,-91.39 1807.5,-91.39"/>
</g>
<!-- Node17&#45;&gt;Node18 -->
<g id="edge26" class="edge">
<title>Node17&#45;&gt;Node18</title>
<path fill="none" stroke="midnightblue" d="M308.6,-201.23C296.04,-190.94 278.91,-176.9 264.91,-165.42"/>
<polygon fill="midnightblue" stroke="midnightblue" points="267.04,-162.64 257.08,-159 262.6,-168.05 267.04,-162.64"/>
</g>
<!-- Node17&#45;&gt;Node21 -->
<g id="edge32" class="edge">
<title>Node17&#45;&gt;Node21</title>
<path fill="none" stroke="midnightblue" d="M349.6,-201.4C367.44,-190.74 392.15,-175.98 411.81,-164.23"/>
<polygon fill="midnightblue" stroke="midnightblue" points="413.66,-167.21 420.45,-159.07 410.07,-161.2 413.66,-167.21"/>
</g>
<!-- Node18&#45;&gt;Node4 -->
<g id="edge27" class="edge">
<title>Node18&#45;&gt;Node4</title>
<path fill="none" stroke="midnightblue" d="M261.27,-128.91C278.12,-117.69 302.19,-101.52 323,-87 342.32,-73.52 344.02,-64.48 366,-56 432.28,-30.44 644.87,-17.17 731.12,-12.73"/>
<polygon fill="midnightblue" stroke="midnightblue" points="731.42,-16.22 741.23,-12.23 731.07,-9.23 731.42,-16.22"/>
</g>
<!-- Node18&#45;&gt;Node19 -->
<g id="edge28" class="edge">
<title>Node18&#45;&gt;Node19</title>
<path fill="none" stroke="midnightblue" d="M240,-128.73C240,-119.66 240,-107.66 240,-97.08"/>
<polygon fill="midnightblue" stroke="midnightblue" points="243.5,-96.75 240,-86.75 236.5,-96.75 243.5,-96.75"/>
</g>
<!-- Node20 -->
<g id="node20" class="node">
<title>Node20</title>
<g id="a_node20"><a xlink:href="../../d7/de9/__CAN_8h.html" target="_top" xlink:title=" ">
<polygon fill="none" stroke="black" points="0,-56.5 0,-86.5 148,-86.5 148,-56.5 0,-56.5"/>
<text text-anchor="start" x="8" y="-74.5" font-family="Helvetica,sans-Serif" font-size="10.00">vitroio&#45;sdk/communication</text>
<text text-anchor="middle" x="74" y="-63.5" font-family="Helvetica,sans-Serif" font-size="10.00">/impl/_CAN.h</text>
</a>
</g>
</g>
<!-- Node18&#45;&gt;Node20 -->
<g id="edge30" class="edge">
<title>Node18&#45;&gt;Node20</title>
<path fill="none" stroke="midnightblue" d="M206.81,-128.9C180.91,-117.9 144.74,-102.54 116.69,-90.63"/>
<polygon fill="midnightblue" stroke="midnightblue" points="117.71,-87.26 107.14,-86.57 114.97,-93.7 117.71,-87.26"/>
</g>
<!-- Node19&#45;&gt;Node4 -->
<g id="edge29" class="edge">
<title>Node19&#45;&gt;Node4</title>
<path fill="none" stroke="midnightblue" d="M314.37,-57.92C318.98,-57.24 323.55,-56.59 328,-56 476.9,-36.14 655.17,-20.35 730.97,-14.01"/>
<polygon fill="midnightblue" stroke="midnightblue" points="731.72,-17.46 741.4,-13.15 731.14,-10.49 731.72,-17.46"/>
</g>
<!-- Node20&#45;&gt;Node4 -->
<g id="edge31" class="edge">
<title>Node20&#45;&gt;Node4</title>
<path fill="none" stroke="midnightblue" d="M148.16,-57.17C151.14,-56.75 154.1,-56.36 157,-56 373.75,-29.15 635.88,-16.42 731.15,-12.44"/>
<polygon fill="midnightblue" stroke="midnightblue" points="731.56,-15.92 741.41,-12.01 731.27,-8.93 731.56,-15.92"/>
</g>
<!-- Node21&#45;&gt;Node4 -->
<g id="edge33" class="edge">
<title>Node21&#45;&gt;Node4</title>
<path fill="none" stroke="midnightblue" d="M467.5,-128.93C499.37,-110.31 558.45,-77.35 612,-56 651.81,-40.13 699.36,-27.24 731.41,-19.38"/>
<polygon fill="midnightblue" stroke="midnightblue" points="732.35,-22.76 741.25,-17.01 730.71,-15.95 732.35,-22.76"/>
</g>
<!-- Node22&#45;&gt;Node4 -->
<g id="edge35" class="edge">
<title>Node22&#45;&gt;Node4</title>
<path fill="none" stroke="midnightblue" d="M801.64,-201.44C785.2,-192.11 764,-179.03 747,-165 727.35,-148.79 727.25,-139.68 708,-123 686.76,-104.59 669.05,-111.9 656,-87 649.61,-74.8 648.28,-67.41 656,-56 672.78,-31.17 705.77,-20.04 731.62,-15.05"/>
<polygon fill="midnightblue" stroke="midnightblue" points="732.21,-18.5 741.48,-13.37 731.03,-11.6 732.21,-18.5"/>
</g>
<!-- Node22&#45;&gt;Node6 -->
<g id="edge38" class="edge">
<title>Node22&#45;&gt;Node6</title>
<path fill="none" stroke="midnightblue" d="M860.88,-201.41C880.76,-192.25 906.2,-179.36 927,-165 960.72,-141.73 995.01,-108.16 1013.99,-88.51"/>
<polygon fill="midnightblue" stroke="midnightblue" points="1016.55,-90.89 1020.92,-81.24 1011.48,-86.06 1016.55,-90.89"/>
</g>
<!-- Node22&#45;&gt;Node19 -->
<g id="edge37" class="edge">
<title>Node22&#45;&gt;Node19</title>
<path fill="none" stroke="midnightblue" d="M774.9,-209.34C708.77,-200.99 600.2,-184.81 565,-165 543.06,-152.66 549.03,-135.17 527,-123 464.73,-88.6 384.28,-76.75 324.41,-73.06"/>
<polygon fill="midnightblue" stroke="midnightblue" points="324.41,-69.56 314.23,-72.5 324.02,-76.55 324.41,-69.56"/>
</g>
<!-- Node22&#45;&gt;Node21 -->
<g id="edge53" class="edge">
<title>Node22&#45;&gt;Node21</title>
<path fill="none" stroke="midnightblue" d="M774.9,-207.34C715.54,-198 616.62,-181.82 532,-165 526.19,-163.85 520.18,-162.6 514.15,-161.3"/>
<polygon fill="midnightblue" stroke="midnightblue" points="514.54,-157.81 504.03,-159.1 513.05,-164.65 514.54,-157.81"/>
</g>
<!-- Node22&#45;&gt;Node22 -->
<g id="edge36" class="edge">
<title>Node22&#45;&gt;Node22</title>
<path fill="none" stroke="midnightblue" d="M881.26,-227.25C891.63,-226 899,-222.42 899,-216.5 899,-212.71 895.98,-209.88 891.08,-208"/>
<polygon fill="midnightblue" stroke="midnightblue" points="891.79,-204.57 881.26,-205.75 890.22,-211.4 891.79,-204.57"/>
</g>
<!-- Node23 -->
<g id="node23" class="node">
<title>Node23</title>
<g id="a_node23"><a xlink:href="../../d0/d44/scoped__ptr_8h.html" target="_top" xlink:title=" ">
<polygon fill="none" stroke="black" points="839,-56.5 839,-86.5 957,-86.5 957,-56.5 839,-56.5"/>
<text text-anchor="start" x="847" y="-74.5" font-family="Helvetica,sans-Serif" font-size="10.00">vitroio&#45;sdk/utils/impl</text>
<text text-anchor="middle" x="898" y="-63.5" font-family="Helvetica,sans-Serif" font-size="10.00">/scoped_ptr.h</text>
</a>
</g>
</g>
<!-- Node22&#45;&gt;Node23 -->
<g id="edge39" class="edge">
<title>Node22&#45;&gt;Node23</title>
<path fill="none" stroke="midnightblue" d="M866.66,-201.37C882.77,-193.34 899.83,-181.52 909,-165 920.76,-143.81 914.98,-115.72 908.17,-96.08"/>
<polygon fill="midnightblue" stroke="midnightblue" points="911.41,-94.77 904.6,-86.66 904.87,-97.25 911.41,-94.77"/>
</g>
<!-- Node24 -->
<g id="node24" class="node">
<title>Node24</title>
<g id="a_node24"><a xlink:href="../../d6/d4d/flash__interface_8h.html" target="_top" xlink:title=" ">
<polygon fill="none" stroke="black" points="574.5,-129 574.5,-159 699.5,-159 699.5,-129 574.5,-129"/>
<text text-anchor="start" x="582.5" y="-147" font-family="Helvetica,sans-Serif" font-size="10.00">vitroio&#45;sdk/interfaces</text>
<text text-anchor="middle" x="637" y="-136" font-family="Helvetica,sans-Serif" font-size="10.00">/impl/flash_interface.h</text>
</a>
</g>
</g>
<!-- Node22&#45;&gt;Node24 -->
<g id="edge41" class="edge">
<title>Node22&#45;&gt;Node24</title>
<path fill="none" stroke="midnightblue" d="M789.81,-201.4C759.62,-190.26 717.3,-174.64 684.86,-162.66"/>
<polygon fill="midnightblue" stroke="midnightblue" points="685.72,-159.25 675.13,-159.07 683.3,-165.82 685.72,-159.25"/>
</g>
<!-- Node25 -->
<g id="node25" class="node">
<title>Node25</title>
<g id="a_node25"><a xlink:href="../../de/d4f/environment__interface_8h.html" target="_top" xlink:title=" ">
<polygon fill="none" stroke="black" points="1032,-129 1032,-159 1196,-159 1196,-129 1032,-129"/>
<text text-anchor="start" x="1040" y="-147" font-family="Helvetica,sans-Serif" font-size="10.00">vitroio&#45;sdk/interfaces</text>
<text text-anchor="middle" x="1114" y="-136" font-family="Helvetica,sans-Serif" font-size="10.00">/impl/environment_interface.h</text>
</a>
</g>
</g>
<!-- Node22&#45;&gt;Node25 -->
<g id="edge43" class="edge">
<title>Node22&#45;&gt;Node25</title>
<path fill="none" stroke="midnightblue" d="M881.12,-202.4C927.92,-190.87 996.31,-174.01 1046.88,-161.55"/>
<polygon fill="midnightblue" stroke="midnightblue" points="1047.87,-164.91 1056.75,-159.11 1046.2,-158.11 1047.87,-164.91"/>
</g>
<!-- Node26 -->
<g id="node26" class="node">
<title>Node26</title>
<g id="a_node26"><a xlink:href="../../da/d8a/upgrade__controller_8h.html" target="_top" xlink:title=" ">
<polygon fill="none" stroke="black" points="756,-129 756,-159 900,-159 900,-129 756,-129"/>
<text text-anchor="start" x="764" y="-147" font-family="Helvetica,sans-Serif" font-size="10.00">vitroio&#45;sdk/control</text>
<text text-anchor="middle" x="828" y="-136" font-family="Helvetica,sans-Serif" font-size="10.00">/impl/upgrade_controller.h</text>
</a>
</g>
</g>
<!-- Node22&#45;&gt;Node26 -->
<g id="edge47" class="edge">
<title>Node22&#45;&gt;Node26</title>
<path fill="none" stroke="midnightblue" d="M828,-201.23C828,-192.16 828,-180.16 828,-169.58"/>
<polygon fill="midnightblue" stroke="midnightblue" points="831.5,-169.25 828,-159.25 824.5,-169.25 831.5,-169.25"/>
</g>
<!-- Node23&#45;&gt;Node4 -->
<g id="edge40" class="edge">
<title>Node23&#45;&gt;Node4</title>
<path fill="none" stroke="midnightblue" d="M867.19,-56.4C845.67,-46.55 817.16,-33.5 796.23,-23.92"/>
<polygon fill="midnightblue" stroke="midnightblue" points="797.47,-20.64 786.92,-19.66 794.55,-27 797.47,-20.64"/>
</g>
<!-- Node24&#45;&gt;Node4 -->
<g id="edge42" class="edge">
<title>Node24&#45;&gt;Node4</title>
<path fill="none" stroke="midnightblue" d="M628.91,-128.86C619.49,-110.3 607.12,-77.55 623,-56 647.65,-22.54 696.95,-13.22 731.18,-11.01"/>
<polygon fill="midnightblue" stroke="midnightblue" points="731.45,-14.5 741.27,-10.53 731.12,-7.51 731.45,-14.5"/>
</g>
<!-- Node25&#45;&gt;Node2 -->
<g id="edge46" class="edge">
<title>Node25&#45;&gt;Node2</title>
<path fill="none" stroke="midnightblue" d="M1130.59,-128.73C1144.36,-116.89 1163.91,-100.09 1178.04,-87.94"/>
<polygon fill="midnightblue" stroke="midnightblue" points="1180.36,-90.57 1185.66,-81.39 1175.79,-85.26 1180.36,-90.57"/>
</g>
<!-- Node25&#45;&gt;Node4 -->
<g id="edge44" class="edge">
<title>Node25&#45;&gt;Node4</title>
<path fill="none" stroke="midnightblue" d="M1114.87,-128.85C1115.22,-109.34 1112.65,-74.51 1092,-56 1050.24,-18.59 880.13,-12.12 804.52,-11.11"/>
<polygon fill="midnightblue" stroke="midnightblue" points="804.54,-7.61 794.51,-11.01 804.47,-14.61 804.54,-7.61"/>
</g>
<!-- Node25&#45;&gt;Node6 -->
<g id="edge45" class="edge">
<title>Node25&#45;&gt;Node6</title>
<path fill="none" stroke="midnightblue" d="M1096.8,-128.73C1082.52,-116.89 1062.26,-100.09 1047.61,-87.94"/>
<polygon fill="midnightblue" stroke="midnightblue" points="1049.65,-85.08 1039.72,-81.39 1045.18,-90.47 1049.65,-85.08"/>
</g>
<!-- Node26&#45;&gt;Node4 -->
<g id="edge48" class="edge">
<title>Node26&#45;&gt;Node4</title>
<path fill="none" stroke="midnightblue" d="M822.68,-128.95C815.99,-111.6 803.93,-81.28 792,-56 787.7,-46.89 782.48,-36.99 778.01,-28.81"/>
<polygon fill="midnightblue" stroke="midnightblue" points="780.95,-26.89 773.04,-19.83 774.83,-30.28 780.95,-26.89"/>
</g>
<!-- Node26&#45;&gt;Node6 -->
<g id="edge52" class="edge">
<title>Node26&#45;&gt;Node6</title>
<path fill="none" stroke="midnightblue" d="M868.19,-128.9C905.31,-115.88 959.85,-96.75 994.9,-84.46"/>
<polygon fill="midnightblue" stroke="midnightblue" points="996.39,-87.65 1004.67,-81.03 994.08,-81.04 996.39,-87.65"/>
</g>
<!-- Node26&#45;&gt;Node23 -->
<g id="edge49" class="edge">
<title>Node26&#45;&gt;Node23</title>
<path fill="none" stroke="midnightblue" d="M842.17,-128.73C852.03,-118.8 865.37,-105.36 876.54,-94.11"/>
<polygon fill="midnightblue" stroke="midnightblue" points="879.29,-96.31 883.86,-86.75 874.33,-91.38 879.29,-96.31"/>
</g>
<!-- Node27 -->
<g id="node27" class="node">
<title>Node27</title>
<g id="a_node27"><a xlink:href="../../d5/d08/buffer_8h.html" target="_top" xlink:title=" ">
<polygon fill="none" stroke="black" points="665,-56.5 665,-86.5 783,-86.5 783,-56.5 665,-56.5"/>
<text text-anchor="start" x="673" y="-74.5" font-family="Helvetica,sans-Serif" font-size="10.00">vitroio&#45;sdk/utils/impl</text>
<text text-anchor="middle" x="724" y="-63.5" font-family="Helvetica,sans-Serif" font-size="10.00">/buffer.h</text>
</a>
</g>
</g>
<!-- Node26&#45;&gt;Node27 -->
<g id="edge50" class="edge">
<title>Node26&#45;&gt;Node27</title>
<path fill="none" stroke="midnightblue" d="M806.95,-128.73C791.49,-118.25 770.28,-103.87 753.18,-92.28"/>
<polygon fill="midnightblue" stroke="midnightblue" points="754.9,-89.22 744.66,-86.5 750.97,-95.01 754.9,-89.22"/>
</g>
<!-- Node27&#45;&gt;Node4 -->
<g id="edge51" class="edge">
<title>Node27&#45;&gt;Node4</title>
<path fill="none" stroke="midnightblue" d="M734.43,-56.4C740.76,-47.84 748.87,-36.87 755.53,-27.86"/>
<polygon fill="midnightblue" stroke="midnightblue" points="758.47,-29.78 761.6,-19.66 752.84,-25.62 758.47,-29.78"/>
</g>
<!-- Node28&#45;&gt;Node4 -->
<g id="edge58" class="edge">
<title>Node28&#45;&gt;Node4</title>
<path fill="none" stroke="midnightblue" d="M410.5,-201.4C391.28,-193.89 372.39,-182.44 361,-165 350.79,-149.37 350.34,-138.32 361,-123 403.99,-61.25 639.86,-26.5 731.54,-15.17"/>
<polygon fill="midnightblue" stroke="midnightblue" points="731.97,-18.64 741.48,-13.96 731.13,-11.69 731.97,-18.64"/>
</g>
<!-- Node28&#45;&gt;Node18 -->
<g id="edge60" class="edge">
<title>Node28&#45;&gt;Node18</title>
<path fill="none" stroke="midnightblue" d="M429.09,-201.49C391.09,-190.14 337.41,-174.1 296.95,-162.01"/>
<polygon fill="midnightblue" stroke="midnightblue" points="297.81,-158.62 287.22,-159.11 295.8,-165.32 297.81,-158.62"/>
</g>
<!-- Node28&#45;&gt;Node21 -->
<g id="edge59" class="edge">
<title>Node28&#45;&gt;Node21</title>
<path fill="none" stroke="midnightblue" d="M469.52,-201.23C465.27,-191.87 459.61,-179.4 454.7,-168.58"/>
<polygon fill="midnightblue" stroke="midnightblue" points="457.79,-166.9 450.47,-159.25 451.41,-169.8 457.79,-166.9"/>
</g>
</g>
</svg>
