<?xml version="1.0" encoding="UTF-8" standalone="no"?>
<!DOCTYPE svg PUBLIC "-//W3C//DTD SVG 1.1//EN"
 "http://www.w3.org/Graphics/SVG/1.1/DTD/svg11.dtd">
<!-- Generated by graphviz version 2.43.0 (0)
 -->
<!-- Title: upgrade_controller.h Pages: 1 -->
<svg width="403pt" height="151pt"
 viewBox="0.00 0.00 403.41 151.00" xmlns="http://www.w3.org/2000/svg" xmlns:xlink="http://www.w3.org/1999/xlink">
<g id="graph0" class="graph" transform="scale(1 1) rotate(0) translate(4 147)">
<title>upgrade_controller.h</title>
<!-- Node1 -->
<g id="node1" class="node">
<title>Node1</title>
<g id="a_node1"><a xlink:title=" ">
<polygon fill="#bfbfbf" stroke="black" points="84.41,-123.5 84.41,-142.5 200.41,-142.5 200.41,-123.5 84.41,-123.5"/>
<text text-anchor="middle" x="142.41" y="-130.5" font-family="Helvetica,sans-Serif" font-size="10.00">upgrade_controller.h</text>
</a>
</g>
</g>
<!-- Node2 -->
<g id="node2" class="node">
<title>Node2</title>
<g id="a_node2"><a xlink:title=" ">
<polygon fill="none" stroke="#bfbfbf" points="115.91,-0.5 115.91,-19.5 168.91,-19.5 168.91,-0.5 115.91,-0.5"/>
<text text-anchor="middle" x="142.41" y="-7.5" font-family="Helvetica,sans-Serif" font-size="10.00">mbed.h</text>
</a>
</g>
</g>
<!-- Node1&#45;&gt;Node2 -->
<g id="edge1" class="edge">
<title>Node1&#45;&gt;Node2</title>
<path fill="none" stroke="midnightblue" d="M84.23,-128.13C55.89,-122.97 24.17,-111.59 6.41,-87 -22.06,-47.6 56.47,-26.06 105.79,-16.73"/>
<polygon fill="midnightblue" stroke="midnightblue" points="106.61,-20.14 115.83,-14.92 105.36,-13.25 106.61,-20.14"/>
</g>
<!-- Node3 -->
<g id="node3" class="node">
<title>Node3</title>
<g id="a_node3"><a xlink:href="../../d0/d44/scoped__ptr_8h.html" target="_top" xlink:title=" ">
<polygon fill="none" stroke="black" points="15.41,-56.5 15.41,-86.5 133.41,-86.5 133.41,-56.5 15.41,-56.5"/>
<text text-anchor="start" x="23.41" y="-74.5" font-family="Helvetica,sans-Serif" font-size="10.00">vitroio&#45;sdk/utils/impl</text>
<text text-anchor="middle" x="74.41" y="-63.5" font-family="Helvetica,sans-Serif" font-size="10.00">/scoped_ptr.h</text>
</a>
</g>
</g>
<!-- Node1&#45;&gt;Node3 -->
<g id="edge2" class="edge">
<title>Node1&#45;&gt;Node3</title>
<path fill="none" stroke="midnightblue" d="M132.66,-123.48C123.71,-115.64 110.08,-103.71 98.25,-93.37"/>
<polygon fill="midnightblue" stroke="midnightblue" points="100.26,-90.47 90.43,-86.52 95.65,-95.74 100.26,-90.47"/>
</g>
<!-- Node4 -->
<g id="node4" class="node">
<title>Node4</title>
<g id="a_node4"><a xlink:href="../../d5/d08/buffer_8h.html" target="_top" xlink:title=" ">
<polygon fill="none" stroke="black" points="151.41,-56.5 151.41,-86.5 269.41,-86.5 269.41,-56.5 151.41,-56.5"/>
<text text-anchor="start" x="159.41" y="-74.5" font-family="Helvetica,sans-Serif" font-size="10.00">vitroio&#45;sdk/utils/impl</text>
<text text-anchor="middle" x="210.41" y="-63.5" font-family="Helvetica,sans-Serif" font-size="10.00">/buffer.h</text>
</a>
</g>
</g>
<!-- Node1&#45;&gt;Node4 -->
<g id="edge4" class="edge">
<title>Node1&#45;&gt;Node4</title>
<path fill="none" stroke="midnightblue" d="M152.15,-123.48C161.1,-115.64 174.73,-103.71 186.56,-93.37"/>
<polygon fill="midnightblue" stroke="midnightblue" points="189.16,-95.74 194.38,-86.52 184.55,-90.47 189.16,-95.74"/>
</g>
<!-- Node5 -->
<g id="node5" class="node">
<title>Node5</title>
<g id="a_node5"><a xlink:href="../../d9/d49/types_8h.html" target="_top" xlink:title="The file contains types used by vitro&#45;shard&#45;sdk.">
<polygon fill="none" stroke="black" points="287.41,-62 287.41,-81 395.41,-81 395.41,-62 287.41,-62"/>
<text text-anchor="middle" x="341.41" y="-69" font-family="Helvetica,sans-Serif" font-size="10.00">vitroio&#45;sdk/types.h</text>
</a>
</g>
</g>
<!-- Node1&#45;&gt;Node5 -->
<g id="edge6" class="edge">
<title>Node1&#45;&gt;Node5</title>
<path fill="none" stroke="midnightblue" d="M170.92,-123.48C205.64,-113.09 264.44,-95.51 303.1,-83.95"/>
<polygon fill="midnightblue" stroke="midnightblue" points="304.37,-87.23 312.95,-81.01 302.36,-80.52 304.37,-87.23"/>
</g>
<!-- Node3&#45;&gt;Node2 -->
<g id="edge3" class="edge">
<title>Node3&#45;&gt;Node2</title>
<path fill="none" stroke="midnightblue" d="M90.52,-56.4C100.81,-47.4 114.15,-35.72 124.73,-26.47"/>
<polygon fill="midnightblue" stroke="midnightblue" points="127.29,-28.88 132.51,-19.66 122.68,-23.61 127.29,-28.88"/>
</g>
<!-- Node4&#45;&gt;Node2 -->
<g id="edge5" class="edge">
<title>Node4&#45;&gt;Node2</title>
<path fill="none" stroke="midnightblue" d="M194.29,-56.4C184,-47.4 170.66,-35.72 160.08,-26.47"/>
<polygon fill="midnightblue" stroke="midnightblue" points="162.13,-23.61 152.3,-19.66 157.52,-28.88 162.13,-23.61"/>
</g>
<!-- Node5&#45;&gt;Node2 -->
<g id="edge7" class="edge">
<title>Node5&#45;&gt;Node2</title>
<path fill="none" stroke="midnightblue" d="M312.89,-61.98C277.58,-51.42 217.36,-33.41 178.76,-21.87"/>
<polygon fill="midnightblue" stroke="midnightblue" points="179.54,-18.45 168.96,-18.94 177.54,-25.16 179.54,-18.45"/>
</g>
</g>
</svg>
