<?xml version="1.0" encoding="UTF-8" standalone="no"?>
<!DOCTYPE svg PUBLIC "-//W3C//DTD SVG 1.1//EN"
 "http://www.w3.org/Graphics/SVG/1.1/DTD/svg11.dtd">
<!-- Generated by graphviz version 2.43.0 (0)
 -->
<!-- Title: vitroio::sdk::impl::Buffer::size Pages: 1 -->
<svg width="242pt" height="137pt"
 viewBox="0.00 0.00 242.00 137.00" xmlns="http://www.w3.org/2000/svg" xmlns:xlink="http://www.w3.org/1999/xlink">
<g id="graph0" class="graph" transform="scale(1 1) rotate(0) translate(4 133)">
<title>vitroio::sdk::impl::Buffer::size</title>
<!-- Node1 -->
<g id="node1" class="node">
<title>Node1</title>
<g id="a_node1"><a xlink:title=" ">
<polygon fill="#bfbfbf" stroke="black" points="135,-49.5 135,-79.5 234,-79.5 234,-49.5 135,-49.5"/>
<text text-anchor="start" x="143" y="-67.5" font-family="Helvetica,sans-Serif" font-size="10.00">vitroio::sdk::impl</text>
<text text-anchor="middle" x="184.5" y="-56.5" font-family="Helvetica,sans-Serif" font-size="10.00">::Buffer::size</text>
</a>
</g>
</g>
<!-- Node2 -->
<g id="node2" class="node">
<title>Node2</title>
<g id="a_node2"><a xlink:href="../../db/d9a/classvitroio_1_1sdk_1_1impl_1_1Buffer.html#a91681158fd6528a8fe22d1473c27e32e" target="_top" xlink:title=" ">
<polygon fill="none" stroke="black" points="0,-98.5 0,-128.5 99,-128.5 99,-98.5 0,-98.5"/>
<text text-anchor="start" x="8" y="-116.5" font-family="Helvetica,sans-Serif" font-size="10.00">vitroio::sdk::impl</text>
<text text-anchor="middle" x="49.5" y="-105.5" font-family="Helvetica,sans-Serif" font-size="10.00">::Buffer::alloc</text>
</a>
</g>
</g>
<!-- Node1&#45;&gt;Node2 -->
<g id="edge1" class="edge">
<title>Node1&#45;&gt;Node2</title>
<path fill="none" stroke="midnightblue" d="M132.79,-83.18C119.17,-88.2 104.61,-93.56 91.58,-98.36"/>
<polygon fill="midnightblue" stroke="midnightblue" points="134.34,-86.34 142.51,-79.6 131.92,-79.77 134.34,-86.34"/>
</g>
<!-- Node3 -->
<g id="node3" class="node">
<title>Node3</title>
<g id="a_node3"><a xlink:href="../../db/d9a/classvitroio_1_1sdk_1_1impl_1_1Buffer.html#ad673a5dc93fb8b471b17aa88d2332599" target="_top" xlink:title=" ">
<polygon fill="none" stroke="black" points="0,-49.5 0,-79.5 99,-79.5 99,-49.5 0,-49.5"/>
<text text-anchor="start" x="8" y="-67.5" font-family="Helvetica,sans-Serif" font-size="10.00">vitroio::sdk::impl</text>
<text text-anchor="middle" x="49.5" y="-56.5" font-family="Helvetica,sans-Serif" font-size="10.00">::Buffer::resize</text>
</a>
</g>
</g>
<!-- Node1&#45;&gt;Node3 -->
<g id="edge2" class="edge">
<title>Node1&#45;&gt;Node3</title>
<path fill="none" stroke="midnightblue" d="M124.55,-64.5C116.1,-64.5 107.49,-64.5 99.26,-64.5"/>
<polygon fill="midnightblue" stroke="midnightblue" points="124.73,-68 134.73,-64.5 124.73,-61 124.73,-68"/>
</g>
<!-- Node4 -->
<g id="node4" class="node">
<title>Node4</title>
<g id="a_node4"><a xlink:href="../../db/d9a/classvitroio_1_1sdk_1_1impl_1_1Buffer.html#a6bb1cff9096aab6e58c62fe243c127d5" target="_top" xlink:title=" ">
<polygon fill="none" stroke="black" points="0,-0.5 0,-30.5 99,-30.5 99,-0.5 0,-0.5"/>
<text text-anchor="start" x="8" y="-18.5" font-family="Helvetica,sans-Serif" font-size="10.00">vitroio::sdk::impl</text>
<text text-anchor="middle" x="49.5" y="-7.5" font-family="Helvetica,sans-Serif" font-size="10.00">::Buffer::set</text>
</a>
</g>
</g>
<!-- Node1&#45;&gt;Node4 -->
<g id="edge3" class="edge">
<title>Node1&#45;&gt;Node4</title>
<path fill="none" stroke="midnightblue" d="M132.79,-45.82C119.17,-40.8 104.61,-35.44 91.58,-30.64"/>
<polygon fill="midnightblue" stroke="midnightblue" points="131.92,-49.23 142.51,-49.4 134.34,-42.66 131.92,-49.23"/>
</g>
</g>
</svg>
