<?xml version="1.0" encoding="UTF-8" standalone="no"?>
<!DOCTYPE svg PUBLIC "-//W3C//DTD SVG 1.1//EN"
 "http://www.w3.org/Graphics/SVG/1.1/DTD/svg11.dtd">
<!-- Generated by graphviz version 2.43.0 (0)
 -->
<!-- Title: scoped_ptr.h Pages: 1 -->
<svg width="178pt" height="196pt"
 viewBox="0.00 0.00 177.50 196.00" xmlns="http://www.w3.org/2000/svg" xmlns:xlink="http://www.w3.org/1999/xlink">
<g id="graph0" class="graph" transform="scale(1 1) rotate(0) translate(4 192)">
<title>scoped_ptr.h</title>
<!-- Node1 -->
<g id="node1" class="node">
<title>Node1</title>
<g id="a_node1"><a xlink:title=" ">
<polygon fill="#bfbfbf" stroke="black" points="62,-168.5 62,-187.5 140,-187.5 140,-168.5 62,-168.5"/>
<text text-anchor="middle" x="101" y="-175.5" font-family="Helvetica,sans-Serif" font-size="10.00">scoped_ptr.h</text>
</a>
</g>
</g>
<!-- Node2 -->
<g id="node2" class="node">
<title>Node2</title>
<g id="a_node2"><a xlink:href="../../da/d8a/upgrade__controller_8h.html" target="_top" xlink:title=" ">
<polygon fill="none" stroke="black" points="0,-112.5 0,-131.5 116,-131.5 116,-112.5 0,-112.5"/>
<text text-anchor="middle" x="58" y="-119.5" font-family="Helvetica,sans-Serif" font-size="10.00">upgrade_controller.h</text>
</a>
</g>
</g>
<!-- Node1&#45;&gt;Node2 -->
<g id="edge1" class="edge">
<title>Node1&#45;&gt;Node2</title>
<path fill="none" stroke="midnightblue" d="M87.58,-160.14C80.09,-150.74 71.06,-139.4 64.97,-131.75"/>
<polygon fill="midnightblue" stroke="midnightblue" points="84.93,-162.44 93.9,-168.08 90.41,-158.08 84.93,-162.44"/>
</g>
<!-- Node3 -->
<g id="node3" class="node">
<title>Node3</title>
<g id="a_node3"><a xlink:href="../../d6/d9f/node__controller_8h.html" target="_top" xlink:title=" ">
<polygon fill="none" stroke="black" points="50.5,-56.5 50.5,-75.5 151.5,-75.5 151.5,-56.5 50.5,-56.5"/>
<text text-anchor="middle" x="101" y="-63.5" font-family="Helvetica,sans-Serif" font-size="10.00">node_controller.h</text>
</a>
</g>
</g>
<!-- Node1&#45;&gt;Node3 -->
<g id="edge5" class="edge">
<title>Node1&#45;&gt;Node3</title>
<path fill="none" stroke="midnightblue" d="M112.76,-159.77C117.56,-151.71 122.56,-141.75 125,-132 130.19,-111.23 116.56,-87.92 107.77,-75.64"/>
<polygon fill="midnightblue" stroke="midnightblue" points="109.79,-157.92 107.37,-168.23 115.69,-161.68 109.79,-157.92"/>
</g>
<!-- Node2&#45;&gt;Node3 -->
<g id="edge2" class="edge">
<title>Node2&#45;&gt;Node3</title>
<path fill="none" stroke="midnightblue" d="M71.42,-104.14C78.91,-94.74 87.94,-83.4 94.03,-75.75"/>
<polygon fill="midnightblue" stroke="midnightblue" points="68.59,-102.08 65.1,-112.08 74.07,-106.44 68.59,-102.08"/>
</g>
<!-- Node3&#45;&gt;Node3 -->
<g id="edge3" class="edge">
<title>Node3&#45;&gt;Node3</title>
<path fill="none" stroke="midnightblue" d="M140.32,-76.43C156.17,-77.04 169.5,-73.56 169.5,-66 169.5,-56.87 150.07,-53.69 130.22,-56.47"/>
<polygon fill="midnightblue" stroke="midnightblue" points="140.49,-72.93 130.22,-75.53 139.86,-79.91 140.49,-72.93"/>
</g>
<!-- Node4 -->
<g id="node4" class="node">
<title>Node4</title>
<g id="a_node4"><a xlink:href="../../d4/d3e/shard-sdk_8h.html" target="_top" xlink:title=" ">
<polygon fill="none" stroke="black" points="64,-0.5 64,-19.5 138,-19.5 138,-0.5 64,-0.5"/>
<text text-anchor="middle" x="101" y="-7.5" font-family="Helvetica,sans-Serif" font-size="10.00">shard&#45;sdk.h</text>
</a>
</g>
</g>
<!-- Node3&#45;&gt;Node4 -->
<g id="edge4" class="edge">
<title>Node3&#45;&gt;Node4</title>
<path fill="none" stroke="midnightblue" d="M101,-45.8C101,-36.91 101,-26.78 101,-19.75"/>
<polygon fill="midnightblue" stroke="midnightblue" points="97.5,-46.08 101,-56.08 104.5,-46.08 97.5,-46.08"/>
</g>
</g>
</svg>
