<?xml version="1.0" encoding="UTF-8" standalone="no"?>
<!DOCTYPE svg PUBLIC "-//W3C//DTD SVG 1.1//EN"
 "http://www.w3.org/Graphics/SVG/1.1/DTD/svg11.dtd">
<!-- Generated by graphviz version 2.43.0 (0)
 -->
<!-- Title: consts.h Pages: 1 -->
<svg width="400pt" height="196pt"
 viewBox="0.00 0.00 399.50 196.00" xmlns="http://www.w3.org/2000/svg" xmlns:xlink="http://www.w3.org/1999/xlink">
<g id="graph0" class="graph" transform="scale(1 1) rotate(0) translate(4 192)">
<title>consts.h</title>
<!-- Node1 -->
<g id="node1" class="node">
<title>Node1</title>
<g id="a_node1"><a xlink:title="The file contains constants of vitro&#45;shard&#45;sdk for user usage.">
<polygon fill="#bfbfbf" stroke="black" points="251,-168.5 251,-187.5 308,-187.5 308,-168.5 251,-168.5"/>
<text text-anchor="middle" x="279.5" y="-175.5" font-family="Helvetica,sans-Serif" font-size="10.00">consts.h</text>
</a>
</g>
</g>
<!-- Node2 -->
<g id="node2" class="node">
<title>Node2</title>
<g id="a_node2"><a xlink:href="../../de/d4f/environment__interface_8h.html" target="_top" xlink:title=" ">
<polygon fill="none" stroke="black" points="79,-112.5 79,-131.5 216,-131.5 216,-112.5 79,-112.5"/>
<text text-anchor="middle" x="147.5" y="-119.5" font-family="Helvetica,sans-Serif" font-size="10.00">environment_interface.h</text>
</a>
</g>
</g>
<!-- Node1&#45;&gt;Node2 -->
<g id="edge1" class="edge">
<title>Node1&#45;&gt;Node2</title>
<path fill="none" stroke="midnightblue" d="M249.28,-164.64C224.51,-154.5 190.1,-140.43 168.32,-131.52"/>
<polygon fill="midnightblue" stroke="midnightblue" points="248,-167.9 258.58,-168.44 250.65,-161.42 248,-167.9"/>
</g>
<!-- Node4 -->
<g id="node4" class="node">
<title>Node4</title>
<g id="a_node4"><a xlink:href="../../d4/d3e/shard-sdk_8h.html" target="_top" xlink:title=" ">
<polygon fill="none" stroke="black" points="207.5,-0.5 207.5,-19.5 281.5,-19.5 281.5,-0.5 207.5,-0.5"/>
<text text-anchor="middle" x="244.5" y="-7.5" font-family="Helvetica,sans-Serif" font-size="10.00">shard&#45;sdk.h</text>
</a>
</g>
</g>
<!-- Node1&#45;&gt;Node4 -->
<g id="edge9" class="edge">
<title>Node1&#45;&gt;Node4</title>
<path fill="none" stroke="midnightblue" d="M272.75,-158.94C269.9,-150.8 266.73,-141 264.5,-132 254.21,-90.46 247.75,-39.56 245.45,-19.6"/>
<polygon fill="midnightblue" stroke="midnightblue" points="269.52,-160.28 276.22,-168.49 276.1,-157.9 269.52,-160.28"/>
</g>
<!-- Node6 -->
<g id="node6" class="node">
<title>Node6</title>
<g id="a_node6"><a xlink:href="../../d8/dc5/io__expander_8h.html" target="_top" xlink:title=" ">
<polygon fill="none" stroke="black" points="273,-112.5 273,-131.5 358,-131.5 358,-112.5 273,-112.5"/>
<text text-anchor="middle" x="315.5" y="-119.5" font-family="Helvetica,sans-Serif" font-size="10.00">io_expander.h</text>
</a>
</g>
</g>
<!-- Node1&#45;&gt;Node6 -->
<g id="edge6" class="edge">
<title>Node1&#45;&gt;Node6</title>
<path fill="none" stroke="midnightblue" d="M291.12,-159.57C297.32,-150.27 304.67,-139.25 309.67,-131.75"/>
<polygon fill="midnightblue" stroke="midnightblue" points="288.08,-157.82 285.44,-168.08 293.9,-161.7 288.08,-157.82"/>
</g>
<!-- Node7 -->
<g id="node7" class="node">
<title>Node7</title>
<g id="a_node7"><a xlink:href="../../dc/dce/shard__edge_8h.html" target="_top" xlink:title=" ">
<polygon fill="none" stroke="black" points="309.5,-56.5 309.5,-75.5 391.5,-75.5 391.5,-56.5 309.5,-56.5"/>
<text text-anchor="middle" x="350.5" y="-63.5" font-family="Helvetica,sans-Serif" font-size="10.00">shard_edge.h</text>
</a>
</g>
</g>
<!-- Node1&#45;&gt;Node7 -->
<g id="edge7" class="edge">
<title>Node1&#45;&gt;Node7</title>
<path fill="none" stroke="midnightblue" d="M317.97,-167.47C336.34,-160.77 356.65,-149.74 367.5,-132 378.58,-113.89 365.31,-88.68 356.72,-75.61"/>
<polygon fill="midnightblue" stroke="midnightblue" points="316.7,-164.2 308.32,-170.67 318.91,-170.84 316.7,-164.2"/>
</g>
<!-- Node3 -->
<g id="node3" class="node">
<title>Node3</title>
<g id="a_node3"><a xlink:href="../../d6/d9f/node__controller_8h.html" target="_top" xlink:title=" ">
<polygon fill="none" stroke="black" points="0,-56.5 0,-75.5 101,-75.5 101,-56.5 0,-56.5"/>
<text text-anchor="middle" x="50.5" y="-63.5" font-family="Helvetica,sans-Serif" font-size="10.00">node_controller.h</text>
</a>
</g>
</g>
<!-- Node2&#45;&gt;Node3 -->
<g id="edge2" class="edge">
<title>Node2&#45;&gt;Node3</title>
<path fill="none" stroke="midnightblue" d="M123.16,-107.45C105.26,-97.48 81.45,-84.23 66.05,-75.65"/>
<polygon fill="midnightblue" stroke="midnightblue" points="121.48,-110.52 131.92,-112.32 124.88,-104.4 121.48,-110.52"/>
</g>
<!-- Node5 -->
<g id="node5" class="node">
<title>Node5</title>
<g id="a_node5"><a xlink:href="../../d2/d02/timestamp_8h.html" target="_top" xlink:title=" ">
<polygon fill="none" stroke="black" points="137,-56.5 137,-75.5 216,-75.5 216,-56.5 137,-56.5"/>
<text text-anchor="middle" x="176.5" y="-63.5" font-family="Helvetica,sans-Serif" font-size="10.00">timestamp.h</text>
</a>
</g>
</g>
<!-- Node2&#45;&gt;Node5 -->
<g id="edge5" class="edge">
<title>Node2&#45;&gt;Node5</title>
<path fill="none" stroke="midnightblue" d="M157.18,-102.98C162.1,-93.82 167.86,-83.09 171.8,-75.75"/>
<polygon fill="midnightblue" stroke="midnightblue" points="153.94,-101.62 152.29,-112.08 160.1,-104.93 153.94,-101.62"/>
</g>
<!-- Node3&#45;&gt;Node3 -->
<g id="edge3" class="edge">
<title>Node3&#45;&gt;Node3</title>
<path fill="none" stroke="midnightblue" d="M89.82,-76.43C105.67,-77.04 119,-73.56 119,-66 119,-56.87 99.57,-53.69 79.72,-56.47"/>
<polygon fill="midnightblue" stroke="midnightblue" points="89.99,-72.93 79.72,-75.53 89.36,-79.91 89.99,-72.93"/>
</g>
<!-- Node3&#45;&gt;Node4 -->
<g id="edge4" class="edge">
<title>Node3&#45;&gt;Node4</title>
<path fill="none" stroke="midnightblue" d="M91.1,-53.7C127.72,-43.51 180.76,-28.74 213.9,-19.52"/>
<polygon fill="midnightblue" stroke="midnightblue" points="89.94,-50.39 81.24,-56.44 91.81,-57.13 89.94,-50.39"/>
</g>
<!-- Node7&#45;&gt;Node4 -->
<g id="edge8" class="edge">
<title>Node7&#45;&gt;Node4</title>
<path fill="none" stroke="midnightblue" d="M324.44,-51.73C304.82,-41.73 278.47,-28.31 261.49,-19.65"/>
<polygon fill="midnightblue" stroke="midnightblue" points="322.97,-54.9 333.47,-56.32 326.15,-48.67 322.97,-54.9"/>
</g>
</g>
</svg>
