<?xml version="1.0" encoding="UTF-8" standalone="no"?>
<!DOCTYPE svg PUBLIC "-//W3C//DTD SVG 1.1//EN"
 "http://www.w3.org/Graphics/SVG/1.1/DTD/svg11.dtd">
<!-- Generated by graphviz version 2.43.0 (0)
 -->
<!-- Title: types.h Pages: 1 -->
<svg width="340pt" height="196pt"
 viewBox="0.00 0.00 339.50 196.00" xmlns="http://www.w3.org/2000/svg" xmlns:xlink="http://www.w3.org/1999/xlink">
<g id="graph0" class="graph" transform="scale(1 1) rotate(0) translate(4 192)">
<title>types.h</title>
<!-- Node1 -->
<g id="node1" class="node">
<title>Node1</title>
<g id="a_node1"><a xlink:title="The file contains types used by vitro&#45;shard&#45;sdk.">
<polygon fill="#bfbfbf" stroke="black" points="96.5,-168.5 96.5,-187.5 149.5,-187.5 149.5,-168.5 96.5,-168.5"/>
<text text-anchor="middle" x="123" y="-175.5" font-family="Helvetica,sans-Serif" font-size="10.00">types.h</text>
</a>
</g>
</g>
<!-- Node2 -->
<g id="node2" class="node">
<title>Node2</title>
<g id="a_node2"><a xlink:href="../../da/d8a/upgrade__controller_8h.html" target="_top" xlink:title=" ">
<polygon fill="none" stroke="black" points="22,-112.5 22,-131.5 138,-131.5 138,-112.5 22,-112.5"/>
<text text-anchor="middle" x="80" y="-119.5" font-family="Helvetica,sans-Serif" font-size="10.00">upgrade_controller.h</text>
</a>
</g>
</g>
<!-- Node1&#45;&gt;Node2 -->
<g id="edge1" class="edge">
<title>Node1&#45;&gt;Node2</title>
<path fill="none" stroke="midnightblue" d="M109.58,-160.14C102.09,-150.74 93.06,-139.4 86.97,-131.75"/>
<polygon fill="midnightblue" stroke="midnightblue" points="106.93,-162.44 115.9,-168.08 112.41,-158.08 106.93,-162.44"/>
</g>
<!-- Node3 -->
<g id="node3" class="node">
<title>Node3</title>
<g id="a_node3"><a xlink:href="../../d6/d9f/node__controller_8h.html" target="_top" xlink:title=" ">
<polygon fill="none" stroke="black" points="57.5,-56.5 57.5,-75.5 158.5,-75.5 158.5,-56.5 57.5,-56.5"/>
<text text-anchor="middle" x="108" y="-63.5" font-family="Helvetica,sans-Serif" font-size="10.00">node_controller.h</text>
</a>
</g>
</g>
<!-- Node1&#45;&gt;Node3 -->
<g id="edge5" class="edge">
<title>Node1&#45;&gt;Node3</title>
<path fill="none" stroke="midnightblue" d="M136.37,-159.67C144.79,-146.57 153.02,-128.14 147,-112 141.44,-97.08 128.45,-83.83 118.99,-75.63"/>
<polygon fill="midnightblue" stroke="midnightblue" points="133.29,-157.97 130.41,-168.16 139.02,-161.99 133.29,-157.97"/>
</g>
<!-- Node4 -->
<g id="node4" class="node">
<title>Node4</title>
<g id="a_node4"><a xlink:href="../../d4/d3e/shard-sdk_8h.html" target="_top" xlink:title=" ">
<polygon fill="none" stroke="black" points="0,-0.5 0,-19.5 74,-19.5 74,-0.5 0,-0.5"/>
<text text-anchor="middle" x="37" y="-7.5" font-family="Helvetica,sans-Serif" font-size="10.00">shard&#45;sdk.h</text>
</a>
</g>
</g>
<!-- Node1&#45;&gt;Node4 -->
<g id="edge9" class="edge">
<title>Node1&#45;&gt;Node4</title>
<path fill="none" stroke="midnightblue" d="M86.44,-172.59C61.17,-167.43 29.27,-156.24 13,-132 -11.23,-95.9 18.06,-40.97 31.22,-19.77"/>
<polygon fill="midnightblue" stroke="midnightblue" points="85.99,-176.07 96.45,-174.4 87.23,-169.18 85.99,-176.07"/>
</g>
<!-- Node5 -->
<g id="node5" class="node">
<title>Node5</title>
<g id="a_node5"><a xlink:href="../../de/d4f/environment__interface_8h.html" target="_top" xlink:title=" ">
<polygon fill="none" stroke="black" points="194.5,-112.5 194.5,-131.5 331.5,-131.5 331.5,-112.5 194.5,-112.5"/>
<text text-anchor="middle" x="263" y="-119.5" font-family="Helvetica,sans-Serif" font-size="10.00">environment_interface.h</text>
</a>
</g>
</g>
<!-- Node1&#45;&gt;Node5 -->
<g id="edge6" class="edge">
<title>Node1&#45;&gt;Node5</title>
<path fill="none" stroke="midnightblue" d="M154.7,-164.77C181,-154.63 217.72,-140.47 240.92,-131.52"/>
<polygon fill="midnightblue" stroke="midnightblue" points="153.25,-161.58 145.18,-168.44 155.77,-168.11 153.25,-161.58"/>
</g>
<!-- Node2&#45;&gt;Node3 -->
<g id="edge2" class="edge">
<title>Node2&#45;&gt;Node3</title>
<path fill="none" stroke="midnightblue" d="M89.34,-102.98C94.09,-93.82 99.66,-83.09 103.46,-75.75"/>
<polygon fill="midnightblue" stroke="midnightblue" points="86.12,-101.59 84.62,-112.08 92.33,-104.82 86.12,-101.59"/>
</g>
<!-- Node3&#45;&gt;Node3 -->
<g id="edge3" class="edge">
<title>Node3&#45;&gt;Node3</title>
<path fill="none" stroke="midnightblue" d="M147.32,-76.43C163.17,-77.04 176.5,-73.56 176.5,-66 176.5,-56.87 157.07,-53.69 137.22,-56.47"/>
<polygon fill="midnightblue" stroke="midnightblue" points="147.49,-72.93 137.22,-75.53 146.86,-79.91 147.49,-72.93"/>
</g>
<!-- Node3&#45;&gt;Node4 -->
<g id="edge4" class="edge">
<title>Node3&#45;&gt;Node4</title>
<path fill="none" stroke="midnightblue" d="M88.41,-50.1C75.63,-40.38 59.39,-28.03 48.61,-19.83"/>
<polygon fill="midnightblue" stroke="midnightblue" points="86.51,-53.06 96.59,-56.32 90.75,-47.48 86.51,-53.06"/>
</g>
<!-- Node5&#45;&gt;Node3 -->
<g id="edge7" class="edge">
<title>Node5&#45;&gt;Node3</title>
<path fill="none" stroke="midnightblue" d="M228.67,-109.04C199.5,-98.88 158.36,-84.55 132.45,-75.52"/>
<polygon fill="midnightblue" stroke="midnightblue" points="227.84,-112.46 238.44,-112.44 230.15,-105.85 227.84,-112.46"/>
</g>
<!-- Node6 -->
<g id="node6" class="node">
<title>Node6</title>
<g id="a_node6"><a xlink:href="../../d2/d02/timestamp_8h.html" target="_top" xlink:title=" ">
<polygon fill="none" stroke="black" points="223.5,-56.5 223.5,-75.5 302.5,-75.5 302.5,-56.5 223.5,-56.5"/>
<text text-anchor="middle" x="263" y="-63.5" font-family="Helvetica,sans-Serif" font-size="10.00">timestamp.h</text>
</a>
</g>
</g>
<!-- Node5&#45;&gt;Node6 -->
<g id="edge8" class="edge">
<title>Node5&#45;&gt;Node6</title>
<path fill="none" stroke="midnightblue" d="M263,-101.8C263,-92.91 263,-82.78 263,-75.75"/>
<polygon fill="midnightblue" stroke="midnightblue" points="259.5,-102.08 263,-112.08 266.5,-102.08 259.5,-102.08"/>
</g>
</g>
</svg>
