<?xml version="1.0" encoding="UTF-8" standalone="no"?>
<!DOCTYPE svg PUBLIC "-//W3C//DTD SVG 1.1//EN"
 "http://www.w3.org/Graphics/SVG/1.1/DTD/svg11.dtd">
<!-- Generated by graphviz version 2.43.0 (0)
 -->
<!-- Title: shard_edge.h Pages: 1 -->
<svg width="263pt" height="140pt"
 viewBox="0.00 0.00 263.00 140.00" xmlns="http://www.w3.org/2000/svg" xmlns:xlink="http://www.w3.org/1999/xlink">
<g id="graph0" class="graph" transform="scale(1 1) rotate(0) translate(4 136)">
<title>shard_edge.h</title>
<!-- Node1 -->
<g id="node1" class="node">
<title>Node1</title>
<g id="a_node1"><a xlink:title=" ">
<polygon fill="#bfbfbf" stroke="black" points="27.5,-112.5 27.5,-131.5 109.5,-131.5 109.5,-112.5 27.5,-112.5"/>
<text text-anchor="middle" x="68.5" y="-119.5" font-family="Helvetica,sans-Serif" font-size="10.00">shard_edge.h</text>
</a>
</g>
</g>
<!-- Node2 -->
<g id="node2" class="node">
<title>Node2</title>
<g id="a_node2"><a xlink:title=" ">
<polygon fill="none" stroke="#bfbfbf" points="0,-0.5 0,-19.5 53,-19.5 53,-0.5 0,-0.5"/>
<text text-anchor="middle" x="26.5" y="-7.5" font-family="Helvetica,sans-Serif" font-size="10.00">mbed.h</text>
</a>
</g>
</g>
<!-- Node1&#45;&gt;Node2 -->
<g id="edge1" class="edge">
<title>Node1&#45;&gt;Node2</title>
<path fill="none" stroke="midnightblue" d="M47.02,-112.36C32.11,-105.09 13.39,-93.12 4.5,-76 -3.53,-60.54 4.79,-41.53 13.41,-28.07"/>
<polygon fill="midnightblue" stroke="midnightblue" points="16.36,-29.95 19.22,-19.75 10.62,-25.95 16.36,-29.95"/>
</g>
<!-- Node3 -->
<g id="node3" class="node">
<title>Node3</title>
<g id="a_node3"><a xlink:href="../../db/d16/debug_8h.html" target="_top" xlink:title="The file defines debug macros.">
<polygon fill="none" stroke="black" points="13,-56.5 13,-75.5 124,-75.5 124,-56.5 13,-56.5"/>
<text text-anchor="middle" x="68.5" y="-63.5" font-family="Helvetica,sans-Serif" font-size="10.00">vitroio&#45;sdk/debug.h</text>
</a>
</g>
</g>
<!-- Node1&#45;&gt;Node3 -->
<g id="edge2" class="edge">
<title>Node1&#45;&gt;Node3</title>
<path fill="none" stroke="midnightblue" d="M68.5,-112.08C68.5,-105.01 68.5,-94.86 68.5,-85.99"/>
<polygon fill="midnightblue" stroke="midnightblue" points="72,-85.75 68.5,-75.75 65,-85.75 72,-85.75"/>
</g>
<!-- Node4 -->
<g id="node4" class="node">
<title>Node4</title>
<g id="a_node4"><a xlink:href="../../d8/db5/consts_8h.html" target="_top" xlink:title="The file contains constants of vitro&#45;shard&#45;sdk for user usage.">
<polygon fill="none" stroke="black" points="142,-56.5 142,-75.5 255,-75.5 255,-56.5 142,-56.5"/>
<text text-anchor="middle" x="198.5" y="-63.5" font-family="Helvetica,sans-Serif" font-size="10.00">vitroio&#45;sdk/consts.h</text>
</a>
</g>
</g>
<!-- Node1&#45;&gt;Node4 -->
<g id="edge4" class="edge">
<title>Node1&#45;&gt;Node4</title>
<path fill="none" stroke="midnightblue" d="M89.1,-112.44C110.49,-103.56 144.18,-89.56 168.52,-79.45"/>
<polygon fill="midnightblue" stroke="midnightblue" points="170.11,-82.58 178,-75.52 167.42,-76.12 170.11,-82.58"/>
</g>
<!-- Node3&#45;&gt;Node2 -->
<g id="edge3" class="edge">
<title>Node3&#45;&gt;Node2</title>
<path fill="none" stroke="midnightblue" d="M61.56,-56.08C55.57,-48.38 46.75,-37.03 39.45,-27.65"/>
<polygon fill="midnightblue" stroke="midnightblue" points="42.21,-25.5 33.31,-19.75 36.68,-29.79 42.21,-25.5"/>
</g>
</g>
</svg>
