<?xml version="1.0" encoding="UTF-8" standalone="no"?>
<!DOCTYPE svg PUBLIC "-//W3C//DTD SVG 1.1//EN"
 "http://www.w3.org/Graphics/SVG/1.1/DTD/svg11.dtd">
<!-- Generated by graphviz version 2.43.0 (0)
 -->
<!-- Title: timestamp Pages: 1 -->
<svg width="216pt" height="175pt"
 viewBox="0.00 0.00 216.00 175.00" xmlns="http://www.w3.org/2000/svg" xmlns:xlink="http://www.w3.org/1999/xlink">
<g id="graph0" class="graph" transform="scale(1 1) rotate(0) translate(4 171)">
<title>timestamp</title>
<g id="clust1" class="cluster">
<title>clusterdir_1918086ab82ff76dfcbecbd3bf960849</title>
<g id="a_clust1"><a xlink:href="dir_1918086ab82ff76dfcbecbd3bf960849.html" target="_top" xlink:title="vitroio&#45;sdk">
<polygon fill="#ddddee" stroke="black" points="8,-8 8,-159 200,-159 200,-8 8,-8"/>
<text text-anchor="middle" x="104" y="-147" font-family="Helvetica,sans-Serif" font-size="10.00">vitroio&#45;sdk</text>
</a>
</g>
</g>
<g id="clust2" class="cluster">
<title>clusterdir_e0f4023883594f4caf8c950438ec54ce</title>
<g id="a_clust2"><a xlink:href="dir_e0f4023883594f4caf8c950438ec54ce.html" target="_top">
<polygon fill="#eeeeff" stroke="black" points="30,-80 30,-132 188,-132 188,-80 30,-80"/>
</a>
</g>
</g>
<!-- dir_720fb6ebda74fdf7f1d6df9822158fde -->
<g id="node1" class="node">
<title>dir_720fb6ebda74fdf7f1d6df9822158fde</title>
<g id="a_node1"><a xlink:href="dir_720fb6ebda74fdf7f1d6df9822158fde.html" target="_top" xlink:title="communication">
<polygon fill="none" stroke="red" points="108,-52 16,-52 16,-16 108,-16 108,-52"/>
<text text-anchor="middle" x="62" y="-31.5" font-family="Helvetica,sans-Serif" font-size="10.00">communication</text>
</a>
</g>
</g>
<!-- dir_94697dbd99c254d1e152abd731be5c00 -->
<g id="node2" class="node">
<title>dir_94697dbd99c254d1e152abd731be5c00</title>
<g id="a_node2"><a xlink:href="dir_94697dbd99c254d1e152abd731be5c00.html" target="_top" xlink:title="interfaces">
<polygon fill="none" stroke="red" points="191.5,-52 126.5,-52 126.5,-16 191.5,-16 191.5,-52"/>
<text text-anchor="middle" x="159" y="-31.5" font-family="Helvetica,sans-Serif" font-size="10.00">interfaces</text>
</a>
</g>
</g>
<!-- dir_e0f4023883594f4caf8c950438ec54ce -->
<g id="node3" class="node">
<title>dir_e0f4023883594f4caf8c950438ec54ce</title>
<text text-anchor="middle" x="145" y="-103.5" font-family="Helvetica,sans-Serif" font-size="10.00">timestamp</text>
</g>
<!-- dir_4a1c0d952370d4cca81a1ea227fd9600 -->
<g id="node4" class="node">
<title>dir_4a1c0d952370d4cca81a1ea227fd9600</title>
<g id="a_node4"><a xlink:href="dir_4a1c0d952370d4cca81a1ea227fd9600.html" target="_top" xlink:title="impl">
<polygon fill="white" stroke="black" points="92,-124 38,-124 38,-88 92,-88 92,-124"/>
<text text-anchor="middle" x="65" y="-103.5" font-family="Helvetica,sans-Serif" font-size="10.00">impl</text>
</a>
</g>
</g>
<!-- dir_4a1c0d952370d4cca81a1ea227fd9600&#45;&gt;dir_720fb6ebda74fdf7f1d6df9822158fde -->
<g id="edge1" class="edge">
<title>dir_4a1c0d952370d4cca81a1ea227fd9600&#45;&gt;dir_720fb6ebda74fdf7f1d6df9822158fde</title>
<path fill="none" stroke="black" d="M64.26,-87.7C63.93,-79.98 63.53,-70.71 63.16,-62.11"/>
<polygon fill="black" stroke="black" points="66.66,-61.95 62.73,-52.1 59.66,-62.25 66.66,-61.95"/>
<g id="a_edge1&#45;headlabel"><a xlink:href="dir_000015_000001.html" target="_top" xlink:title="1">
<text text-anchor="middle" x="69.65" y="-62.92" font-family="Helvetica,sans-Serif" font-size="10.00">1</text>
</a>
</g>
</g>
<!-- dir_4a1c0d952370d4cca81a1ea227fd9600&#45;&gt;dir_94697dbd99c254d1e152abd731be5c00 -->
<g id="edge2" class="edge">
<title>dir_4a1c0d952370d4cca81a1ea227fd9600&#45;&gt;dir_94697dbd99c254d1e152abd731be5c00</title>
<path fill="none" stroke="black" d="M88.24,-87.7C100.19,-78.8 114.92,-67.82 127.85,-58.2"/>
<polygon fill="black" stroke="black" points="130.1,-60.88 136.03,-52.1 125.92,-55.27 130.1,-60.88"/>
<g id="a_edge2&#45;headlabel"><a xlink:href="dir_000015_000008.html" target="_top" xlink:title="1">
<text text-anchor="middle" x="128.91" y="-62.81" font-family="Helvetica,sans-Serif" font-size="10.00">1</text>
</a>
</g>
</g>
</g>
</svg>
