<?xml version="1.0" encoding="UTF-8" standalone="no"?>
<!DOCTYPE svg PUBLIC "-//W3C//DTD SVG 1.1//EN"
 "http://www.w3.org/Graphics/SVG/1.1/DTD/svg11.dtd">
<!-- Generated by graphviz version 2.43.0 (0)
 -->
<!-- Title: control Pages: 1 -->
<svg width="316pt" height="247pt"
 viewBox="0.00 0.00 316.00 247.00" xmlns="http://www.w3.org/2000/svg" xmlns:xlink="http://www.w3.org/1999/xlink">
<g id="graph0" class="graph" transform="scale(1 1) rotate(0) translate(4 243)">
<title>control</title>
<g id="clust1" class="cluster">
<title>clusterdir_1918086ab82ff76dfcbecbd3bf960849</title>
<g id="a_clust1"><a xlink:href="dir_1918086ab82ff76dfcbecbd3bf960849.html" target="_top" xlink:title="vitroio&#45;sdk">
<polygon fill="#ddddee" stroke="black" points="8,-8 8,-231 300,-231 300,-8 8,-8"/>
<text text-anchor="middle" x="154" y="-219" font-family="Helvetica,sans-Serif" font-size="10.00">vitroio&#45;sdk</text>
</a>
</g>
</g>
<g id="clust2" class="cluster">
<title>clusterdir_04c1a2fa2b718fdf901fafadafe93a80</title>
<g id="a_clust2"><a xlink:href="dir_04c1a2fa2b718fdf901fafadafe93a80.html" target="_top">
<polygon fill="#eeeeff" stroke="black" points="16,-80 16,-204 86,-204 86,-80 16,-80"/>
</a>
</g>
</g>
<!-- dir_720fb6ebda74fdf7f1d6df9822158fde -->
<g id="node1" class="node">
<title>dir_720fb6ebda74fdf7f1d6df9822158fde</title>
<g id="a_node1"><a xlink:href="dir_720fb6ebda74fdf7f1d6df9822158fde.html" target="_top" xlink:title="communication">
<polygon fill="none" stroke="red" points="188,-124 96,-124 96,-88 188,-88 188,-124"/>
<text text-anchor="middle" x="142" y="-103.5" font-family="Helvetica,sans-Serif" font-size="10.00">communication</text>
</a>
</g>
</g>
<!-- dir_94697dbd99c254d1e152abd731be5c00 -->
<g id="node2" class="node">
<title>dir_94697dbd99c254d1e152abd731be5c00</title>
<g id="a_node2"><a xlink:href="dir_94697dbd99c254d1e152abd731be5c00.html" target="_top" xlink:title="interfaces">
<polygon fill="none" stroke="red" points="271.5,-124 206.5,-124 206.5,-88 271.5,-88 271.5,-124"/>
<text text-anchor="middle" x="239" y="-103.5" font-family="Helvetica,sans-Serif" font-size="10.00">interfaces</text>
</a>
</g>
</g>
<!-- dir_efd177c10a2547dc57498f47a1b300e7 -->
<g id="node3" class="node">
<title>dir_efd177c10a2547dc57498f47a1b300e7</title>
<g id="a_node3"><a xlink:href="dir_efd177c10a2547dc57498f47a1b300e7.html" target="_top" xlink:title="utils">
<polygon fill="none" stroke="red" points="185,-52 131,-52 131,-16 185,-16 185,-52"/>
<text text-anchor="middle" x="158" y="-31.5" font-family="Helvetica,sans-Serif" font-size="10.00">utils</text>
</a>
</g>
</g>
<!-- dir_04c1a2fa2b718fdf901fafadafe93a80 -->
<g id="node4" class="node">
<title>dir_04c1a2fa2b718fdf901fafadafe93a80</title>
<text text-anchor="middle" x="51" y="-175.5" font-family="Helvetica,sans-Serif" font-size="10.00">control</text>
</g>
<!-- dir_04c1a2fa2b718fdf901fafadafe93a80&#45;&gt;dir_720fb6ebda74fdf7f1d6df9822158fde -->
<g id="edge2" class="edge">
<title>dir_04c1a2fa2b718fdf901fafadafe93a80&#45;&gt;dir_720fb6ebda74fdf7f1d6df9822158fde</title>
<path fill="none" stroke="black" d="M73.49,-159.7C84.96,-150.88 99.06,-140.03 111.48,-130.47"/>
<polygon fill="black" stroke="black" points="113.97,-132.98 119.76,-124.1 109.7,-127.43 113.97,-132.98"/>
<g id="a_edge2&#45;headlabel"><a xlink:href="dir_000013_000001.html" target="_top" xlink:title="2">
<text text-anchor="middle" x="112.85" y="-134.92" font-family="Helvetica,sans-Serif" font-size="10.00">2</text>
</a>
</g>
</g>
<!-- dir_04c1a2fa2b718fdf901fafadafe93a80&#45;&gt;dir_94697dbd99c254d1e152abd731be5c00 -->
<g id="edge4" class="edge">
<title>dir_04c1a2fa2b718fdf901fafadafe93a80&#45;&gt;dir_94697dbd99c254d1e152abd731be5c00</title>
<path fill="none" stroke="black" d="M78.02,-167.52C107.41,-157.14 155.71,-139.84 197,-124 197.1,-123.96 197.19,-123.93 197.29,-123.89"/>
<polygon fill="black" stroke="black" points="198.45,-127.19 206.49,-120.3 195.9,-120.67 198.45,-127.19"/>
<g id="a_edge4&#45;headlabel"><a xlink:href="dir_000013_000008.html" target="_top" xlink:title="2">
<text text-anchor="middle" x="196.13" y="-128.65" font-family="Helvetica,sans-Serif" font-size="10.00">2</text>
</a>
</g>
</g>
<!-- dir_04c1a2fa2b718fdf901fafadafe93a80&#45;&gt;dir_efd177c10a2547dc57498f47a1b300e7 -->
<g id="edge5" class="edge">
<title>dir_04c1a2fa2b718fdf901fafadafe93a80&#45;&gt;dir_efd177c10a2547dc57498f47a1b300e7</title>
<path fill="none" stroke="black" d="M78.01,-174.88C133.21,-169.94 255.87,-155.58 281,-124 293.18,-108.7 292.2,-96.03 281,-80 261.8,-52.53 223.93,-41.77 195.26,-37.59"/>
<polygon fill="black" stroke="black" points="195.52,-34.1 185.16,-36.33 194.65,-41.04 195.52,-34.1"/>
<g id="a_edge5&#45;headlabel"><a xlink:href="dir_000013_000004.html" target="_top" xlink:title="3">
<text text-anchor="middle" x="199.44" y="-29.23" font-family="Helvetica,sans-Serif" font-size="10.00">3</text>
</a>
</g>
</g>
<!-- dir_8b93c0b84373dd5e46ea3f3f89e539d9 -->
<g id="node5" class="node">
<title>dir_8b93c0b84373dd5e46ea3f3f89e539d9</title>
<g id="a_node5"><a xlink:href="dir_8b93c0b84373dd5e46ea3f3f89e539d9.html" target="_top" xlink:title="impl">
<polygon fill="white" stroke="black" points="78,-124 24,-124 24,-88 78,-88 78,-124"/>
<text text-anchor="middle" x="51" y="-103.5" font-family="Helvetica,sans-Serif" font-size="10.00">impl</text>
</a>
</g>
</g>
<!-- dir_04c1a2fa2b718fdf901fafadafe93a80&#45;&gt;dir_8b93c0b84373dd5e46ea3f3f89e539d9 -->
<g id="edge3" class="edge">
<title>dir_04c1a2fa2b718fdf901fafadafe93a80&#45;&gt;dir_8b93c0b84373dd5e46ea3f3f89e539d9</title>
<path fill="none" stroke="black" d="M51,-159.7C51,-151.98 51,-142.71 51,-134.11"/>
<polygon fill="black" stroke="black" points="54.5,-134.1 51,-124.1 47.5,-134.1 54.5,-134.1"/>
<g id="a_edge3&#45;headlabel"><a xlink:href="dir_000013_000016.html" target="_top" xlink:title="1">
<text text-anchor="middle" x="57.34" y="-135.2" font-family="Helvetica,sans-Serif" font-size="10.00">1</text>
</a>
</g>
</g>
<!-- dir_8b93c0b84373dd5e46ea3f3f89e539d9&#45;&gt;dir_efd177c10a2547dc57498f47a1b300e7 -->
<g id="edge1" class="edge">
<title>dir_8b93c0b84373dd5e46ea3f3f89e539d9&#45;&gt;dir_efd177c10a2547dc57498f47a1b300e7</title>
<path fill="none" stroke="black" d="M71.36,-87.9C74.84,-85.17 78.48,-82.44 82,-80 94.57,-71.28 108.89,-62.52 121.68,-55.08"/>
<polygon fill="black" stroke="black" points="123.75,-57.92 130.68,-49.91 120.26,-51.85 123.75,-57.92"/>
<g id="a_edge1&#45;headlabel"><a xlink:href="dir_000016_000004.html" target="_top" xlink:title="2">
<text text-anchor="middle" x="122.05" y="-59.68" font-family="Helvetica,sans-Serif" font-size="10.00">2</text>
</a>
</g>
</g>
</g>
</svg>
