<?xml version="1.0" encoding="UTF-8" standalone="no"?>
<!DOCTYPE svg PUBLIC "-//W3C//DTD SVG 1.1//EN"
 "http://www.w3.org/Graphics/SVG/1.1/DTD/svg11.dtd">
<!-- Generated by graphviz version 2.43.0 (0)
 -->
<!-- Title: vitroio&#45;sdk Pages: 1 -->
<svg width="588pt" height="220pt"
 viewBox="0.00 0.00 588.00 220.00" xmlns="http://www.w3.org/2000/svg" xmlns:xlink="http://www.w3.org/1999/xlink">
<g id="graph0" class="graph" transform="scale(1 1) rotate(0) translate(4 216)">
<title>vitroio&#45;sdk</title>
<g id="clust1" class="cluster">
<title>clusterdir_1918086ab82ff76dfcbecbd3bf960849</title>
<g id="a_clust1"><a xlink:href="dir_1918086ab82ff76dfcbecbd3bf960849.html" target="_top">
<polygon fill="#eeeeff" stroke="black" points="8,-8 8,-204 572,-204 572,-8 8,-8"/>
</a>
</g>
</g>
<!-- dir_1918086ab82ff76dfcbecbd3bf960849 -->
<g id="node1" class="node">
<title>dir_1918086ab82ff76dfcbecbd3bf960849</title>
<text text-anchor="middle" x="381" y="-175.5" font-family="Helvetica,sans-Serif" font-size="10.00">vitroio&#45;sdk</text>
</g>
<!-- dir_5a4a411fefbe1a96784d2420b3a10c03 -->
<g id="node6" class="node">
<title>dir_5a4a411fefbe1a96784d2420b3a10c03</title>
<g id="a_node6"><a xlink:href="dir_5a4a411fefbe1a96784d2420b3a10c03.html" target="_top" xlink:title="iot&#45;block&#45;api">
<polygon fill="white" stroke="red" points="94,-124 16,-124 16,-88 94,-88 94,-124"/>
<text text-anchor="middle" x="55" y="-103.5" font-family="Helvetica,sans-Serif" font-size="10.00">iot&#45;block&#45;api</text>
</a>
</g>
</g>
<!-- dir_1918086ab82ff76dfcbecbd3bf960849&#45;&gt;dir_5a4a411fefbe1a96784d2420b3a10c03 -->
<g id="edge8" class="edge">
<title>dir_1918086ab82ff76dfcbecbd3bf960849&#45;&gt;dir_5a4a411fefbe1a96784d2420b3a10c03</title>
<path fill="none" stroke="black" d="M346.38,-172.13C295.22,-164.56 196.37,-148.51 103.93,-124.04"/>
<polygon fill="black" stroke="black" points="104.71,-120.62 94.14,-121.41 102.89,-127.38 104.71,-120.62"/>
<g id="a_edge8&#45;headlabel"><a xlink:href="dir_000000_000006.html" target="_top" xlink:title="1">
<text text-anchor="middle" x="108.91" y="-116.31" font-family="Helvetica,sans-Serif" font-size="10.00">1</text>
</a>
</g>
</g>
<!-- dir_9a6fa982dc3f5914135c85b79c45ae0c -->
<g id="node7" class="node">
<title>dir_9a6fa982dc3f5914135c85b79c45ae0c</title>
<g id="a_node7"><a xlink:href="dir_9a6fa982dc3f5914135c85b79c45ae0c.html" target="_top" xlink:title="measurement&#45;api">
<polygon fill="white" stroke="black" points="376,-124 272,-124 272,-88 376,-88 376,-124"/>
<text text-anchor="middle" x="324" y="-103.5" font-family="Helvetica,sans-Serif" font-size="10.00">measurement&#45;api</text>
</a>
</g>
</g>
<!-- dir_1918086ab82ff76dfcbecbd3bf960849&#45;&gt;dir_9a6fa982dc3f5914135c85b79c45ae0c -->
<g id="edge9" class="edge">
<title>dir_1918086ab82ff76dfcbecbd3bf960849&#45;&gt;dir_9a6fa982dc3f5914135c85b79c45ae0c</title>
<path fill="none" stroke="black" d="M366.91,-159.7C360.08,-151.3 351.74,-141.07 344.24,-131.86"/>
<polygon fill="black" stroke="black" points="346.96,-129.65 337.93,-124.1 341.53,-134.07 346.96,-129.65"/>
<g id="a_edge9&#45;headlabel"><a xlink:href="dir_000000_000003.html" target="_top" xlink:title="3">
<text text-anchor="middle" x="351.43" y="-128.14" font-family="Helvetica,sans-Serif" font-size="10.00">3</text>
</a>
</g>
</g>
<!-- dir_e8390feb699cf855b6edad18c73d27f3 -->
<g id="node8" class="node">
<title>dir_e8390feb699cf855b6edad18c73d27f3</title>
<g id="a_node8"><a xlink:href="dir_e8390feb699cf855b6edad18c73d27f3.html" target="_top" xlink:title="shard&#45;edge&#45;lib">
<polygon fill="white" stroke="red" points="481.5,-124 394.5,-124 394.5,-88 481.5,-88 481.5,-124"/>
<text text-anchor="middle" x="438" y="-103.5" font-family="Helvetica,sans-Serif" font-size="10.00">shard&#45;edge&#45;lib</text>
</a>
</g>
</g>
<!-- dir_1918086ab82ff76dfcbecbd3bf960849&#45;&gt;dir_e8390feb699cf855b6edad18c73d27f3 -->
<g id="edge10" class="edge">
<title>dir_1918086ab82ff76dfcbecbd3bf960849&#45;&gt;dir_e8390feb699cf855b6edad18c73d27f3</title>
<path fill="none" stroke="black" d="M395.09,-159.7C401.92,-151.3 410.26,-141.07 417.76,-131.86"/>
<polygon fill="black" stroke="black" points="420.47,-134.07 424.07,-124.1 415.04,-129.65 420.47,-134.07"/>
<g id="a_edge10&#45;headlabel"><a xlink:href="dir_000000_000010.html" target="_top" xlink:title="1">
<text text-anchor="middle" x="420.4" y="-136.15" font-family="Helvetica,sans-Serif" font-size="10.00">1</text>
</a>
</g>
</g>
<!-- dir_333909d48ae39ed5b2470a0f9c7fbc2d -->
<g id="node11" class="node">
<title>dir_333909d48ae39ed5b2470a0f9c7fbc2d</title>
<g id="a_node11"><a xlink:href="dir_333909d48ae39ed5b2470a0f9c7fbc2d.html" target="_top" xlink:title="watchdog">
<polygon fill="white" stroke="black" points="564,-124 500,-124 500,-88 564,-88 564,-124"/>
<text text-anchor="middle" x="532" y="-103.5" font-family="Helvetica,sans-Serif" font-size="10.00">watchdog</text>
</a>
</g>
</g>
<!-- dir_1918086ab82ff76dfcbecbd3bf960849&#45;&gt;dir_333909d48ae39ed5b2470a0f9c7fbc2d -->
<g id="edge7" class="edge">
<title>dir_1918086ab82ff76dfcbecbd3bf960849&#45;&gt;dir_333909d48ae39ed5b2470a0f9c7fbc2d</title>
<path fill="none" stroke="black" d="M415.64,-160.94C437.91,-150.62 466.97,-137.15 490.47,-126.25"/>
<polygon fill="black" stroke="black" points="492.24,-129.29 499.84,-121.91 489.3,-122.94 492.24,-129.29"/>
<g id="a_edge7&#45;headlabel"><a xlink:href="dir_000000_000017.html" target="_top" xlink:title="1">
<text text-anchor="middle" x="490.17" y="-130.88" font-family="Helvetica,sans-Serif" font-size="10.00">1</text>
</a>
</g>
</g>
<!-- dir_720fb6ebda74fdf7f1d6df9822158fde -->
<g id="node2" class="node">
<title>dir_720fb6ebda74fdf7f1d6df9822158fde</title>
<g id="a_node2"><a xlink:href="dir_720fb6ebda74fdf7f1d6df9822158fde.html" target="_top" xlink:title="communication">
<polygon fill="white" stroke="red" points="176,-52 84,-52 84,-16 176,-16 176,-52"/>
<text text-anchor="middle" x="130" y="-31.5" font-family="Helvetica,sans-Serif" font-size="10.00">communication</text>
</a>
</g>
</g>
<!-- dir_04c1a2fa2b718fdf901fafadafe93a80 -->
<g id="node3" class="node">
<title>dir_04c1a2fa2b718fdf901fafadafe93a80</title>
<g id="a_node3"><a xlink:href="dir_04c1a2fa2b718fdf901fafadafe93a80.html" target="_top" xlink:title="control">
<polygon fill="white" stroke="red" points="254,-124 200,-124 200,-88 254,-88 254,-124"/>
<text text-anchor="middle" x="227" y="-103.5" font-family="Helvetica,sans-Serif" font-size="10.00">control</text>
</a>
</g>
</g>
<!-- dir_04c1a2fa2b718fdf901fafadafe93a80&#45;&gt;dir_720fb6ebda74fdf7f1d6df9822158fde -->
<g id="edge2" class="edge">
<title>dir_04c1a2fa2b718fdf901fafadafe93a80&#45;&gt;dir_720fb6ebda74fdf7f1d6df9822158fde</title>
<path fill="none" stroke="black" d="M203.02,-87.7C190.69,-78.8 175.48,-67.82 162.15,-58.2"/>
<polygon fill="black" stroke="black" points="163.86,-55.12 153.7,-52.1 159.76,-60.79 163.86,-55.12"/>
<g id="a_edge2&#45;headlabel"><a xlink:href="dir_000013_000001.html" target="_top" xlink:title="2">
<text text-anchor="middle" x="168.44" y="-52.42" font-family="Helvetica,sans-Serif" font-size="10.00">2</text>
</a>
</g>
</g>
<!-- dir_94697dbd99c254d1e152abd731be5c00 -->
<g id="node5" class="node">
<title>dir_94697dbd99c254d1e152abd731be5c00</title>
<g id="a_node5"><a xlink:href="dir_94697dbd99c254d1e152abd731be5c00.html" target="_top" xlink:title="interfaces">
<polygon fill="white" stroke="red" points="259.5,-52 194.5,-52 194.5,-16 259.5,-16 259.5,-52"/>
<text text-anchor="middle" x="227" y="-31.5" font-family="Helvetica,sans-Serif" font-size="10.00">interfaces</text>
</a>
</g>
</g>
<!-- dir_04c1a2fa2b718fdf901fafadafe93a80&#45;&gt;dir_94697dbd99c254d1e152abd731be5c00 -->
<g id="edge3" class="edge">
<title>dir_04c1a2fa2b718fdf901fafadafe93a80&#45;&gt;dir_94697dbd99c254d1e152abd731be5c00</title>
<path fill="none" stroke="black" d="M227,-87.7C227,-79.98 227,-70.71 227,-62.11"/>
<polygon fill="black" stroke="black" points="230.5,-62.1 227,-52.1 223.5,-62.1 230.5,-62.1"/>
<g id="a_edge3&#45;headlabel"><a xlink:href="dir_000013_000008.html" target="_top" xlink:title="2">
<text text-anchor="middle" x="233.34" y="-63.2" font-family="Helvetica,sans-Serif" font-size="10.00">2</text>
</a>
</g>
</g>
<!-- dir_efd177c10a2547dc57498f47a1b300e7 -->
<g id="node10" class="node">
<title>dir_efd177c10a2547dc57498f47a1b300e7</title>
<g id="a_node10"><a xlink:href="dir_efd177c10a2547dc57498f47a1b300e7.html" target="_top" xlink:title="utils">
<polygon fill="white" stroke="red" points="341,-52 287,-52 287,-16 341,-16 341,-52"/>
<text text-anchor="middle" x="314" y="-31.5" font-family="Helvetica,sans-Serif" font-size="10.00">utils</text>
</a>
</g>
</g>
<!-- dir_04c1a2fa2b718fdf901fafadafe93a80&#45;&gt;dir_efd177c10a2547dc57498f47a1b300e7 -->
<g id="edge4" class="edge">
<title>dir_04c1a2fa2b718fdf901fafadafe93a80&#45;&gt;dir_efd177c10a2547dc57498f47a1b300e7</title>
<path fill="none" stroke="black" d="M248.51,-87.7C259.46,-78.88 272.95,-68.03 284.82,-58.47"/>
<polygon fill="black" stroke="black" points="287.14,-61.1 292.74,-52.1 282.76,-55.65 287.14,-61.1"/>
<g id="a_edge4&#45;headlabel"><a xlink:href="dir_000013_000004.html" target="_top" xlink:title="3">
<text text-anchor="middle" x="286.12" y="-63.07" font-family="Helvetica,sans-Serif" font-size="10.00">3</text>
</a>
</g>
</g>
<!-- dir_c478583d4404044b3a6875b75fa889eb -->
<g id="node4" class="node">
<title>dir_c478583d4404044b3a6875b75fa889eb</title>
<g id="a_node4"><a xlink:href="dir_c478583d4404044b3a6875b75fa889eb.html" target="_top" xlink:title="doc">
<polygon fill="white" stroke="black" points="228,-196 174,-196 174,-160 228,-160 228,-196"/>
<text text-anchor="middle" x="201" y="-175.5" font-family="Helvetica,sans-Serif" font-size="10.00">doc</text>
</a>
</g>
</g>
<!-- dir_5a4a411fefbe1a96784d2420b3a10c03&#45;&gt;dir_720fb6ebda74fdf7f1d6df9822158fde -->
<g id="edge11" class="edge">
<title>dir_5a4a411fefbe1a96784d2420b3a10c03&#45;&gt;dir_720fb6ebda74fdf7f1d6df9822158fde</title>
<path fill="none" stroke="black" d="M73.54,-87.7C82.8,-79.05 94.16,-68.45 104.26,-59.03"/>
<polygon fill="black" stroke="black" points="106.75,-61.49 111.67,-52.1 101.98,-56.37 106.75,-61.49"/>
<g id="a_edge11&#45;headlabel"><a xlink:href="dir_000006_000001.html" target="_top" xlink:title="2">
<text text-anchor="middle" x="106.06" y="-63.51" font-family="Helvetica,sans-Serif" font-size="10.00">2</text>
</a>
</g>
</g>
<!-- dir_9a6fa982dc3f5914135c85b79c45ae0c&#45;&gt;dir_efd177c10a2547dc57498f47a1b300e7 -->
<g id="edge1" class="edge">
<title>dir_9a6fa982dc3f5914135c85b79c45ae0c&#45;&gt;dir_efd177c10a2547dc57498f47a1b300e7</title>
<path fill="none" stroke="black" d="M321.53,-87.7C320.43,-79.98 319.1,-70.71 317.87,-62.11"/>
<polygon fill="black" stroke="black" points="321.32,-61.51 316.44,-52.1 314.39,-62.5 321.32,-61.51"/>
<g id="a_edge1&#45;headlabel"><a xlink:href="dir_000003_000004.html" target="_top" xlink:title="1">
<text text-anchor="middle" x="324.64" y="-62.17" font-family="Helvetica,sans-Serif" font-size="10.00">1</text>
</a>
</g>
</g>
<!-- dir_e0f4023883594f4caf8c950438ec54ce -->
<g id="node9" class="node">
<title>dir_e0f4023883594f4caf8c950438ec54ce</title>
<g id="a_node9"><a xlink:href="dir_e0f4023883594f4caf8c950438ec54ce.html" target="_top" xlink:title="timestamp">
<polygon fill="white" stroke="red" points="182,-124 112,-124 112,-88 182,-88 182,-124"/>
<text text-anchor="middle" x="147" y="-103.5" font-family="Helvetica,sans-Serif" font-size="10.00">timestamp</text>
</a>
</g>
</g>
<!-- dir_e0f4023883594f4caf8c950438ec54ce&#45;&gt;dir_720fb6ebda74fdf7f1d6df9822158fde -->
<g id="edge5" class="edge">
<title>dir_e0f4023883594f4caf8c950438ec54ce&#45;&gt;dir_720fb6ebda74fdf7f1d6df9822158fde</title>
<path fill="none" stroke="black" d="M142.8,-87.7C140.9,-79.9 138.62,-70.51 136.52,-61.83"/>
<polygon fill="black" stroke="black" points="139.92,-61 134.15,-52.1 133.11,-62.65 139.92,-61"/>
<g id="a_edge5&#45;headlabel"><a xlink:href="dir_000014_000001.html" target="_top" xlink:title="1">
<text text-anchor="middle" x="143.52" y="-61.32" font-family="Helvetica,sans-Serif" font-size="10.00">1</text>
</a>
</g>
</g>
<!-- dir_e0f4023883594f4caf8c950438ec54ce&#45;&gt;dir_94697dbd99c254d1e152abd731be5c00 -->
<g id="edge6" class="edge">
<title>dir_e0f4023883594f4caf8c950438ec54ce&#45;&gt;dir_94697dbd99c254d1e152abd731be5c00</title>
<path fill="none" stroke="black" d="M166.78,-87.7C176.75,-78.97 189.01,-68.24 199.86,-58.75"/>
<polygon fill="black" stroke="black" points="202.23,-61.32 207.45,-52.1 197.62,-56.06 202.23,-61.32"/>
<g id="a_edge6&#45;headlabel"><a xlink:href="dir_000014_000008.html" target="_top" xlink:title="1">
<text text-anchor="middle" x="201.4" y="-63.33" font-family="Helvetica,sans-Serif" font-size="10.00">1</text>
</a>
</g>
</g>
</g>
</svg>
