<?xml version="1.0" encoding="UTF-8" standalone="no"?>
<!DOCTYPE svg PUBLIC "-//W3C//DTD SVG 1.1//EN"
 "http://www.w3.org/Graphics/SVG/1.1/DTD/svg11.dtd">
<!-- Generated by graphviz version 2.43.0 (0)
 -->
<!-- Title: impl Pages: 1 -->
<svg width="184pt" height="151pt"
 viewBox="0.00 0.00 183.50 151.00" xmlns="http://www.w3.org/2000/svg" xmlns:xlink="http://www.w3.org/1999/xlink">
<g id="graph0" class="graph" transform="scale(1 1) rotate(0) translate(4 147)">
<title>impl</title>
<g id="clust1" class="cluster">
<title>clusterdir_e0f4023883594f4caf8c950438ec54ce</title>
<g id="a_clust1"><a xlink:href="dir_e0f4023883594f4caf8c950438ec54ce.html" target="_top" xlink:title="timestamp">
<polygon fill="#ddddee" stroke="black" points="59,-64 59,-135 129,-135 129,-64 59,-64"/>
<text text-anchor="middle" x="94" y="-123" font-family="Helvetica,sans-Serif" font-size="10.00">timestamp</text>
</a>
</g>
</g>
<!-- dir_4a1c0d952370d4cca81a1ea227fd9600 -->
<g id="node1" class="node">
<title>dir_4a1c0d952370d4cca81a1ea227fd9600</title>
<g id="a_node1"><a xlink:href="dir_4a1c0d952370d4cca81a1ea227fd9600.html" target="_top" xlink:title="impl">
<polygon fill="#eeeeff" stroke="black" points="121,-108 67,-108 67,-72 121,-72 121,-108"/>
<text text-anchor="middle" x="94" y="-87.5" font-family="Helvetica,sans-Serif" font-size="10.00">impl</text>
</a>
</g>
</g>
<!-- dir_720fb6ebda74fdf7f1d6df9822158fde -->
<g id="node2" class="node">
<title>dir_720fb6ebda74fdf7f1d6df9822158fde</title>
<g id="a_node2"><a xlink:href="dir_720fb6ebda74fdf7f1d6df9822158fde.html" target="_top" xlink:title="communication">
<polygon fill="none" stroke="red" points="92,-36 0,-36 0,0 92,0 92,-36"/>
<text text-anchor="middle" x="46" y="-15.5" font-family="Helvetica,sans-Serif" font-size="10.00">communication</text>
</a>
</g>
</g>
<!-- dir_4a1c0d952370d4cca81a1ea227fd9600&#45;&gt;dir_720fb6ebda74fdf7f1d6df9822158fde -->
<g id="edge1" class="edge">
<title>dir_4a1c0d952370d4cca81a1ea227fd9600&#45;&gt;dir_720fb6ebda74fdf7f1d6df9822158fde</title>
<path fill="none" stroke="black" d="M82.13,-71.7C76.5,-63.47 69.65,-53.48 63.43,-44.42"/>
<polygon fill="black" stroke="black" points="66.27,-42.37 57.73,-36.1 60.5,-46.33 66.27,-42.37"/>
<g id="a_edge1&#45;headlabel"><a xlink:href="dir_000015_000001.html" target="_top" xlink:title="1">
<text text-anchor="middle" x="70.65" y="-41.23" font-family="Helvetica,sans-Serif" font-size="10.00">1</text>
</a>
</g>
</g>
<!-- dir_94697dbd99c254d1e152abd731be5c00 -->
<g id="node3" class="node">
<title>dir_94697dbd99c254d1e152abd731be5c00</title>
<g id="a_node3"><a xlink:href="dir_94697dbd99c254d1e152abd731be5c00.html" target="_top" xlink:title="interfaces">
<polygon fill="none" stroke="red" points="175.5,-36 110.5,-36 110.5,0 175.5,0 175.5,-36"/>
<text text-anchor="middle" x="143" y="-15.5" font-family="Helvetica,sans-Serif" font-size="10.00">interfaces</text>
</a>
</g>
</g>
<!-- dir_4a1c0d952370d4cca81a1ea227fd9600&#45;&gt;dir_94697dbd99c254d1e152abd731be5c00 -->
<g id="edge2" class="edge">
<title>dir_4a1c0d952370d4cca81a1ea227fd9600&#45;&gt;dir_94697dbd99c254d1e152abd731be5c00</title>
<path fill="none" stroke="black" d="M106.11,-71.7C111.87,-63.47 118.86,-53.48 125.21,-44.42"/>
<polygon fill="black" stroke="black" points="128.16,-46.3 131.03,-36.1 122.42,-42.29 128.16,-46.3"/>
<g id="a_edge2&#45;headlabel"><a xlink:href="dir_000015_000008.html" target="_top" xlink:title="1">
<text text-anchor="middle" x="128.42" y="-48.38" font-family="Helvetica,sans-Serif" font-size="10.00">1</text>
</a>
</g>
</g>
</g>
</svg>
