<?xml version="1.0" encoding="UTF-8" standalone="no"?>
<!DOCTYPE svg PUBLIC "-//W3C//DTD SVG 1.1//EN"
 "http://www.w3.org/Graphics/SVG/1.1/DTD/svg11.dtd">
<!-- Generated by graphviz version 2.43.0 (0)
 -->
<!-- Title: Graphical Class Hierarchy Pages: 1 -->
<svg width="277pt" height="362pt"
 viewBox="0.00 0.00 277.00 362.00" xmlns="http://www.w3.org/2000/svg" xmlns:xlink="http://www.w3.org/1999/xlink">
<g id="graph0" class="graph" transform="scale(1 1) rotate(0) translate(4 358)">
<title>Graphical Class Hierarchy</title>
<!-- Node17 -->
<g id="node1" class="node">
<title>Node17</title>
<g id="a_node1"><a xlink:title=" ">
<polygon fill="none" stroke="#bfbfbf" points="0,-175 0,-194 82,-194 82,-175 0,-175"/>
<text text-anchor="middle" x="41" y="-182" font-family="Helvetica,sans-Serif" font-size="10.00">NonCopyable</text>
</a>
</g>
</g>
<!-- Node0 -->
<g id="node2" class="node">
<title>Node0</title>
<g id="a_node2"><a xlink:href="d0/d0a/classvitroio_1_1sdk_1_1impl_1_1ScopedPtr.html" target="_top" xlink:title=" ">
<polygon fill="none" stroke="black" points="129.5,-323.5 129.5,-353.5 257.5,-353.5 257.5,-323.5 129.5,-323.5"/>
<text text-anchor="start" x="137.5" y="-341.5" font-family="Helvetica,sans-Serif" font-size="10.00">vitroio::sdk::impl</text>
<text text-anchor="middle" x="193.5" y="-330.5" font-family="Helvetica,sans-Serif" font-size="10.00">::ScopedPtr&lt; Thread &gt;</text>
</a>
</g>
</g>
<!-- Node17&#45;&gt;Node0 -->
<g id="edge1" class="edge">
<title>Node17&#45;&gt;Node0</title>
<path fill="none" stroke="#8b1a1a" d="M48.35,-203.65C58.62,-231.72 81.47,-283.89 118,-313.5 122.77,-317.37 128.16,-320.64 133.82,-323.42"/>
<polygon fill="#8b1a1a" stroke="#8b1a1a" points="51.64,-202.45 45.03,-194.17 45.04,-204.77 51.64,-202.45"/>
</g>
<!-- Node19 -->
<g id="node3" class="node">
<title>Node19</title>
<g id="a_node3"><a xlink:href="da/d0e/classvitroio_1_1sdk_1_1Canbus.html" target="_top" xlink:title="Class is a wrapper for mbed::CAN class and provides interface for CanbusFrame type.">
<polygon fill="none" stroke="black" points="137,-285 137,-304 250,-304 250,-285 137,-285"/>
<text text-anchor="middle" x="193.5" y="-292" font-family="Helvetica,sans-Serif" font-size="10.00">vitroio::sdk::Canbus</text>
</a>
</g>
</g>
<!-- Node17&#45;&gt;Node19 -->
<g id="edge2" class="edge">
<title>Node17&#45;&gt;Node19</title>
<path fill="none" stroke="#8b1a1a" d="M52.52,-203.03C65.3,-223.84 88.84,-257.12 118,-275.5 124.21,-279.41 131.19,-282.52 138.33,-284.99"/>
<polygon fill="#8b1a1a" stroke="#8b1a1a" points="55.38,-201 47.27,-194.18 49.36,-204.57 55.38,-201"/>
</g>
<!-- Node20 -->
<g id="node4" class="node">
<title>Node20</title>
<g id="a_node4"><a xlink:href="d6/d19/classvitroio_1_1sdk_1_1MeasurementApi.html" target="_top" xlink:title="Class is responsible for cycling readings of measurement data using registered sensors.">
<polygon fill="none" stroke="black" points="121,-235.5 121,-265.5 266,-265.5 266,-235.5 121,-235.5"/>
<text text-anchor="start" x="129" y="-253.5" font-family="Helvetica,sans-Serif" font-size="10.00">vitroio::sdk::Measurement</text>
<text text-anchor="middle" x="193.5" y="-242.5" font-family="Helvetica,sans-Serif" font-size="10.00">Api&lt; MaxParams &gt;</text>
</a>
</g>
</g>
<!-- Node17&#45;&gt;Node20 -->
<g id="edge3" class="edge">
<title>Node17&#45;&gt;Node20</title>
<path fill="none" stroke="#8b1a1a" d="M66.81,-199.28C81.4,-207.62 100.4,-217.87 118,-225.5 126.14,-229.03 134.94,-232.38 143.56,-235.41"/>
<polygon fill="#8b1a1a" stroke="#8b1a1a" points="68.32,-196.11 57.91,-194.12 64.8,-202.16 68.32,-196.11"/>
</g>
<!-- Node21 -->
<g id="node5" class="node">
<title>Node21</title>
<g id="a_node5"><a xlink:href="d0/dc8/classvitroio_1_1sdk_1_1NodeController.html" target="_top" xlink:title="Class is a main component of the node firmware.">
<polygon fill="none" stroke="black" points="118,-197 118,-216 269,-216 269,-197 118,-197"/>
<text text-anchor="middle" x="193.5" y="-204" font-family="Helvetica,sans-Serif" font-size="10.00">vitroio::sdk::NodeController</text>
</a>
</g>
</g>
<!-- Node17&#45;&gt;Node21 -->
<g id="edge4" class="edge">
<title>Node17&#45;&gt;Node21</title>
<path fill="none" stroke="#8b1a1a" d="M92.37,-191.86C103.58,-193.5 115.63,-195.26 127.35,-196.98"/>
<polygon fill="#8b1a1a" stroke="#8b1a1a" points="92.73,-188.38 82.33,-190.4 91.72,-195.31 92.73,-188.38"/>
</g>
<!-- Node22 -->
<g id="node6" class="node">
<title>Node22</title>
<g id="a_node6"><a xlink:href="d2/d9c/classvitroio_1_1sdk_1_1impl_1_1EnvironmentInterface.html" target="_top" xlink:title="Class is wrapper for FlashInterface. It allows to read/write environment variables stored in flash me...">
<polygon fill="none" stroke="black" points="129.5,-147.5 129.5,-177.5 257.5,-177.5 257.5,-147.5 129.5,-147.5"/>
<text text-anchor="start" x="137.5" y="-165.5" font-family="Helvetica,sans-Serif" font-size="10.00">vitroio::sdk::impl</text>
<text text-anchor="middle" x="193.5" y="-154.5" font-family="Helvetica,sans-Serif" font-size="10.00">::EnvironmentInterface</text>
</a>
</g>
</g>
<!-- Node17&#45;&gt;Node22 -->
<g id="edge5" class="edge">
<title>Node17&#45;&gt;Node22</title>
<path fill="none" stroke="#8b1a1a" d="M92.46,-177.12C104.3,-175.39 117.05,-173.53 129.37,-171.73"/>
<polygon fill="#8b1a1a" stroke="#8b1a1a" points="91.72,-173.69 82.33,-178.6 92.73,-180.62 91.72,-173.69"/>
</g>
<!-- Node23 -->
<g id="node7" class="node">
<title>Node23</title>
<g id="a_node7"><a xlink:href="d8/d38/classvitroio_1_1sdk_1_1impl_1_1FlashInterface.html" target="_top" xlink:title="Class is a wrapper for mbed::FlashIAP module.">
<polygon fill="none" stroke="black" points="144,-98.5 144,-128.5 243,-128.5 243,-98.5 144,-98.5"/>
<text text-anchor="start" x="152" y="-116.5" font-family="Helvetica,sans-Serif" font-size="10.00">vitroio::sdk::impl</text>
<text text-anchor="middle" x="193.5" y="-105.5" font-family="Helvetica,sans-Serif" font-size="10.00">::FlashInterface</text>
</a>
</g>
</g>
<!-- Node17&#45;&gt;Node23 -->
<g id="edge6" class="edge">
<title>Node17&#45;&gt;Node23</title>
<path fill="none" stroke="#8b1a1a" d="M64.23,-169.25C79.01,-159.57 99.11,-147.25 118,-138.5 126.17,-134.71 135.08,-131.22 143.8,-128.11"/>
<polygon fill="#8b1a1a" stroke="#8b1a1a" points="62.15,-166.43 55.77,-174.88 66.04,-172.25 62.15,-166.43"/>
</g>
<!-- Node24 -->
<g id="node8" class="node">
<title>Node24</title>
<g id="a_node8"><a xlink:href="d0/d0a/classvitroio_1_1sdk_1_1impl_1_1ScopedPtr.html" target="_top" xlink:title=" ">
<polygon fill="none" stroke="black" points="143.5,-49.5 143.5,-79.5 243.5,-79.5 243.5,-49.5 143.5,-49.5"/>
<text text-anchor="start" x="151.5" y="-67.5" font-family="Helvetica,sans-Serif" font-size="10.00">vitroio::sdk::impl</text>
<text text-anchor="middle" x="193.5" y="-56.5" font-family="Helvetica,sans-Serif" font-size="10.00">::ScopedPtr&lt; T &gt;</text>
</a>
</g>
</g>
<!-- Node17&#45;&gt;Node24 -->
<g id="edge7" class="edge">
<title>Node17&#45;&gt;Node24</title>
<path fill="none" stroke="#8b1a1a" d="M52.21,-166.16C64.96,-144.84 88.72,-109.96 118,-89.5 125.6,-84.19 134.43,-79.93 143.28,-76.55"/>
<polygon fill="#8b1a1a" stroke="#8b1a1a" points="49.12,-164.5 47.14,-174.91 55.18,-168.01 49.12,-164.5"/>
</g>
<!-- Node25 -->
<g id="node9" class="node">
<title>Node25</title>
<g id="a_node9"><a xlink:href="db/d78/classvitroio_1_1sdk_1_1impl_1_1UpgradeController.html" target="_top" xlink:title="Class is responsible for handling upgrade data.">
<polygon fill="none" stroke="black" points="137.5,-0.5 137.5,-30.5 249.5,-30.5 249.5,-0.5 137.5,-0.5"/>
<text text-anchor="start" x="145.5" y="-18.5" font-family="Helvetica,sans-Serif" font-size="10.00">vitroio::sdk::impl</text>
<text text-anchor="middle" x="193.5" y="-7.5" font-family="Helvetica,sans-Serif" font-size="10.00">::UpgradeController</text>
</a>
</g>
</g>
<!-- Node17&#45;&gt;Node25 -->
<g id="edge8" class="edge">
<title>Node17&#45;&gt;Node25</title>
<path fill="none" stroke="#8b1a1a" d="M47.19,-164.91C56.36,-134.07 78.29,-74.25 118,-40.5 123.72,-35.64 130.42,-31.72 137.41,-28.55"/>
<polygon fill="#8b1a1a" stroke="#8b1a1a" points="43.74,-164.28 44.39,-174.86 50.47,-166.18 43.74,-164.28"/>
</g>
</g>
</svg>
