<?xml version="1.0" encoding="UTF-8" standalone="no"?>
<!DOCTYPE svg PUBLIC "-//W3C//DTD SVG 1.1//EN"
 "http://www.w3.org/Graphics/SVG/1.1/DTD/svg11.dtd">
<!-- Generated by graphviz version 2.43.0 (0)
 -->
<!-- Title: canbus.h Pages: 1 -->
<svg width="204pt" height="140pt"
 viewBox="0.00 0.00 204.00 140.00" xmlns="http://www.w3.org/2000/svg" xmlns:xlink="http://www.w3.org/1999/xlink">
<g id="graph0" class="graph" transform="scale(1 1) rotate(0) translate(4 136)">
<title>canbus.h</title>
<!-- Node1 -->
<g id="node1" class="node">
<title>Node1</title>
<g id="a_node1"><a xlink:title=" ">
<polygon fill="#bfbfbf" stroke="black" points="70,-112.5 70,-131.5 130,-131.5 130,-112.5 70,-112.5"/>
<text text-anchor="middle" x="100" y="-119.5" font-family="Helvetica,sans-Serif" font-size="10.00">canbus.h</text>
</a>
</g>
</g>
<!-- Node2 -->
<g id="node2" class="node">
<title>Node2</title>
<g id="a_node2"><a xlink:href="../../df/dce/can__layer_8h.html" target="_top" xlink:title=" ">
<polygon fill="none" stroke="black" points="0,-56.5 0,-75.5 72,-75.5 72,-56.5 0,-56.5"/>
<text text-anchor="middle" x="36" y="-63.5" font-family="Helvetica,sans-Serif" font-size="10.00">can_layer.h</text>
</a>
</g>
</g>
<!-- Node1&#45;&gt;Node2 -->
<g id="edge1" class="edge">
<title>Node1&#45;&gt;Node2</title>
<path fill="none" stroke="midnightblue" d="M82.01,-105.82C70.54,-96.15 56.09,-83.95 46.47,-75.83"/>
<polygon fill="midnightblue" stroke="midnightblue" points="79.82,-108.55 89.72,-112.32 84.33,-103.2 79.82,-108.55"/>
</g>
<!-- Node3 -->
<g id="node3" class="node">
<title>Node3</title>
<g id="a_node3"><a xlink:href="../../d4/d3e/shard-sdk_8h.html" target="_top" xlink:title=" ">
<polygon fill="none" stroke="black" points="63,-0.5 63,-19.5 137,-19.5 137,-0.5 63,-0.5"/>
<text text-anchor="middle" x="100" y="-7.5" font-family="Helvetica,sans-Serif" font-size="10.00">shard&#45;sdk.h</text>
</a>
</g>
</g>
<!-- Node1&#45;&gt;Node3 -->
<g id="edge5" class="edge">
<title>Node1&#45;&gt;Node3</title>
<path fill="none" stroke="midnightblue" d="M100,-102.35C100,-78.25 100,-37.31 100,-19.59"/>
<polygon fill="midnightblue" stroke="midnightblue" points="96.5,-102.37 100,-112.37 103.5,-102.37 96.5,-102.37"/>
</g>
<!-- Node4 -->
<g id="node4" class="node">
<title>Node4</title>
<g id="a_node4"><a xlink:href="../../dd/d88/iot-block_8h.html" target="_top" xlink:title=" ">
<polygon fill="none" stroke="black" points="128,-56.5 128,-75.5 196,-75.5 196,-56.5 128,-56.5"/>
<text text-anchor="middle" x="162" y="-63.5" font-family="Helvetica,sans-Serif" font-size="10.00">iot&#45;block.h</text>
</a>
</g>
</g>
<!-- Node1&#45;&gt;Node4 -->
<g id="edge3" class="edge">
<title>Node1&#45;&gt;Node4</title>
<path fill="none" stroke="midnightblue" d="M117.75,-105.54C128.81,-95.91 142.63,-83.87 151.86,-75.83"/>
<polygon fill="midnightblue" stroke="midnightblue" points="115.2,-103.12 109.96,-112.32 119.8,-108.4 115.2,-103.12"/>
</g>
<!-- Node2&#45;&gt;Node3 -->
<g id="edge2" class="edge">
<title>Node2&#45;&gt;Node3</title>
<path fill="none" stroke="midnightblue" d="M53.99,-49.82C65.46,-40.15 79.91,-27.95 89.53,-19.83"/>
<polygon fill="midnightblue" stroke="midnightblue" points="51.67,-47.2 46.28,-56.32 56.18,-52.55 51.67,-47.2"/>
</g>
<!-- Node4&#45;&gt;Node3 -->
<g id="edge4" class="edge">
<title>Node4&#45;&gt;Node3</title>
<path fill="none" stroke="midnightblue" d="M144.25,-49.54C133.19,-39.91 119.37,-27.87 110.14,-19.83"/>
<polygon fill="midnightblue" stroke="midnightblue" points="142.2,-52.4 152.04,-56.32 146.8,-47.12 142.2,-52.4"/>
</g>
</g>
</svg>
