<?xml version="1.0" encoding="UTF-8" standalone="no"?>
<!DOCTYPE svg PUBLIC "-//W3C//DTD SVG 1.1//EN"
 "http://www.w3.org/Graphics/SVG/1.1/DTD/svg11.dtd">
<!-- Generated by graphviz version 2.43.0 (0)
 -->
<!-- Title: canbus.h Pages: 1 -->
<svg width="336pt" height="151pt"
 viewBox="0.00 0.00 336.29 151.00" xmlns="http://www.w3.org/2000/svg" xmlns:xlink="http://www.w3.org/1999/xlink">
<g id="graph0" class="graph" transform="scale(1 1) rotate(0) translate(4 147)">
<title>canbus.h</title>
<!-- Node1 -->
<g id="node1" class="node">
<title>Node1</title>
<g id="a_node1"><a xlink:title=" ">
<polygon fill="#bfbfbf" stroke="black" points="58.29,-123.5 58.29,-142.5 118.29,-142.5 118.29,-123.5 58.29,-123.5"/>
<text text-anchor="middle" x="88.29" y="-130.5" font-family="Helvetica,sans-Serif" font-size="10.00">canbus.h</text>
</a>
</g>
</g>
<!-- Node2 -->
<g id="node2" class="node">
<title>Node2</title>
<g id="a_node2"><a xlink:title=" ">
<polygon fill="none" stroke="#bfbfbf" points="61.79,-0.5 61.79,-19.5 114.79,-19.5 114.79,-0.5 61.79,-0.5"/>
<text text-anchor="middle" x="88.29" y="-7.5" font-family="Helvetica,sans-Serif" font-size="10.00">mbed.h</text>
</a>
</g>
</g>
<!-- Node1&#45;&gt;Node2 -->
<g id="edge1" class="edge">
<title>Node1&#45;&gt;Node2</title>
<path fill="none" stroke="midnightblue" d="M58.19,-124.23C39.4,-117.66 16.69,-106.15 5.29,-87 -1.76,-75.16 -1.76,-67.84 5.29,-56 15.38,-39.05 34.33,-28.09 51.58,-21.23"/>
<polygon fill="midnightblue" stroke="midnightblue" points="53.25,-24.35 61.46,-17.66 50.87,-17.77 53.25,-24.35"/>
</g>
<!-- Node3 -->
<g id="node3" class="node">
<title>Node3</title>
<g id="a_node3"><a xlink:href="../../d9/d8c/canbus__frame_8h.html" target="_top" xlink:title=" ">
<polygon fill="none" stroke="black" points="14.29,-56.5 14.29,-86.5 162.29,-86.5 162.29,-56.5 14.29,-56.5"/>
<text text-anchor="start" x="22.29" y="-74.5" font-family="Helvetica,sans-Serif" font-size="10.00">vitroio&#45;sdk/communication</text>
<text text-anchor="middle" x="88.29" y="-63.5" font-family="Helvetica,sans-Serif" font-size="10.00">/canbus_frame.h</text>
</a>
</g>
</g>
<!-- Node1&#45;&gt;Node3 -->
<g id="edge2" class="edge">
<title>Node1&#45;&gt;Node3</title>
<path fill="none" stroke="midnightblue" d="M88.29,-123.48C88.29,-116.47 88.29,-106.19 88.29,-96.7"/>
<polygon fill="midnightblue" stroke="midnightblue" points="91.79,-96.52 88.29,-86.52 84.79,-96.52 91.79,-96.52"/>
</g>
<!-- Node4 -->
<g id="node4" class="node">
<title>Node4</title>
<g id="a_node4"><a xlink:href="../../d7/de9/__CAN_8h.html" target="_top" xlink:title=" ">
<polygon fill="none" stroke="black" points="180.29,-56.5 180.29,-86.5 328.29,-86.5 328.29,-56.5 180.29,-56.5"/>
<text text-anchor="start" x="188.29" y="-74.5" font-family="Helvetica,sans-Serif" font-size="10.00">vitroio&#45;sdk/communication</text>
<text text-anchor="middle" x="254.29" y="-63.5" font-family="Helvetica,sans-Serif" font-size="10.00">/impl/_CAN.h</text>
</a>
</g>
</g>
<!-- Node1&#45;&gt;Node4 -->
<g id="edge4" class="edge">
<title>Node1&#45;&gt;Node4</title>
<path fill="none" stroke="midnightblue" d="M112.07,-123.48C136.34,-114.78 174.7,-101.03 205.47,-90"/>
<polygon fill="midnightblue" stroke="midnightblue" points="206.93,-93.19 215.16,-86.52 204.57,-86.6 206.93,-93.19"/>
</g>
<!-- Node3&#45;&gt;Node2 -->
<g id="edge3" class="edge">
<title>Node3&#45;&gt;Node2</title>
<path fill="none" stroke="midnightblue" d="M88.29,-56.4C88.29,-48.47 88.29,-38.46 88.29,-29.86"/>
<polygon fill="midnightblue" stroke="midnightblue" points="91.79,-29.66 88.29,-19.66 84.79,-29.66 91.79,-29.66"/>
</g>
<!-- Node4&#45;&gt;Node2 -->
<g id="edge5" class="edge">
<title>Node4&#45;&gt;Node2</title>
<path fill="none" stroke="midnightblue" d="M214.95,-56.4C186.72,-46.28 149.08,-32.79 122.18,-23.15"/>
<polygon fill="midnightblue" stroke="midnightblue" points="123.04,-19.74 112.44,-19.66 120.67,-26.33 123.04,-19.74"/>
</g>
</g>
</svg>
