<?xml version="1.0" encoding="UTF-8" standalone="no"?>
<!DOCTYPE svg PUBLIC "-//W3C//DTD SVG 1.1//EN"
 "http://www.w3.org/Graphics/SVG/1.1/DTD/svg11.dtd">
<!-- Generated by graphviz version 2.43.0 (0)
 -->
<!-- Title: iot&#45;block.h Pages: 1 -->
<svg width="413pt" height="218pt"
 viewBox="0.00 0.00 413.17 218.00" xmlns="http://www.w3.org/2000/svg" xmlns:xlink="http://www.w3.org/1999/xlink">
<g id="graph0" class="graph" transform="scale(1 1) rotate(0) translate(4 214)">
<title>iot&#45;block.h</title>
<!-- Node1 -->
<g id="node1" class="node">
<title>Node1</title>
<g id="a_node1"><a xlink:title=" ">
<polygon fill="#bfbfbf" stroke="black" points="188.17,-190.5 188.17,-209.5 256.17,-209.5 256.17,-190.5 188.17,-190.5"/>
<text text-anchor="middle" x="222.17" y="-197.5" font-family="Helvetica,sans-Serif" font-size="10.00">iot&#45;block.h</text>
</a>
</g>
</g>
<!-- Node2 -->
<g id="node2" class="node">
<title>Node2</title>
<g id="a_node2"><a xlink:href="../../d1/dd8/canbus_8h.html" target="_top" xlink:title=" ">
<polygon fill="none" stroke="black" points="40.17,-123.5 40.17,-153.5 188.17,-153.5 188.17,-123.5 40.17,-123.5"/>
<text text-anchor="start" x="48.17" y="-141.5" font-family="Helvetica,sans-Serif" font-size="10.00">vitroio&#45;sdk/communication</text>
<text text-anchor="middle" x="114.17" y="-130.5" font-family="Helvetica,sans-Serif" font-size="10.00">/canbus.h</text>
</a>
</g>
</g>
<!-- Node1&#45;&gt;Node2 -->
<g id="edge1" class="edge">
<title>Node1&#45;&gt;Node2</title>
<path fill="none" stroke="midnightblue" d="M206.7,-190.48C191.59,-182.15 168.09,-169.21 148.56,-158.45"/>
<polygon fill="midnightblue" stroke="midnightblue" points="150.07,-155.28 139.63,-153.52 146.7,-161.41 150.07,-155.28"/>
</g>
<!-- Node6 -->
<g id="node6" class="node">
<title>Node6</title>
<g id="a_node6"><a xlink:href="../../d6/d7f/transport__layer_8h.html" target="_top" xlink:title=" ">
<polygon fill="none" stroke="black" points="257.17,-123.5 257.17,-153.5 405.17,-153.5 405.17,-123.5 257.17,-123.5"/>
<text text-anchor="start" x="265.17" y="-141.5" font-family="Helvetica,sans-Serif" font-size="10.00">vitroio&#45;sdk/communication</text>
<text text-anchor="middle" x="331.17" y="-130.5" font-family="Helvetica,sans-Serif" font-size="10.00">/transport_layer.h</text>
</a>
</g>
</g>
<!-- Node1&#45;&gt;Node6 -->
<g id="edge7" class="edge">
<title>Node1&#45;&gt;Node6</title>
<path fill="none" stroke="midnightblue" d="M237.79,-190.48C253.03,-182.15 276.75,-169.21 296.47,-158.45"/>
<polygon fill="midnightblue" stroke="midnightblue" points="298.38,-161.39 305.48,-153.52 295.03,-155.24 298.38,-161.39"/>
</g>
<!-- Node3 -->
<g id="node3" class="node">
<title>Node3</title>
<g id="a_node3"><a xlink:title=" ">
<polygon fill="none" stroke="#bfbfbf" points="145.67,-0.5 145.67,-19.5 198.67,-19.5 198.67,-0.5 145.67,-0.5"/>
<text text-anchor="middle" x="172.17" y="-7.5" font-family="Helvetica,sans-Serif" font-size="10.00">mbed.h</text>
</a>
</g>
</g>
<!-- Node2&#45;&gt;Node3 -->
<g id="edge2" class="edge">
<title>Node2&#45;&gt;Node3</title>
<path fill="none" stroke="midnightblue" d="M67.79,-123.37C29.17,-109.15 -16.16,-85.2 6.17,-56 21.79,-35.58 91.5,-22.27 135.47,-15.75"/>
<polygon fill="midnightblue" stroke="midnightblue" points="136.11,-19.19 145.51,-14.31 135.11,-12.26 136.11,-19.19"/>
</g>
<!-- Node4 -->
<g id="node4" class="node">
<title>Node4</title>
<g id="a_node4"><a xlink:href="../../d9/d8c/canbus__frame_8h.html" target="_top" xlink:title=" ">
<polygon fill="none" stroke="black" points="15.17,-56.5 15.17,-86.5 163.17,-86.5 163.17,-56.5 15.17,-56.5"/>
<text text-anchor="start" x="23.17" y="-74.5" font-family="Helvetica,sans-Serif" font-size="10.00">vitroio&#45;sdk/communication</text>
<text text-anchor="middle" x="89.17" y="-63.5" font-family="Helvetica,sans-Serif" font-size="10.00">/canbus_frame.h</text>
</a>
</g>
</g>
<!-- Node2&#45;&gt;Node4 -->
<g id="edge3" class="edge">
<title>Node2&#45;&gt;Node4</title>
<path fill="none" stroke="midnightblue" d="M108.75,-123.4C105.67,-115.39 101.73,-105.16 98.2,-95.98"/>
<polygon fill="midnightblue" stroke="midnightblue" points="101.44,-94.65 94.59,-86.58 94.91,-97.17 101.44,-94.65"/>
</g>
<!-- Node5 -->
<g id="node5" class="node">
<title>Node5</title>
<g id="a_node5"><a xlink:href="../../d7/de9/__CAN_8h.html" target="_top" xlink:title=" ">
<polygon fill="none" stroke="black" points="181.17,-56.5 181.17,-86.5 329.17,-86.5 329.17,-56.5 181.17,-56.5"/>
<text text-anchor="start" x="189.17" y="-74.5" font-family="Helvetica,sans-Serif" font-size="10.00">vitroio&#45;sdk/communication</text>
<text text-anchor="middle" x="255.17" y="-63.5" font-family="Helvetica,sans-Serif" font-size="10.00">/impl/_CAN.h</text>
</a>
</g>
</g>
<!-- Node2&#45;&gt;Node5 -->
<g id="edge5" class="edge">
<title>Node2&#45;&gt;Node5</title>
<path fill="none" stroke="midnightblue" d="M144.77,-123.4C165.46,-113.86 192.99,-101.16 215.39,-90.84"/>
<polygon fill="midnightblue" stroke="midnightblue" points="217.02,-93.94 224.64,-86.58 214.09,-87.58 217.02,-93.94"/>
</g>
<!-- Node4&#45;&gt;Node3 -->
<g id="edge4" class="edge">
<title>Node4&#45;&gt;Node3</title>
<path fill="none" stroke="midnightblue" d="M108.84,-56.4C121.77,-47.13 138.66,-35.03 151.74,-25.65"/>
<polygon fill="midnightblue" stroke="midnightblue" points="154.01,-28.33 160.09,-19.66 149.93,-22.64 154.01,-28.33"/>
</g>
<!-- Node5&#45;&gt;Node3 -->
<g id="edge6" class="edge">
<title>Node5&#45;&gt;Node3</title>
<path fill="none" stroke="midnightblue" d="M235.5,-56.4C222.57,-47.13 205.69,-35.03 192.6,-25.65"/>
<polygon fill="midnightblue" stroke="midnightblue" points="194.42,-22.64 184.25,-19.66 190.34,-28.33 194.42,-22.64"/>
</g>
<!-- Node6&#45;&gt;Node3 -->
<g id="edge8" class="edge">
<title>Node6&#45;&gt;Node3</title>
<path fill="none" stroke="midnightblue" d="M337.73,-123.2C344.75,-105.52 353.01,-75.4 338.17,-56 322.55,-35.58 252.84,-22.27 208.87,-15.75"/>
<polygon fill="midnightblue" stroke="midnightblue" points="209.23,-12.26 198.83,-14.31 208.24,-19.19 209.23,-12.26"/>
</g>
</g>
</svg>
