<?xml version="1.0" encoding="UTF-8" standalone="no"?>
<!DOCTYPE svg PUBLIC "-//W3C//DTD SVG 1.1//EN"
 "http://www.w3.org/Graphics/SVG/1.1/DTD/svg11.dtd">
<!-- Generated by graphviz version 2.43.0 (0)
 -->
<!-- Title: measurement_api.h Pages: 1 -->
<svg width="547pt" height="229pt"
 viewBox="0.00 0.00 546.50 229.00" xmlns="http://www.w3.org/2000/svg" xmlns:xlink="http://www.w3.org/1999/xlink">
<g id="graph0" class="graph" transform="scale(1 1) rotate(0) translate(4 225)">
<title>measurement_api.h</title>
<!-- Node1 -->
<g id="node1" class="node">
<title>Node1</title>
<g id="a_node1"><a xlink:title=" ">
<polygon fill="#bfbfbf" stroke="black" points="182.5,-201.5 182.5,-220.5 296.5,-220.5 296.5,-201.5 182.5,-201.5"/>
<text text-anchor="middle" x="239.5" y="-208.5" font-family="Helvetica,sans-Serif" font-size="10.00">measurement_api.h</text>
</a>
</g>
</g>
<!-- Node2 -->
<g id="node2" class="node">
<title>Node2</title>
<g id="a_node2"><a xlink:title=" ">
<polygon fill="none" stroke="#bfbfbf" points="0,-134.5 0,-153.5 53,-153.5 53,-134.5 0,-134.5"/>
<text text-anchor="middle" x="26.5" y="-141.5" font-family="Helvetica,sans-Serif" font-size="10.00">mbed.h</text>
</a>
</g>
</g>
<!-- Node1&#45;&gt;Node2 -->
<g id="edge1" class="edge">
<title>Node1&#45;&gt;Node2</title>
<path fill="none" stroke="midnightblue" d="M191.16,-201.48C154.71,-194.18 103.92,-182.11 61.5,-165 57.15,-163.24 52.67,-161.04 48.44,-158.73"/>
<polygon fill="midnightblue" stroke="midnightblue" points="50.11,-155.65 39.7,-153.68 46.6,-161.71 50.11,-155.65"/>
</g>
<!-- Node3 -->
<g id="node3" class="node">
<title>Node3</title>
<g id="a_node3"><a xlink:href="../../df/d63/abstract__sensor__interface_8h.html" target="_top" xlink:title=" ">
<polygon fill="none" stroke="black" points="71,-129 71,-159 244,-159 244,-129 71,-129"/>
<text text-anchor="start" x="79" y="-147" font-family="Helvetica,sans-Serif" font-size="10.00">vitroio&#45;sdk/measurement</text>
<text text-anchor="middle" x="157.5" y="-136" font-family="Helvetica,sans-Serif" font-size="10.00">&#45;api/abstract_sensor_interface.h</text>
</a>
</g>
</g>
<!-- Node1&#45;&gt;Node3 -->
<g id="edge2" class="edge">
<title>Node1&#45;&gt;Node3</title>
<path fill="none" stroke="midnightblue" d="M228.44,-201.23C216.93,-192.11 198.5,-177.5 183.31,-165.46"/>
<polygon fill="midnightblue" stroke="midnightblue" points="185.28,-162.56 175.27,-159.09 180.94,-168.04 185.28,-162.56"/>
</g>
<!-- Node6 -->
<g id="node6" class="node">
<title>Node6</title>
<g id="a_node6"><a xlink:href="../../da/d23/list_8h.html" target="_top" xlink:title=" ">
<polygon fill="none" stroke="black" points="262.5,-129 262.5,-159 380.5,-159 380.5,-129 262.5,-129"/>
<text text-anchor="start" x="270.5" y="-147" font-family="Helvetica,sans-Serif" font-size="10.00">vitroio&#45;sdk/utils/impl</text>
<text text-anchor="middle" x="321.5" y="-136" font-family="Helvetica,sans-Serif" font-size="10.00">/list.h</text>
</a>
</g>
</g>
<!-- Node1&#45;&gt;Node6 -->
<g id="edge6" class="edge">
<title>Node1&#45;&gt;Node6</title>
<path fill="none" stroke="midnightblue" d="M250.56,-201.23C262.07,-192.11 280.5,-177.5 295.69,-165.46"/>
<polygon fill="midnightblue" stroke="midnightblue" points="298.06,-168.04 303.73,-159.09 293.72,-162.56 298.06,-168.04"/>
</g>
<!-- Node8 -->
<g id="node8" class="node">
<title>Node8</title>
<g id="a_node8"><a xlink:title=" ">
<polygon fill="none" stroke="#bfbfbf" points="398.5,-123.5 398.5,-164.5 538.5,-164.5 538.5,-123.5 398.5,-123.5"/>
<text text-anchor="start" x="406.5" y="-152.5" font-family="Helvetica,sans-Serif" font-size="10.00">vitroio&#45;sdk/measurement</text>
<text text-anchor="start" x="406.5" y="-141.5" font-family="Helvetica,sans-Serif" font-size="10.00">&#45;api/impl/measurement</text>
<text text-anchor="middle" x="468.5" y="-130.5" font-family="Helvetica,sans-Serif" font-size="10.00">_api.hpp</text>
</a>
</g>
</g>
<!-- Node1&#45;&gt;Node8 -->
<g id="edge8" class="edge">
<title>Node1&#45;&gt;Node8</title>
<path fill="none" stroke="midnightblue" d="M269.91,-201.37C300.32,-192.74 348.37,-179.1 389.59,-167.4"/>
<polygon fill="midnightblue" stroke="midnightblue" points="390.69,-170.72 399.36,-164.63 388.78,-163.99 390.69,-170.72"/>
</g>
<!-- Node4 -->
<g id="node4" class="node">
<title>Node4</title>
<g id="a_node4"><a xlink:title=" ">
<polygon fill="none" stroke="#bfbfbf" points="97,-0.5 97,-19.5 150,-19.5 150,-0.5 97,-0.5"/>
<text text-anchor="middle" x="123.5" y="-7.5" font-family="Helvetica,sans-Serif" font-size="10.00">stdint.h</text>
</a>
</g>
</g>
<!-- Node3&#45;&gt;Node4 -->
<g id="edge3" class="edge">
<title>Node3&#45;&gt;Node4</title>
<path fill="none" stroke="midnightblue" d="M130.81,-128.94C115.66,-119.36 98.05,-105.12 89.5,-87 83.62,-74.54 85.12,-69.06 89.5,-56 93.1,-45.25 100.4,-35.02 107.32,-27.04"/>
<polygon fill="midnightblue" stroke="midnightblue" points="109.98,-29.32 114.21,-19.61 104.85,-24.56 109.98,-29.32"/>
</g>
<!-- Node5 -->
<g id="node5" class="node">
<title>Node5</title>
<g id="a_node5"><a xlink:href="../../d7/d99/abstract__sensor__driver_8h.html" target="_top" xlink:title=" ">
<polygon fill="none" stroke="black" points="98.5,-56.5 98.5,-86.5 256.5,-86.5 256.5,-56.5 98.5,-56.5"/>
<text text-anchor="start" x="106.5" y="-74.5" font-family="Helvetica,sans-Serif" font-size="10.00">vitroio&#45;sdk/measurement</text>
<text text-anchor="middle" x="177.5" y="-63.5" font-family="Helvetica,sans-Serif" font-size="10.00">&#45;api/abstract_sensor_driver.h</text>
</a>
</g>
</g>
<!-- Node3&#45;&gt;Node5 -->
<g id="edge4" class="edge">
<title>Node3&#45;&gt;Node5</title>
<path fill="none" stroke="midnightblue" d="M161.55,-128.73C164.18,-119.46 167.67,-107.15 170.72,-96.41"/>
<polygon fill="midnightblue" stroke="midnightblue" points="174.1,-97.32 173.46,-86.75 167.36,-95.41 174.1,-97.32"/>
</g>
<!-- Node5&#45;&gt;Node4 -->
<g id="edge5" class="edge">
<title>Node5&#45;&gt;Node4</title>
<path fill="none" stroke="midnightblue" d="M164.7,-56.4C156.78,-47.66 146.56,-36.41 138.29,-27.3"/>
<polygon fill="midnightblue" stroke="midnightblue" points="140.67,-24.71 131.36,-19.66 135.49,-29.42 140.67,-24.71"/>
</g>
<!-- Node7 -->
<g id="node7" class="node">
<title>Node7</title>
<g id="a_node7"><a xlink:title=" ">
<polygon fill="none" stroke="#bfbfbf" points="295,-62 295,-81 348,-81 348,-62 295,-62"/>
<text text-anchor="middle" x="321.5" y="-69" font-family="Helvetica,sans-Serif" font-size="10.00">cstddef</text>
</a>
</g>
</g>
<!-- Node6&#45;&gt;Node7 -->
<g id="edge7" class="edge">
<title>Node6&#45;&gt;Node7</title>
<path fill="none" stroke="midnightblue" d="M321.5,-128.73C321.5,-118 321.5,-103.19 321.5,-91.46"/>
<polygon fill="midnightblue" stroke="midnightblue" points="325,-91.39 321.5,-81.39 318,-91.39 325,-91.39"/>
</g>
</g>
</svg>
