<?xml version="1.0" encoding="UTF-8" standalone="no"?>
<!DOCTYPE svg PUBLIC "-//W3C//DTD SVG 1.1//EN"
 "http://www.w3.org/Graphics/SVG/1.1/DTD/svg11.dtd">
<!-- Generated by graphviz version 2.43.0 (0)
 -->
<!-- Title: environment_interface.h Pages: 1 -->
<svg width="262pt" height="140pt"
 viewBox="0.00 0.00 262.00 140.00" xmlns="http://www.w3.org/2000/svg" xmlns:xlink="http://www.w3.org/1999/xlink">
<g id="graph0" class="graph" transform="scale(1 1) rotate(0) translate(4 136)">
<title>environment_interface.h</title>
<!-- Node1 -->
<g id="node1" class="node">
<title>Node1</title>
<g id="a_node1"><a xlink:title=" ">
<polygon fill="#bfbfbf" stroke="black" points="0,-112.5 0,-131.5 137,-131.5 137,-112.5 0,-112.5"/>
<text text-anchor="middle" x="68.5" y="-119.5" font-family="Helvetica,sans-Serif" font-size="10.00">environment_interface.h</text>
</a>
</g>
</g>
<!-- Node2 -->
<g id="node2" class="node">
<title>Node2</title>
<g id="a_node2"><a xlink:title=" ">
<polygon fill="none" stroke="#bfbfbf" points="1,-0.5 1,-19.5 54,-19.5 54,-0.5 1,-0.5"/>
<text text-anchor="middle" x="27.5" y="-7.5" font-family="Helvetica,sans-Serif" font-size="10.00">mbed.h</text>
</a>
</g>
</g>
<!-- Node1&#45;&gt;Node2 -->
<g id="edge1" class="edge">
<title>Node1&#45;&gt;Node2</title>
<path fill="none" stroke="midnightblue" d="M47.65,-112.43C32.92,-105.13 14.3,-93.09 5.5,-76 -2.47,-60.51 5.84,-41.5 14.44,-28.05"/>
<polygon fill="midnightblue" stroke="midnightblue" points="17.39,-29.95 20.24,-19.74 11.65,-25.94 17.39,-29.95"/>
</g>
<!-- Node3 -->
<g id="node3" class="node">
<title>Node3</title>
<g id="a_node3"><a xlink:href="../../d9/d49/types_8h.html" target="_top" xlink:title="The file contains types used by vitro&#45;shard&#45;sdk.">
<polygon fill="none" stroke="black" points="14.5,-56.5 14.5,-75.5 122.5,-75.5 122.5,-56.5 14.5,-56.5"/>
<text text-anchor="middle" x="68.5" y="-63.5" font-family="Helvetica,sans-Serif" font-size="10.00">vitroio&#45;sdk/types.h</text>
</a>
</g>
</g>
<!-- Node1&#45;&gt;Node3 -->
<g id="edge2" class="edge">
<title>Node1&#45;&gt;Node3</title>
<path fill="none" stroke="midnightblue" d="M68.5,-112.08C68.5,-105.01 68.5,-94.86 68.5,-85.99"/>
<polygon fill="midnightblue" stroke="midnightblue" points="72,-85.75 68.5,-75.75 65,-85.75 72,-85.75"/>
</g>
<!-- Node4 -->
<g id="node4" class="node">
<title>Node4</title>
<g id="a_node4"><a xlink:href="../../d8/db5/consts_8h.html" target="_top" xlink:title="The file contains constants of vitro&#45;shard&#45;sdk for user usage.">
<polygon fill="none" stroke="black" points="141,-56.5 141,-75.5 254,-75.5 254,-56.5 141,-56.5"/>
<text text-anchor="middle" x="197.5" y="-63.5" font-family="Helvetica,sans-Serif" font-size="10.00">vitroio&#45;sdk/consts.h</text>
</a>
</g>
</g>
<!-- Node1&#45;&gt;Node4 -->
<g id="edge4" class="edge">
<title>Node1&#45;&gt;Node4</title>
<path fill="none" stroke="midnightblue" d="M88.94,-112.44C110.17,-103.56 143.6,-89.56 167.75,-79.45"/>
<polygon fill="midnightblue" stroke="midnightblue" points="169.28,-82.61 177.16,-75.52 166.58,-76.15 169.28,-82.61"/>
</g>
<!-- Node3&#45;&gt;Node2 -->
<g id="edge3" class="edge">
<title>Node3&#45;&gt;Node2</title>
<path fill="none" stroke="midnightblue" d="M61.73,-56.08C55.94,-48.46 47.44,-37.26 40.36,-27.94"/>
<polygon fill="midnightblue" stroke="midnightblue" points="42.98,-25.6 34.14,-19.75 37.4,-29.83 42.98,-25.6"/>
</g>
</g>
</svg>
